<svg xmlns="http://www.w3.org/2000/svg" style="display: none">
  <defs>
    <symbol viewBox="0 0 448 512" id="tiktok">
      <path fill="currentColor" d="M448.5 209.9c-44 .1-87-13.6-122.8-39.2l0 178.7c0 33.1-10.1 65.4-29 92.6s-45.6 48-76.6 59.6-64.8 13.5-96.9 5.3-60.9-25.9-82.7-50.8-35.3-56-39-88.9 2.9-66.1 18.6-95.2 40-52.7 69.6-67.7 62.9-20.5 95.7-16l0 89.9c-15-4.7-31.1-4.6-46 .4s-27.9 14.6-37 27.3-14 28.1-13.9 43.9 5.2 31 14.5 43.7 22.4 22.1 37.4 26.9 31.1 4.8 46-.1 28-14.4 37.2-27.1 14.2-28.1 14.2-43.8l0-349.4 88 0c-.1 7.4 .6 14.9 1.9 22.2 3.1 16.3 9.4 31.9 18.7 45.7s21.3 25.6 35.2 34.6c19.9 13.1 43.2 20.1 67 20.1l0 87.4z"/>
    </symbol>
    <symbol viewBox="0 0 576 512" id="weixin">
      <path fill="currentColor" d="M385.2 167.6c6.4 0 12.6 .3 18.8 1.1-16.6-78.4-100.7-136.7-196.3-136.7-107.2 0-194.7 72.8-194.7 165.4 0 53.4 29.3 97.5 77.9 131.6l-19.3 58.6 68-34.1c24.4 4.8 43.8 9.7 68.2 9.7 6.2 0 12.1-.3 18.3-.8-4-12.9-6.2-26.6-6.2-40.8-.1-84.9 72.9-154 165.3-154zM280.7 114.7c14.5 0 24.2 9.7 24.2 24.4 0 14.5-9.7 24.2-24.2 24.2-14.8 0-29.3-9.7-29.3-24.2 .1-14.7 14.6-24.4 29.3-24.4zM144.3 163.3c-14.5 0-29.3-9.7-29.3-24.2 0-14.8 14.8-24.4 29.3-24.4 14.8 0 24.4 9.7 24.4 24.4 0 14.6-9.6 24.2-24.4 24.2zM563 319.4c0-77.9-77.9-141.3-165.4-141.3-92.7 0-165.4 63.4-165.4 141.3S305 460.7 397.6 460.7c19.3 0 38.9-5.1 58.6-9.9l53.4 29.3-14.8-48.6C534 402.1 563 363.2 563 319.4zM343.9 294.9c-9.7 0-19.3-9.7-19.3-19.6 0-9.7 9.7-19.3 19.3-19.3 14.8 0 24.4 9.7 24.4 19.3 0 10-9.7 19.6-24.4 19.6zm107.1 0c-9.7 0-19.3-9.7-19.3-19.6 0-9.7 9.7-19.3 19.3-19.3 14.5 0 24.4 9.7 24.4 19.3 .1 10-9.9 19.6-24.4 19.6z"/>
    </symbol>
  </defs>
</svg>
