<svg xmlns="http://www.w3.org/2000/svg" style="display: none">
  <defs>
    <symbol viewBox="0 0 640 512" id="amazon-pay">
      <path fill="currentColor" d="M14 325.3c2.3-4.2 5.2-4.9 9.7-2.5 10.4 5.6 20.6 11.4 31.2 16.7 40.6 20.2 83.3 35.8 127.4 46.3 20.8 5 41.9 9 63.2 11.8 31.5 4.2 63.2 6 95 5.2 17.4-.4 34.8-1.8 52.1-3.8 56.2-6.6 111.1-21 163.3-42.8 2.9-1.2 5.9-2 9.1-1.2 6.7 1.8 9 9 4.1 13.9-3 2.7-6.2 5.2-9.6 7.4-30.7 21.1-64.2 36.4-99.6 47.9-24.5 7.9-49.6 13.8-75.1 17.6-17.6 2.7-35.4 4.3-53.2 4.8-.8 0-1.7 .2-2.5 .3l-21.1 0c-.8-.1-1.7-.2-2.5-.3-3.6-.2-7.2-.3-10.7-.4-16.9-.8-33.7-2.5-50.4-5.3-27.4-4.5-54.3-11.5-80.4-20.9-53.7-19.4-103.1-48.9-145.6-87-1.8-1.6-3-3.8-4.4-5.7l0-2zM172 65.1l-4.3 .6c-13.8 1.7-26.8 6.9-38 15.1-2.4 1.7-4.6 3.5-7.1 5.4-.2-.4-.3-.9-.4-1.4-.4-2.7-.8-5.5-1.3-8.2-.7-4.6-3-6.6-7.6-6.6l-11.5 0c-6.9 0-8.2 1.3-8.2 8.2l0 209.3c0 1 0 2 .1 3 .2 3 2 4.9 4.9 5 7 .1 14.1 .1 21.1 0 2.9 0 4.7-2 5-5 .1-1 .1-2 .1-3l0-72.4c1.1 .9 1.7 1.4 2.2 1.9 17.9 14.9 38.5 19.8 61 15.4 20.4-4 34.6-16.5 43.8-34.9 7-13.9 9.9-28.7 10.3-44.1 .5-17.1-1.2-33.9-8.1-49.8-8.5-19.6-22.6-32.5-43.9-36.9-3.2-.7-6.5-1-9.8-1.5-2.8-.1-5.5-.1-8.3-.1zM124.6 107c-.1-.7 .1-1.3 .4-1.9s.8-1.1 1.3-1.4c13.7-9.5 28.8-14.5 45.6-13.2 14.9 1.1 27.1 8.4 33.5 25.9 3.9 10.7 4.9 21.8 4.9 33 0 10.4-.8 20.6-4 30.6-6.8 21.3-22.4 29.4-42.6 28.5-14-.6-26.2-6-37.4-13.9-.6-.3-1-.8-1.3-1.4s-.4-1.2-.4-1.9c.1-14.1 0-28.1 0-42.2s.1-28 0-42.1zM330.3 65.1c-1 .1-2 .3-2.9 .4-9.7 .4-19.4 1.8-28.9 4.1-6.1 1.6-12 3.8-17.9 5.8-3.6 1.2-5.4 3.8-5.3 7.7 .1 3.3-.1 6.6 0 9.9 .1 4.8 2.1 6.1 6.8 4.9 7.8-2 15.6-4.2 23.5-5.7 12.3-2.3 24.7-3.3 37.2-1.4 6.5 1 12.6 2.9 16.8 8.4 3.7 4.8 5.1 10.5 5.3 16.4 .3 8.3 .2 16.6 .3 24.9 0 .5-.1 .9-.2 1.4-.5-.1-.9 0-1.3-.1-10.5-2.6-21.2-4.2-32-4.9-11.3-.6-22.5 .1-33.3 3.9-12.9 4.5-23.3 12.3-29.4 24.9-4.7 9.8-5.4 20.2-3.9 30.7 2 14 9 24.8 21.4 31.7 11.9 6.6 24.8 7.4 37.9 5.4 15.1-2.3 28.5-8.7 40.3-18.4 .5-.4 1-.8 1.6-1.1 .6 3.8 1.1 7.4 1.8 11 .6 3.1 2.5 5.1 5.4 5.2 5.4 .1 10.9 .1 16.3 0 1.3 0 2.5-.5 3.4-1.4s1.4-2.1 1.5-3.3c.1-.9 .1-1.9 .1-2.8l0-106c0-4.3-.3-8.6-.9-12.9-1.9-12.9-7.4-23.5-19-30.4-6.7-4-14.1-6-21.8-7.1-3.6-.5-7.2-.8-10.8-1.3-3.9 .1-7.9 .1-11.9 .1zm35 127.7c0 .6-.1 1.2-.3 1.7s-.7 1-1.2 1.3c-11.2 8.1-23.5 13.5-37.4 14.9-5.7 .6-11.4 .4-16.8-1.8-3-1.1-5.6-2.9-7.8-5.2s-3.7-5.1-4.6-8.1c-2-6.3-2-13.1-.1-19.4 2.5-8.3 8.4-13 16.4-15.6 8-2.4 16.5-3.2 24.8-2.2 8.4 .7 16.6 2.3 25 3.4 1.6 .2 2.1 1 2.1 2.6-.1 4.8 0 9.5 0 14.3s-.2 9.4-.1 14.1zM625.2 322.2c-1-5-4.8-6.9-9.1-8.3-6.8-2.1-13.9-3.5-21-3.9-13.1-1.1-26.3-.5-39.2 1.9-14.3 2.7-27.9 7.3-40 15.6-1.4 .9-2.7 2.1-3.7 3.5-.4 .6-.6 1.3-.7 1.9s0 1.4 .2 2.1c.4 1.5 2.1 1.9 3.6 1.8 .7 0 1.5 0 2.2-.1 7.8-.8 15.5-1.7 23.3-2.5 11.4-1.1 22.9-1.8 34.3-.9 4.9 .4 9.7 1.3 14.4 2.7 5.1 1.4 7.4 5.2 7.6 10.4 .4 8-1.4 15.7-3.5 23.3-4.1 15.4-10 30.3-15.8 45.1-.4 1-.8 2-1 3-.5 2.9 1.2 4.8 4.1 4.1 1.8-.4 3.4-1.3 4.8-2.5 4.5-4.2 8.8-8.7 12.7-13.4 12.8-16.4 20.3-35.3 24.7-55.6 .8-3.6 1.4-7.3 2.1-10.9l0-17.3zM493.1 199c-12.9-35.7-25.8-71.4-38.7-107.2-2-5.7-4.2-11.3-6.3-16.9-1.1-2.9-3.2-4.8-6.4-4.8-7.6-.1-15.2-.2-22.9-.1-2.5 0-3.7 2-3.2 4.5 .5 2.1 1.1 4.1 1.9 6.1 19.6 48.5 39.3 97 59.1 145.5 1.7 4.1 2.1 7.6 .2 11.8-3.3 7.3-5.9 15-9.3 22.3-3 6.5-8 11.4-15.2 13.3-5 1.3-10.2 1.7-15.4 1.1-2.5-.2-5-.8-7.5-1-3.4-.2-5.1 1.3-5.2 4.8-.1 3.3-.1 6.6 0 9.9 .1 5.5 2 8 7.4 8.9 5.6 1.1 11.2 1.8 16.9 2 17.1 .4 30.7-6.5 39.5-21.4 3.5-5.9 6.6-12 9.2-18.4 23.7-59.8 47.2-119.7 70.6-179.6 .7-1.8 1.3-3.6 1.6-5.5 .4-2.8-.9-4.4-3.7-4.4-6.6-.1-13.3 0-19.9 0-1.7-.1-3.4 .3-4.7 1.3s-2.4 2.3-3 3.9c-.5 1.4-1.1 2.7-1.6 4.1l-34.8 100c-2.5 7.2-5.1 14.5-7.7 22.2-.4-1.1-.6-1.7-.9-2.4z"/>
    </symbol>
    <symbol viewBox="0 0 448 512" id="tiktok">
      <path fill="currentColor" d="M448.5 209.9c-44 .1-87-13.6-122.8-39.2l0 178.7c0 33.1-10.1 65.4-29 92.6s-45.6 48-76.6 59.6-64.8 13.5-96.9 5.3-60.9-25.9-82.7-50.8-35.3-56-39-88.9 2.9-66.1 18.6-95.2 40-52.7 69.6-67.7 62.9-20.5 95.7-16l0 89.9c-15-4.7-31.1-4.6-46 .4s-27.9 14.6-37 27.3-14 28.1-13.9 43.9 5.2 31 14.5 43.7 22.4 22.1 37.4 26.9 31.1 4.8 46-.1 28-14.4 37.2-27.1 14.2-28.1 14.2-43.8l0-349.4 88 0c-.1 7.4 .6 14.9 1.9 22.2 3.1 16.3 9.4 31.9 18.7 45.7s21.3 25.6 35.2 34.6c19.9 13.1 43.2 20.1 67 20.1l0 87.4z"/>
    </symbol>
    <symbol viewBox="0 0 576 512" id="weixin">
      <path fill="currentColor" d="M385.2 167.6c6.4 0 12.6 .3 18.8 1.1-16.6-78.4-100.7-136.7-196.3-136.7-107.2 0-194.7 72.8-194.7 165.4 0 53.4 29.3 97.5 77.9 131.6l-19.3 58.6 68-34.1c24.4 4.8 43.8 9.7 68.2 9.7 6.2 0 12.1-.3 18.3-.8-4-12.9-6.2-26.6-6.2-40.8-.1-84.9 72.9-154 165.3-154zM280.7 114.7c14.5 0 24.2 9.7 24.2 24.4 0 14.5-9.7 24.2-24.2 24.2-14.8 0-29.3-9.7-29.3-24.2 .1-14.7 14.6-24.4 29.3-24.4zM144.3 163.3c-14.5 0-29.3-9.7-29.3-24.2 0-14.8 14.8-24.4 29.3-24.4 14.8 0 24.4 9.7 24.4 24.4 0 14.6-9.6 24.2-24.4 24.2zM563 319.4c0-77.9-77.9-141.3-165.4-141.3-92.7 0-165.4 63.4-165.4 141.3S305 460.7 397.6 460.7c19.3 0 38.9-5.1 58.6-9.9l53.4 29.3-14.8-48.6C534 402.1 563 363.2 563 319.4zM343.9 294.9c-9.7 0-19.3-9.7-19.3-19.6 0-9.7 9.7-19.3 19.3-19.3 14.8 0 24.4 9.7 24.4 19.3 0 10-9.7 19.6-24.4 19.6zm107.1 0c-9.7 0-19.3-9.7-19.3-19.6 0-9.7 9.7-19.3 19.3-19.3 14.5 0 24.4 9.7 24.4 19.3 .1 10-9.9 19.6-24.4 19.6z"/>
    </symbol>
  </defs>
</svg>
