<svg xmlns="http://www.w3.org/2000/svg" style="display: none">
  <defs>
    <symbol viewBox="0 0 256 512" id="angle-left">
      <path fill="currentColor" d="M15.5 239c-9.4 9.4-9.4 24.6 0 33.9l160 160c9.4 9.4 24.6 9.4 33.9 0s9.4-24.6 0-33.9l-143-143 143-143c9.4-9.4 9.4-24.6 0-33.9s-24.6-9.4-33.9 0L15.5 239z"/>
    </symbol>
    <symbol viewBox="0 0 512 512" id="share-nodes">
      <path fill="currentColor" d="M432 96a48 48 0 1 0 -96 0 48 48 0 1 0 96 0zm48 0c0 53-43 96-96 96-27.4 0-52.1-11.5-69.6-29.9L188.9 231.8c2 7.7 3.1 15.8 3.1 24.2s-1.1 16.5-3.1 24.2l125.5 69.7c17.5-18.4 42.2-29.9 69.6-29.9 53 0 96 43 96 96s-43 96-96 96-96-43-96-96c0-8.3 1.1-16.5 3.1-24.2L165.6 322.1C148.1 340.5 123.4 352 96 352 43 352 0 309 0 256s43-96 96-96c27.4 0 52.1 11.5 69.6 29.9l125.5-69.7c-2-7.7-3.1-15.8-3.1-24.2 0-53 43-96 96-96s96 43 96 96zM144 256a48 48 0 1 0 -96 0 48 48 0 1 0 96 0zM384 464a48 48 0 1 0 0-96 48 48 0 1 0 0 96z"/>
    </symbol>
    <symbol viewBox="0 0 512 512" id="store">
      <path fill="currentColor" d="M29.9 81.9C40.4 52 68.6 32 100.3 32l312.2 0c31.7 0 59.9 20 70.4 49.9l18.4 52.6c11 31.5 1 63.9-20.9 84.4l0 189.2c0 39.8-32.2 72-72 72l-304 0c-39.8 0-72-32.2-72-72l0-189.2C10.5 198.4 .5 166 11.5 134.5L29.9 81.9zM80.4 239.8l0 80.2 352 0 0-80.2c-2 .1-3.9 .2-5.9 .2-21.8 0-41.8-8.9-56.2-23.3-14.6 14.4-34.6 23.3-56.9 23.3-22.2 0-42.4-9-57-23.5-14.6 14.5-34.8 23.5-57 23.5-22.3 0-42.3-8.9-56.9-23.3-14.4 14.5-34.3 23.3-56.2 23.3-2 0-4-.1-6-.2zM174.1 80l-7.6 75.7c-1.9 19.4 13.3 36.3 32.8 36.3 18.2 0 33-14.8 33-33l0-79-58.3 0zm106.3 79c0 18.2 14.8 33 33 33 19.5 0 34.8-16.9 32.8-36.3l-7.6-75.7-58.3 0 0 79zm114.9 4.8c1.6 16 15.1 28.2 31.1 28.2 21.6 0 36.7-21.3 29.5-41.6L437.6 97.8C433.9 87.1 423.8 80 412.5 80l-25.6 0 8.4 83.8zM86.4 192c16.1 0 29.5-12.2 31.1-28.2l8.4-83.8-25.6 0C89 80 79 87.1 75.2 97.8L56.8 150.4c-7.1 20.4 8 41.6 29.5 41.6zm-6 216c0 13.3 10.7 24 24 24l304 0c13.3 0 24-10.7 24-24l0-40-352 0 0 40z"/>
    </symbol>
    <symbol viewBox="0 0 448 512" id="trash">
      <path fill="currentColor" d="M136.2 4.8c4.7-12.5 16.6-20.8 30-20.8l115.6 0c13.3 0 25.3 8.3 30 20.8L328 48 424 48c13.3 0 24 10.7 24 24s-10.7 24-24 24L24 96C10.7 96 0 85.3 0 72S10.7 48 24 48l96 0 16.2-43.2zm-84.6 448L28.7 144 76.9 144 99.5 449.2c.6 8.4 7.6 14.8 16 14.8l217.1 0c8.4 0 15.3-6.5 16-14.8l22.6-305.2 48.1 0-22.9 308.7c-2.5 33.4-30.3 59.3-63.8 59.3l-217.1 0c-33.5 0-61.3-25.9-63.8-59.3z"/>
    </symbol>
  </defs>
</svg>
