<svg xmlns="http://www.w3.org/2000/svg" style="display: none">
  <defs>
    <symbol viewBox="0 0 256 512" id="angle-left">
      <path fill="currentColor" d="M15.5 239c-9.4 9.4-9.4 24.6 0 33.9l160 160c9.4 9.4 24.6 9.4 33.9 0s9.4-24.6 0-33.9l-143-143 143-143c9.4-9.4 9.4-24.6 0-33.9s-24.6-9.4-33.9 0L15.5 239z"/>
    </symbol>
    <symbol viewBox="0 0 640 512" id="cart-shopping">
      <path fill="currentColor" d="M0 8C0-5.3 10.7-16 24-16l45.3 0c27.1 0 50.3 19.4 55.1 46l.4 2 399.9 0c25.1 0 44 22.9 39.3 47.6L537.6 216.6c-8 41.4-44.2 71.4-86.4 71.4l-279.8 0 5.1 28.3c2.1 11.4 12 19.7 23.6 19.7L456 336c13.3 0 24 10.7 24 24s-10.7 24-24 24l-255.9 0c-34.8 0-64.6-24.9-70.8-59.1L77.2 38.6c-.7-3.8-4-6.6-7.9-6.6L24 32C10.7 32 0 21.3 0 8zM162.6 240l288.6 0c19.2 0 35.7-13.6 39.3-32.4L514.9 80 133.5 80 162.6 240zM208 416a48 48 0 1 1 0 96 48 48 0 1 1 0-96zm224 0a48 48 0 1 1 0 96 48 48 0 1 1 0-96z"/>
    </symbol>
    <symbol viewBox="0 0 576 512" id="certificate">
      <path fill="currentColor" d="M215.8-14.5c8.4-2.2 17.3 .2 23.4 6.4L288.3 42.4 337.3-8c6.1-6.2 15-8.7 23.4-6.4s14.9 8.9 17.1 17.3L395.1 71 462.8 51.9c8.4-2.4 17.4 0 23.5 6.1s8.5 15.1 6.1 23.5l-19.1 67.7 68.2 17.3c8.4 2.1 15 8.7 17.3 17.1s-.2 17.3-6.4 23.4l-50.4 49.1 50.4 49.1c6.2 6.1 8.7 15 6.4 23.4s-8.9 14.9-17.3 17.1l-68.2 17.3 19.1 67.7c2.4 8.4 0 17.4-6.1 23.5s-15.1 8.5-23.5 6.1l-67.7-19.1-17.3 68.2c-2.1 8.4-8.7 15-17.1 17.3s-17.3-.2-23.4-6.4l-49.1-50.4-49.1 50.4c-6.1 6.2-15 8.7-23.4 6.4s-14.9-8.9-17.1-17.3l-17.3-68.2-67.7 19.1c-8.4 2.4-17.4 0-23.5-6.1s-8.5-15.1-6.1-23.5l19.1-67.7-68.2-17.3c-8.4-2.1-15-8.7-17.3-17.1s.2-17.4 6.4-23.4L74.7 256 24.3 206.9c-6.2-6.1-8.7-15-6.4-23.4s8.9-14.9 17.3-17.1l68.2-17.3-19.1-67.7c-2.4-8.4 0-17.4 6.1-23.5s15.1-8.5 23.5-6.1L181.5 71 198.8 2.8c2.1-8.4 8.7-15 17.1-17.3zm18.9 70.7l-12.8 50.5c-1.6 6.3-5.7 11.6-11.3 14.9s-12.3 4.1-18.5 2.3l-50.1-14.2 14.2 50.1c1.8 6.2 .9 12.9-2.3 18.5s-8.6 9.7-14.9 11.3l-50.5 12.8 37.3 36.3c4.6 4.5 7.3 10.7 7.3 17.2s-2.6 12.7-7.3 17.2L88.5 309.5 139 322.3c6.3 1.6 11.6 5.7 14.9 11.3s4.1 12.3 2.3 18.5l-14.2 50.1 50.1-14.2c6.2-1.8 12.9-.9 18.5 2.3s9.7 8.6 11.3 14.9l12.8 50.5 36.3-37.3c4.5-4.6 10.7-7.3 17.2-7.3s12.7 2.6 17.2 7.3l36.3 37.3 12.8-50.5c1.6-6.3 5.7-11.7 11.3-14.9s12.3-4.1 18.5-2.3l50.1 14.2-14.2-50.1c-1.8-6.2-.9-12.9 2.3-18.5s8.6-9.7 14.9-11.3l50.5-12.8-37.3-36.3c-4.6-4.5-7.3-10.7-7.3-17.2s2.6-12.7 7.3-17.2l37.3-36.3-50.5-12.8c-6.3-1.6-11.6-5.7-14.9-11.3s-4.1-12.3-2.3-18.5l14.2-50.1-50.1 14.2c-6.2 1.8-12.9 .9-18.5-2.3s-9.7-8.6-11.3-14.9l-12.8-50.5-36.3 37.3c-4.5 4.6-10.7 7.3-17.2 7.3s-12.7-2.6-17.2-7.3L234.7 56.2z"/>
    </symbol>
    <symbol viewBox="0 0 512 512" id="chart-bar">
      <path fill="currentColor" d="M48 56c0-13.3-10.7-24-24-24S0 42.7 0 56L0 400c0 44.2 35.8 80 80 80l408 0c13.3 0 24-10.7 24-24s-10.7-24-24-24L80 432c-17.7 0-32-14.3-32-32L48 56zm104 72l208 0c13.3 0 24-10.7 24-24s-10.7-24-24-24L152 80c-13.3 0-24 10.7-24 24s10.7 24 24 24zm0 64c-13.3 0-24 10.7-24 24s10.7 24 24 24l144 0c13.3 0 24-10.7 24-24s-10.7-24-24-24l-144 0zm0 112c-13.3 0-24 10.7-24 24s10.7 24 24 24l272 0c13.3 0 24-10.7 24-24s-10.7-24-24-24l-272 0z"/>
    </symbol>
    <symbol viewBox="0 0 512 512" id="chart-line">
      <path fill="currentColor" d="M48 56c0-13.3-10.7-24-24-24S0 42.7 0 56L0 400c0 44.2 35.8 80 80 80l408 0c13.3 0 24-10.7 24-24s-10.7-24-24-24L80 432c-17.7 0-32-14.3-32-32L48 56zM473 169c9.4-9.4 9.4-24.6 0-33.9s-24.6-9.4-33.9 0l-119 119-79-79c-9.4-9.4-24.6-9.4-33.9 0L103 279c-9.4 9.4-9.4 24.6 0 33.9s24.6 9.4 33.9 0l87-87 79 79c9.4 9.4 24.6 9.4 33.9 0L473 169z"/>
    </symbol>
    <symbol viewBox="0 0 512 512" id="circle-info">
      <path fill="currentColor" d="M256 48a208 208 0 1 1 0 416 208 208 0 1 1 0-416zm0 464a256 256 0 1 0 0-512 256 256 0 1 0 0 512zM216 336c-13.3 0-24 10.7-24 24s10.7 24 24 24l80 0c13.3 0 24-10.7 24-24s-10.7-24-24-24l-8 0 0-88c0-13.3-10.7-24-24-24l-48 0c-13.3 0-24 10.7-24 24s10.7 24 24 24l24 0 0 64-24 0zm40-144a32 32 0 1 0 0-64 32 32 0 1 0 0 64z"/>
    </symbol>
    <symbol viewBox="0 0 512 512" id="envelope">
      <path fill="currentColor" d="M61.4 64C27.5 64 0 91.5 0 125.4 0 126.3 0 127.1 .1 128L0 128 0 384c0 35.3 28.7 64 64 64l384 0c35.3 0 64-28.7 64-64l0-256-.1 0c0-.9 .1-1.7 .1-2.6 0-33.9-27.5-61.4-61.4-61.4L61.4 64zM464 192.3L464 384c0 8.8-7.2 16-16 16L64 400c-8.8 0-16-7.2-16-16l0-191.7 154.8 117.4c31.4 23.9 74.9 23.9 106.4 0L464 192.3zM48 125.4C48 118 54 112 61.4 112l389.2 0c7.4 0 13.4 6 13.4 13.4 0 4.2-2 8.2-5.3 10.7L280.2 271.5c-14.3 10.8-34.1 10.8-48.4 0L53.3 136.1c-3.3-2.5-5.3-6.5-5.3-10.7z"/>
    </symbol>
    <symbol viewBox="0 0 384 512" id="file-lines">
      <path fill="currentColor" d="M64 48l112 0 0 88c0 39.8 32.2 72 72 72l88 0 0 240c0 8.8-7.2 16-16 16L64 464c-8.8 0-16-7.2-16-16L48 64c0-8.8 7.2-16 16-16zM224 67.9l92.1 92.1-68.1 0c-13.3 0-24-10.7-24-24l0-68.1zM64 0C28.7 0 0 28.7 0 64L0 448c0 35.3 28.7 64 64 64l256 0c35.3 0 64-28.7 64-64l0-261.5c0-17-6.7-33.3-18.7-45.3L242.7 18.7C230.7 6.7 214.5 0 197.5 0L64 0zm56 256c-13.3 0-24 10.7-24 24s10.7 24 24 24l144 0c13.3 0 24-10.7 24-24s-10.7-24-24-24l-144 0zm0 96c-13.3 0-24 10.7-24 24s10.7 24 24 24l144 0c13.3 0 24-10.7 24-24s-10.7-24-24-24l-144 0z"/>
    </symbol>
    <symbol viewBox="0 0 640 512" id="gears">
      <path fill="currentColor" d="M170.6-20.6c10.3-20.2 33.3-30.5 55.2-24.7L250-38.8c21.9 5.9 36.7 26.3 35.5 49l-1 17.8c2.7 2.5 5.3 5.1 7.8 7.8l17.8-1c22.7-1.2 43.1 13.6 49 35.5l6.5 24.2c5.9 21.9-4.4 45-24.7 55.2l-15.9 8.1c-.8 3.6-1.8 7.2-2.9 10.7l9.7 14.9c12.4 19 9.8 44.1-6.3 60.2L308 261.3c-16.1 16.1-41.1 18.7-60.2 6.3l-14.9-9.7c-3.5 1.1-7.1 2.1-10.7 2.9l-8.1 15.9c-10.3 20.2-33.3 30.5-55.2 24.7l-24.2-6.5c-21.9-5.9-36.7-26.3-35.5-49l1-17.8c-2.7-2.5-5.3-5.1-7.8-7.8l-17.8 1c-22.7 1.2-43.1-13.6-49-35.5l-6.5-24.2c-5.9-21.9 4.4-45 24.7-55.2l0 0 15.9-8.1c.8-3.6 1.8-7.2 2.9-10.7L52.8 72.6c-12.4-19-9.8-44.1 6.3-60.2L76.8-5.3C92.8-21.4 117.9-24 137-11.6l14.9 9.7c3.5-1.1 7.1-2.1 10.7-2.9l8.1-15.9zm67 28.2l-24.2-6.5-13.5 26.6c-3.6 7.1-10.5 12-18.4 13-8.1 1-15.9 3.1-23.3 6.3-7.4 3.1-15.8 2.4-22.5-2l-25-16.3-17.7 17.7 16.3 25c4.4 6.7 5.1 15.1 2 22.4-1.5 3.7-2.9 7.5-3.9 11.5s-1.8 8-2.3 11.9c-1 7.9-5.9 14.8-13 18.4l-26.6 13.5 6.5 24.2 29.8-1.6c8-.4 15.6 3.1 20.5 9.5 4.9 6.4 10.6 12.2 17.1 17.1 6.4 4.8 9.9 12.5 9.5 20.4l-1.6 29.7 24.2 6.5 13.5-26.6c3.6-7.1 10.5-12 18.4-13 8.1-1 15.9-3.1 23.3-6.3 7.4-3.1 15.8-2.4 22.5 2l25 16.3 17.7-17.7-16.3-25c-4.4-6.7-5.1-15.1-2-22.4 1.5-3.7 2.9-7.5 3.9-11.5s1.8-8 2.3-11.9c1-7.9 5.9-14.8 13-18.4l26.6-13.5-6.5-24.2-29.8 1.6c-8 .4-15.6-3.1-20.5-9.5-4.9-6.4-10.6-12.2-17.1-17.1-6.4-4.8-9.9-12.5-9.5-20.4l1.6-29.7zM161.5 119.7a32 32 0 1 1 61.8 16.6 32 32 0 1 1 -61.8-16.6zM355.2 266.2c-1.2-22.7 13.6-43.1 35.5-49l24.2-6.5c21.9-5.9 45 4.4 55.2 24.7l8.1 15.9c3.6 .8 7.2 1.8 10.7 2.9l14.9-9.7c19-12.4 44.1-9.8 60.2 6.3l17.7 17.7c16.1 16.1 18.7 41.2 6.3 60.2l-9.7 14.9c1.1 3.5 2.1 7.1 2.9 10.7l15.9 8.1c20.2 10.3 30.5 33.3 24.7 55.2l-6.5 24.2c-5.9 21.9-26.3 36.7-49 35.5l-17.8-1c-2.5 2.7-5.1 5.3-7.8 7.8l1 17.8c1.2 22.7-13.6 43.1-35.5 49l-24.2 6.5c-21.9 5.9-45-4.4-55.2-24.7l-8.1-15.9c-3.6-.8-7.2-1.8-10.7-2.9L393 523.6c-19 12.4-44.1 9.8-60.2-6.3l-17.7-17.7c-16.1-16.1-18.7-41.1-6.3-60.2l9.7-14.9c-1.1-3.5-2.1-7.1-2.9-10.7l-15.9-8.1c-20.2-10.3-30.5-33.3-24.7-55.2l6.5-24.2c5.9-21.9 26.3-36.7 49-35.5l17.8 1c2.5-2.7 5.1-5.3 7.8-7.8l-1-17.8zm72.1-9.1l-24.2 6.5 1.6 29.7c.4 8-3.1 15.6-9.5 20.4-6.5 4.9-12.2 10.7-17.1 17.1-4.8 6.4-12.5 9.9-20.5 9.5l-29.8-1.6-6.5 24.2 26.6 13.5c7.1 3.6 12 10.5 13 18.4 .5 4 1.3 7.9 2.3 11.9s2.4 7.8 3.9 11.5c3.1 7.3 2.3 15.7-2 22.4l-16.3 25 17.7 17.7 25-16.3c6.7-4.4 15.1-5.1 22.5-2 7.4 3.1 15.3 5.3 23.3 6.3 7.9 1 14.8 5.8 18.4 13l13.5 26.6 24.2-6.5-1.6-29.7c-.4-8 3.1-15.6 9.5-20.4 6.5-4.9 12.2-10.7 17.1-17.1 4.8-6.4 12.5-9.9 20.5-9.5l29.8 1.6 6.5-24.2-26.6-13.5c-7.1-3.6-12-10.5-13-18.4-.5-4-1.3-7.9-2.3-11.9s-2.4-7.8-3.9-11.5c-3.1-7.3-2.3-15.7 2-22.4l16.3-25-17.7-17.7-25 16.3c-6.7 4.4-15.1 5.1-22.5 2-7.4-3.1-15.3-5.3-23.3-6.3-7.9-1-14.8-5.8-18.4-13l-13.5-26.6zm-9.9 135.2a32 32 0 1 1 61.8-16.6 32 32 0 1 1 -61.8 16.6z"/>
    </symbol>
    <symbol viewBox="0 0 512 512" id="key">
      <path fill="currentColor" d="M208 176c0-70.7 57.3-128 128-128s128 57.3 128 128-57.3 128-128 128c-10.4 0-20.5-1.2-30.1-3.6-8.1-2-16.7 .5-22.6 6.4L254.1 336 200 336c-13.3 0-24 10.7-24 24l0 40-40 0c-13.3 0-24 10.7-24 24l0 40-64 0 0-78.1 157.2-157.2c5.9-5.9 8.3-14.5 6.4-22.6-2.3-9.6-3.6-19.7-3.6-30.1zM336 0c-97.2 0-176 78.8-176 176 0 9.5 .7 18.8 2.2 27.9L7 359c-4.5 4.5-7 10.6-7 17L0 488c0 13.3 10.7 24 24 24l112 0c13.3 0 24-10.7 24-24l0-40 40 0c13.3 0 24-10.7 24-24l0-40 40 0c6.4 0 12.5-2.5 17-7l27.2-27.2c9.1 1.4 18.4 2.2 27.9 2.2 97.2 0 176-78.8 176-176S433.2 0 336 0zm32 176a32 32 0 1 0 0-64 32 32 0 1 0 0 64z"/>
    </symbol>
    <symbol viewBox="0 0 512 512" id="pencil">
      <path fill="currentColor" d="M58.9 315.1c-10.7 10.7-18.5 24.1-22.6 38.7L.9 481.6c-2.3 8.3 0 17.3 6.2 23.4s15.1 8.5 23.4 6.2l127.8-35.5c14.6-4.1 27.9-11.8 38.7-22.6l294-294C504.4 145.6 512 127.2 512 108s-7.6-37.6-21.2-51.1L455.1 21.2C441.6 7.6 423.2 0 404 0s-37.6 7.6-51.1 21.2l-294 294zM404 48c6.4 0 12.6 2.6 17.2 7.1l35.7 35.7c4.6 4.6 7.1 10.7 7.1 17.2s-2.6 12.6-7.1 17.2L404 178.1 333.9 108 386.8 55.1c4.6-4.6 10.7-7.1 17.2-7.1zM109.9 332L300 141.9 370.1 212 180 402.1 109.9 332zM81.3 371.3l59.4 59.4-82.2 22.8 22.8-82.2z"/>
    </symbol>
    <symbol viewBox="0 0 512 512" id="print">
      <path fill="currentColor" d="M384 144l48 0 0-37.5c0-17-6.7-33.3-18.7-45.3L370.7 18.7C358.7 6.7 342.5 0 325.5 0L144 0C108.7 0 80 28.7 80 64l0 80 48 0 0-80c0-8.8 7.2-16 16-16l181.5 0c4.2 0 8.3 1.7 11.3 4.7l42.5 42.5c3 3 4.7 7.1 4.7 11.3l0 37.5zM368 368l0 96-224 0 0-96 224 0zM128 320c-17.7 0-32 14.3-32 32l0 16-48 0 0-112c0-8.8 7.2-16 16-16l384 0c8.8 0 16 7.2 16 16l0 112-48 0 0-16c0-17.7-14.3-32-32-32l-256 0zm288 96l64 0c17.7 0 32-14.3 32-32l0-128c0-35.3-28.7-64-64-64L64 192c-35.3 0-64 28.7-64 64L0 384c0 17.7 14.3 32 32 32l64 0 0 64c0 17.7 14.3 32 32 32l256 0c17.7 0 32-14.3 32-32l0-64z"/>
    </symbol>
    <symbol viewBox="0 0 512 512" id="share-nodes">
      <path fill="currentColor" d="M432 96a48 48 0 1 0 -96 0 48 48 0 1 0 96 0zm48 0c0 53-43 96-96 96-27.4 0-52.1-11.5-69.6-29.9L188.9 231.8c2 7.7 3.1 15.8 3.1 24.2s-1.1 16.5-3.1 24.2l125.5 69.7c17.5-18.4 42.2-29.9 69.6-29.9 53 0 96 43 96 96s-43 96-96 96-96-43-96-96c0-8.3 1.1-16.5 3.1-24.2L165.6 322.1C148.1 340.5 123.4 352 96 352 43 352 0 309 0 256s43-96 96-96c27.4 0 52.1 11.5 69.6 29.9l125.5-69.7c-2-7.7-3.1-15.8-3.1-24.2 0-53 43-96 96-96s96 43 96 96zM144 256a48 48 0 1 0 -96 0 48 48 0 1 0 96 0zM384 464a48 48 0 1 0 0-96 48 48 0 1 0 0 96z"/>
    </symbol>
    <symbol viewBox="0 0 512 512" id="sitemap">
      <path fill="currentColor" d="M240 80l32 0 0 32-32 0 0-32zM224 32c-17.7 0-32 14.3-32 32l0 64c0 17.7 14.3 32 32 32l8 0 0 64-120 0c-39.8 0-72 32.2-72 72l0 56-8 0c-17.7 0-32 14.3-32 32l0 64c0 17.7 14.3 32 32 32l64 0c17.7 0 32-14.3 32-32l0-64c0-17.7-14.3-32-32-32l-8 0 0-56c0-13.3 10.7-24 24-24l120 0 0 80-8 0c-17.7 0-32 14.3-32 32l0 64c0 17.7 14.3 32 32 32l64 0c17.7 0 32-14.3 32-32l0-64c0-17.7-14.3-32-32-32l-8 0 0-80 120 0c13.3 0 24 10.7 24 24l0 56-8 0c-17.7 0-32 14.3-32 32l0 64c0 17.7 14.3 32 32 32l64 0c17.7 0 32-14.3 32-32l0-64c0-17.7-14.3-32-32-32l-8 0 0-56c0-39.8-32.2-72-72-72l-120 0 0-64 8 0c17.7 0 32-14.3 32-32l0-64c0-17.7-14.3-32-32-32l-64 0zM48 432l0-32 32 0 0 32-32 0zm192 0l0-32 32 0 0 32-32 0zm192 0l0-32 32 0 0 32-32 0z"/>
    </symbol>
    <symbol viewBox="0 0 512 512" id="store">
      <path fill="currentColor" d="M29.9 81.9C40.4 52 68.6 32 100.3 32l312.2 0c31.7 0 59.9 20 70.4 49.9l18.4 52.6c11 31.5 1 63.9-20.9 84.4l0 189.2c0 39.8-32.2 72-72 72l-304 0c-39.8 0-72-32.2-72-72l0-189.2C10.5 198.4 .5 166 11.5 134.5L29.9 81.9zM80.4 239.8l0 80.2 352 0 0-80.2c-2 .1-3.9 .2-5.9 .2-21.8 0-41.8-8.9-56.2-23.3-14.6 14.4-34.6 23.3-56.9 23.3-22.2 0-42.4-9-57-23.5-14.6 14.5-34.8 23.5-57 23.5-22.3 0-42.3-8.9-56.9-23.3-14.4 14.5-34.3 23.3-56.2 23.3-2 0-4-.1-6-.2zM174.1 80l-7.6 75.7c-1.9 19.4 13.3 36.3 32.8 36.3 18.2 0 33-14.8 33-33l0-79-58.3 0zm106.3 79c0 18.2 14.8 33 33 33 19.5 0 34.8-16.9 32.8-36.3l-7.6-75.7-58.3 0 0 79zm114.9 4.8c1.6 16 15.1 28.2 31.1 28.2 21.6 0 36.7-21.3 29.5-41.6L437.6 97.8C433.9 87.1 423.8 80 412.5 80l-25.6 0 8.4 83.8zM86.4 192c16.1 0 29.5-12.2 31.1-28.2l8.4-83.8-25.6 0C89 80 79 87.1 75.2 97.8L56.8 150.4c-7.1 20.4 8 41.6 29.5 41.6zm-6 216c0 13.3 10.7 24 24 24l304 0c13.3 0 24-10.7 24-24l0-40-352 0 0 40z"/>
    </symbol>
    <symbol viewBox="0 0 448 512" id="trash">
      <path fill="currentColor" d="M136.2 4.8c4.7-12.5 16.6-20.8 30-20.8l115.6 0c13.3 0 25.3 8.3 30 20.8L328 48 424 48c13.3 0 24 10.7 24 24s-10.7 24-24 24L24 96C10.7 96 0 85.3 0 72S10.7 48 24 48l96 0 16.2-43.2zm-84.6 448L28.7 144 76.9 144 99.5 449.2c.6 8.4 7.6 14.8 16 14.8l217.1 0c8.4 0 15.3-6.5 16-14.8l22.6-305.2 48.1 0-22.9 308.7c-2.5 33.4-30.3 59.3-63.8 59.3l-217.1 0c-33.5 0-61.3-25.9-63.8-59.3z"/>
    </symbol>
    <symbol viewBox="0 0 448 512" id="trash-can">
      <path fill="currentColor" d="M166.2-16c-13.3 0-25.3 8.3-30 20.8L120 48 24 48C10.7 48 0 58.7 0 72S10.7 96 24 96l400 0c13.3 0 24-10.7 24-24s-10.7-24-24-24l-96 0-16.2-43.2C307.1-7.7 295.2-16 281.8-16L166.2-16zM32 144l0 304c0 35.3 28.7 64 64 64l256 0c35.3 0 64-28.7 64-64l0-304-48 0 0 304c0 8.8-7.2 16-16 16L96 464c-8.8 0-16-7.2-16-16l0-304-48 0zm160 72c0-13.3-10.7-24-24-24s-24 10.7-24 24l0 176c0 13.3 10.7 24 24 24s24-10.7 24-24l0-176zm112 0c0-13.3-10.7-24-24-24s-24 10.7-24 24l0 176c0 13.3 10.7 24 24 24s24-10.7 24-24l0-176z"/>
    </symbol>
    <symbol viewBox="0 0 576 512" id="truck">
      <path fill="currentColor" d="M64 80c-8.8 0-16 7.2-16 16l0 288c0 8.8 7.2 16 16 16l3.3 0c10.4-36.9 44.4-64 84.7-64s74.2 27.1 84.7 64l102.6 0c4.9-17.4 15.1-32.7 28.7-43.9L368 96c0-8.8-7.2-16-16-16L64 80zm3.3 368L64 448c-35.3 0-64-28.7-64-64L0 96C0 60.7 28.7 32 64 32l288 0c35.3 0 64 28.7 64 64l0 32 55.4 0c17 0 33.3 6.7 45.3 18.7l40.6 40.6c12 12 18.7 28.3 18.7 45.3L576 384c0 35.3-28.7 64-64 64l-3.3 0c-10.4 36.9-44.4 64-84.7 64s-74.2-27.1-84.7-64l-102.6 0c-10.4 36.9-44.4 64-84.7 64s-74.2-27.1-84.7-64zM416 256l112 0 0-23.4c0-4.2-1.7-8.3-4.7-11.3l-40.6-40.6c-3-3-7.1-4.7-11.3-4.7l-55.4 0 0 80zm0 48l0 32.4c2.6-.2 5.3-.4 8-.4 40.3 0 74.2 27.1 84.7 64l3.3 0c8.8 0 16-7.2 16-16l0-80-112 0zM152 464a40 40 0 1 0 0-80 40 40 0 1 0 0 80zm272 0a40 40 0 1 0 0-80 40 40 0 1 0 0 80z"/>
    </symbol>
    <symbol viewBox="0 0 448 512" id="user-secret">
      <path fill="currentColor" d="M102.7 96c10.4-53.7 31.9-112 68.3-112 9.6 0 19 3.9 27.5 8.2 8.2 4.1 18.4 7.8 25.5 7.8s17.3-3.7 25.5-7.8c8.5-4.3 17.9-8.2 27.5-8.2 36.4 0 57.8 58.3 68.3 112L376 96c13.3 0 24 10.7 24 24s-10.7 24-24 24l-24 0 0 32c0 17-3.3 33.2-9.3 48l33.3 0c8.1 0 15.6 4 20 10.8s5.2 15.2 2.1 22.6l-31.5 74.2c48.9 31.2 81.4 86 81.4 148.5l0 8c0 13.3-10.7 24-24 24s-24-10.7-24-24l0-8c0-51.4-30.3-95.8-74.1-116.1-11.7-5.5-17-19.2-12-31.2l25.8-60.7-27.7 0c-1.1 0-2.1-.1-3.1-.2-22.6 20-52.3 32.2-84.9 32.2s-62.3-12.2-84.9-32.2c-1 .1-2.1 .2-3.1 .2l-27.7 0 25.8 60.7c5.1 11.9-.2 25.7-12 31.2-43.8 20.4-74.1 64.7-74.1 116.1l0 8c0 13.3-10.7 24-24 24S0 501.3 0 488l0-8c0-62.4 32.5-117.2 81.4-148.5L49.9 257.4c-3.2-7.4-2.4-15.9 2.1-22.6S63.9 224 72 224l33.3 0c-6-14.8-9.3-31-9.3-48l0-32-24 0c-13.3 0-24-10.7-24-24S58.7 96 72 96l30.7 0zm45.9 107c11.1 30.9 40.6 53 75.3 53s64.2-22.1 75.3-53c-5.7 3.2-12.3 5-19.3 5l-12.4 0c-16.5 0-31.1-10.6-36.3-26.2-2.3-7-12.2-7-14.5 0-5.2 15.6-19.9 26.2-36.3 26.2L168 208c-7 0-13.6-1.8-19.3-5zm44.8 133l61 0c9.7 0 17.5 7.8 17.5 17.5 0 4.2-1.5 8.2-4.2 11.4l-27.9 32.5 28.9 82.6c5.5 15.6-6.1 31.9-22.7 31.9l-44.3 0c-16.5 0-28.1-16.3-22.7-31.9l28.9-82.6-27.9-32.5c-2.7-3.2-4.2-7.2-4.2-11.4 0-9.7 7.8-17.5 17.5-17.5z"/>
    </symbol>
    <symbol viewBox="0 0 640 512" id="users">
      <path fill="currentColor" d="M320 192a64 64 0 1 0 0-128 64 64 0 1 0 0 128zm0-176a112 112 0 1 1 0 224 112 112 0 1 1 0-224zM296 336c-57.4 0-104 46.6-104 104l0 16c0 13.3-10.7 24-24 24s-24-10.7-24-24l0-16c0-83.9 68.1-152 152-152l48 0c83.9 0 152 68.1 152 152l0 16c0 13.3-10.7 24-24 24s-24-10.7-24-24l0-16c0-57.4-46.6-104-104-104l-48 0zm135.4-93.2c11.7-11.3 21.6-24.4 29.4-38.8 5.9 2.6 12.4 4 19.2 4 26.5 0 48-21.5 48-48s-21.5-48-48-48l-.8 0c-1.6-16.6-5.8-32.4-12.1-47.1 4.2-.6 8.6-.9 12.9-.9 53 0 96 43 96 96s-43 96-96 96c-17.7 0-34.3-4.8-48.6-13.2zM160 64c4.4 0 8.7 .3 12.9 .9-6.3 14.7-10.5 30.6-12.1 47.1l-.8 0c-26.5 0-48 21.5-48 48s21.5 48 48 48c6.8 0 13.3-1.4 19.2-4 7.8 14.4 17.7 27.5 29.4 38.8-14.2 8.4-30.8 13.2-48.6 13.2-53 0-96-43-96-96s43-96 96-96zM149.3 304c-15.1 16.3-27.5 35-36.5 55.6-38 15.5-64.8 52.8-64.8 96.4 0 13.3-10.7 24-24 24S0 469.3 0 456c0-83.1 66.6-150.6 149.3-152zm377.9 55.6c-9-20.6-21.5-39.4-36.5-55.6 82.7 1.4 149.3 68.9 149.3 152 0 13.3-10.7 24-24 24s-24-10.7-24-24c0-43.6-26.8-80.9-64.8-96.4z"/>
    </symbol>
  </defs>
</svg>
