<svg xmlns="http://www.w3.org/2000/svg" style="display: none">
  <defs>
    <symbol viewBox="0 0 256 512" id="angle-left">
      <path fill="currentColor" d="M15.5 239c-9.4 9.4-9.4 24.6 0 33.9l160 160c9.4 9.4 24.6 9.4 33.9 0s9.4-24.6 0-33.9l-143-143 143-143c9.4-9.4 9.4-24.6 0-33.9s-24.6-9.4-33.9 0L15.5 239z"/>
    </symbol>
    <symbol viewBox="0 0 384 512" id="arrow-down">
      <path fill="currentColor" d="M175.5 505c9.4 9.4 24.6 9.4 33.9 0l168-168c9.4-9.4 9.4-24.6 0-33.9s-24.6-9.4-33.9 0l-127 127 0-406.1c0-13.3-10.7-24-24-24s-24 10.7-24 24l0 406.1-127-127c-9.4-9.4-24.6-9.4-33.9 0s-9.4 24.6 0 33.9l168 168z"/>
    </symbol>
    <symbol viewBox="0 0 384 512" id="arrow-up">
      <path fill="currentColor" d="M209.5 15c-9.4-9.4-24.6-9.4-33.9 0L7.5 183c-9.4 9.4-9.4 24.6 0 33.9s24.6 9.4 33.9 0l127-127 0 406.1c0 13.3 10.7 24 24 24s24-10.7 24-24l0-406.1 127 127c9.4 9.4 24.6 9.4 33.9 0s9.4-24.6 0-33.9L209.5 15z"/>
    </symbol>
  </defs>
</svg>
