<svg xmlns="http://www.w3.org/2000/svg" style="display: none">
  <defs>
    <symbol viewBox="0 0 256 512" id="angle-left">
      <path fill="currentColor" d="M15.5 239c-9.4 9.4-9.4 24.6 0 33.9l160 160c9.4 9.4 24.6 9.4 33.9 0s9.4-24.6 0-33.9l-143-143 143-143c9.4-9.4 9.4-24.6 0-33.9s-24.6-9.4-33.9 0L15.5 239z"/>
    </symbol>
    <symbol viewBox="0 0 384 512" id="arrow-down">
      <path fill="currentColor" d="M175.5 505c9.4 9.4 24.6 9.4 33.9 0l168-168c9.4-9.4 9.4-24.6 0-33.9s-24.6-9.4-33.9 0l-127 127 0-406.1c0-13.3-10.7-24-24-24s-24 10.7-24 24l0 406.1-127-127c-9.4-9.4-24.6-9.4-33.9 0s-9.4 24.6 0 33.9l168 168z"/>
    </symbol>
    <symbol viewBox="0 0 384 512" id="arrow-up">
      <path fill="currentColor" d="M209.5 15c-9.4-9.4-24.6-9.4-33.9 0L7.5 183c-9.4 9.4-9.4 24.6 0 33.9s24.6 9.4 33.9 0l127-127 0 406.1c0 13.3 10.7 24 24 24s24-10.7 24-24l0-406.1 127 127c9.4 9.4 24.6 9.4 33.9 0s9.4-24.6 0-33.9L209.5 15z"/>
    </symbol>
    <symbol viewBox="0 0 448 512" id="user">
      <path fill="currentColor" d="M144 128a80 80 0 1 1 160 0 80 80 0 1 1 -160 0zm208 0a128 128 0 1 0 -256 0 128 128 0 1 0 256 0zM48 480c0-70.7 57.3-128 128-128l96 0c70.7 0 128 57.3 128 128l0 8c0 13.3 10.7 24 24 24s24-10.7 24-24l0-8c0-97.2-78.8-176-176-176l-96 0C78.8 304 0 382.8 0 480l0 8c0 13.3 10.7 24 24 24s24-10.7 24-24l0-8z"/>
    </symbol>
  </defs>
</svg>
