<svg xmlns="http://www.w3.org/2000/svg" style="display: none">
  <defs>
    <symbol viewBox="0 0 320 512" id="bluetooth">
      <path style="fill:var(--fa-secondary-color,currentColor);opacity:var(--fa-secondary-opacity,.4)" d="M146.8 2.9c11.4-5.2 24.8-3.2 34.3 5.1l128 112C316 126 320 134.8 320 144s-4 18-10.9 24.1L208.6 256 309.1 343.9C316 350 320 358.8 320 368s-4 18-10.9 24.1l-128 112c-9.4 8.3-22.9 10.2-34.3 5.1S128 492.6 128 480l0-153.5-74.9 65.6c-13.3 11.6-33.5 10.3-45.2-3s-10.3-33.5 3-45.2L111.4 256 10.9 168.1c-13.3-11.6-14.6-31.9-3-45.2s31.9-14.6 45.2-3L128 185.5 128 32c0-12.6 7.3-24 18.8-29.1zM192 326.5l0 83 47.4-41.5-47.4-41.5zm0-141l47.4-41.5-47.4-41.5 0 83z"/>
      <path style="fill:var(--fa-primary-color,currentColor);opacity:var(--fa-primary-opacity,1)" d=""/>
    </symbol>
    <symbol viewBox="0 0 640 512" id="building-user">
      <path style="fill:var(--fa-secondary-color,currentColor);opacity:var(--fa-secondary-opacity,.4)" d="M64 64l0 384c0 35.3 28.7 64 64 64l176 0c0-1 0-1.9 0-2.9 0-59.1 36.3-109.7 87.8-130.7-15-21-23.8-46.7-23.8-74.4 0-53.7 33.1-99.7 80-118.7L448 64c0-35.3-28.7-64-64-64L128 0C92.7 0 64 28.7 64 64zm96 48c0-8.8 7.2-16 16-16l32 0c8.8 0 16 7.2 16 16l0 32c0 8.8-7.2 16-16 16l-32 0c-8.8 0-16-7.2-16-16l0-32zm0 128c0-8.8 7.2-16 16-16l32 0c8.8 0 16 7.2 16 16l0 32c0 8.8-7.2 16-16 16l-32 0c-8.8 0-16-7.2-16-16l0-32zm48 160c0-26.5 21.5-48 48-48 21.5 0 39.7 14.2 45.8 33.7-19.1 22.2-33.2 48.9-40.4 78.3l-53.4 0 0-64zm80-288c0-8.8 7.2-16 16-16l32 0c8.8 0 16 7.2 16 16l0 32c0 8.8-7.2 16-16 16l-32 0c-8.8 0-16-7.2-16-16l0-32zm0 128c0-8.8 7.2-16 16-16l32 0c1 0 2.1 .1 3 .3-9.9 19.4-16.3 40.9-18.3 63.7L304 288c-8.8 0-16-7.2-16-16l0-32z"/>
      <path style="fill:var(--fa-primary-color,currentColor);opacity:var(--fa-primary-opacity,1)" d="M496 384a80 80 0 1 0 0-160 80 80 0 1 0 0 160zm-48 32c-53 0-96 43-96 96 0 17.7 14.3 32 32 32l224 0c17.7 0 32-14.3 32-32 0-53-43-96-96-96l-96 0z"/>
    </symbol>
    <symbol viewBox="0 0 512 512" id="buildings">
      <path style="fill:var(--fa-secondary-color,currentColor);opacity:var(--fa-secondary-opacity,.4)" d="M0 192L0 448c0 35.3 28.7 64 64 64l384 0c35.3 0 64-28.7 64-64l0-384c0-35.3-28.7-64-64-64L256 0c-35.3 0-64 28.7-64 64l0 64-128 0c-35.3 0-64 28.7-64 64zm96 48c0-8.8 7.2-16 16-16l32 0c8.8 0 16 7.2 16 16l0 32c0 8.8-7.2 16-16 16l-32 0c-8.8 0-16-7.2-16-16l0-32zm0 96c0-8.8 7.2-16 16-16l32 0c8.8 0 16 7.2 16 16l0 32c0 8.8-7.2 16-16 16l-32 0c-8.8 0-16-7.2-16-16l0-32zM256 112c0-8.8 7.2-16 16-16l32 0c8.8 0 16 7.2 16 16l0 32c0 8.8-7.2 16-16 16l-32 0c-8.8 0-16-7.2-16-16l0-32zm0 96c0-8.8 7.2-16 16-16l32 0c8.8 0 16 7.2 16 16l0 32c0 8.8-7.2 16-16 16l-32 0c-8.8 0-16-7.2-16-16l0-32zm0 96c0-8.8 7.2-16 16-16l32 0c8.8 0 16 7.2 16 16l0 32c0 8.8-7.2 16-16 16l-32 0c-8.8 0-16-7.2-16-16l0-32zM384 112c0-8.8 7.2-16 16-16l32 0c8.8 0 16 7.2 16 16l0 32c0 8.8-7.2 16-16 16l-32 0c-8.8 0-16-7.2-16-16l0-32zm0 96c0-8.8 7.2-16 16-16l32 0c8.8 0 16 7.2 16 16l0 32c0 8.8-7.2 16-16 16l-32 0c-8.8 0-16-7.2-16-16l0-32zm0 96c0-8.8 7.2-16 16-16l32 0c8.8 0 16 7.2 16 16l0 32c0 8.8-7.2 16-16 16l-32 0c-8.8 0-16-7.2-16-16l0-32z"/>
      <path style="fill:var(--fa-primary-color,currentColor);opacity:var(--fa-primary-opacity,1)" d="M256 112c0-8.8 7.2-16 16-16l32 0c8.8 0 16 7.2 16 16l0 32c0 8.8-7.2 16-16 16l-32 0c-8.8 0-16-7.2-16-16l0-32zM112 224l32 0c8.8 0 16 7.2 16 16l0 32c0 8.8-7.2 16-16 16l-32 0c-8.8 0-16-7.2-16-16l0-32c0-8.8 7.2-16 16-16zM272 352c-8.8 0-16-7.2-16-16l0-32c0-8.8 7.2-16 16-16l32 0c8.8 0 16 7.2 16 16l0 32c0 8.8-7.2 16-16 16l-32 0zM112 320l32 0c8.8 0 16 7.2 16 16l0 32c0 8.8-7.2 16-16 16l-32 0c-8.8 0-16-7.2-16-16l0-32c0-8.8 7.2-16 16-16zm272 16l0-32c0-8.8 7.2-16 16-16l32 0c8.8 0 16 7.2 16 16l0 32c0 8.8-7.2 16-16 16l-32 0c-8.8 0-16-7.2-16-16zM400 96l32 0c8.8 0 16 7.2 16 16l0 32c0 8.8-7.2 16-16 16l-32 0c-8.8 0-16-7.2-16-16l0-32c0-8.8 7.2-16 16-16zM256 240l0-32c0-8.8 7.2-16 16-16l32 0c8.8 0 16 7.2 16 16l0 32c0 8.8-7.2 16-16 16l-32 0c-8.8 0-16-7.2-16-16zm144 16c-8.8 0-16-7.2-16-16l0-32c0-8.8 7.2-16 16-16l32 0c8.8 0 16 7.2 16 16l0 32c0 8.8-7.2 16-16 16l-32 0z"/>
    </symbol>
    <symbol viewBox="0 0 640 512" id="calendar-lines-pen">
      <path style="fill:var(--fa-secondary-color,currentColor);opacity:var(--fa-secondary-opacity,.4)" d="M64.1 128l0 288c0 35.3 28.7 64 64 64l152.6 0 4.5-22.5c4.3-21.7 15-41.6 30.6-57.2L486.1 229.9c7.8-7.8 16.6-14.2 25.9-19l0-82.9c0-35.3-28.7-64-64-64l-32 0 0-32c0-17.7-14.3-32-32-32s-32 14.3-32 32l0 32-128 0 0-32c0-17.7-14.3-32-32-32s-32 14.3-32 32l0 32-32 0c-35.3 0-64 28.7-64 64zm96 120c0-13.3 10.7-24 24-24l144 0c13.3 0 24 10.7 24 24s-10.7 24-24 24l-144 0c-13.3 0-24-10.7-24-24zm0 96c0-13.3 10.7-24 24-24l80 0c13.3 0 24 10.7 24 24s-10.7 24-24 24l-80 0c-13.3 0-24-10.7-24-24z"/>
      <path style="fill:var(--fa-primary-color,currentColor);opacity:var(--fa-primary-opacity,1)" d="M320.4 526.5l11.9-59.6c2.5-12.4 8.6-23.8 17.5-32.7l118.9-118.9 80 80-118.9 118.9c-8.9 8.9-20.3 15-32.7 17.5l-59.6 11.9c-.9 .2-1.9 .3-2.9 .3-8 0-14.6-6.5-14.6-14.6 0-1 .1-1.9 .3-2.9zm251-153.8l-80-80 28.8-28.8c22.1-22.1 57.9-22.1 80 0s22.1 57.9 0 80l-28.8 28.8z"/>
    </symbol>
    <symbol viewBox="0 0 512 512" id="cash-register">
      <path style="fill:var(--fa-secondary-color,currentColor);opacity:var(--fa-secondary-opacity,.4)" d="M32 64c0 35.3 28.7 64 64 64l48 0 0 32 64 0 0-32 48 0c35.3 0 64-28.7 64-64S291.3 0 256 0L96 0C60.7 0 32 28.7 32 64zm48 0c0-8.8 7.2-16 16-16l160 0c8.8 0 16 7.2 16 16s-7.2 16-16 16L96 80c-8.8 0-16-7.2-16-16zm8 176a24 24 0 1 0 48 0 24 24 0 1 0 -48 0zm48 80a24 24 0 1 0 48 0 24 24 0 1 0 -48 0zm48-80a24 24 0 1 0 48 0 24 24 0 1 0 -48 0zm48 80a24 24 0 1 0 48 0 24 24 0 1 0 -48 0zm48-80a24 24 0 1 0 48 0 24 24 0 1 0 -48 0zm48 80a24 24 0 1 0 48 0 24 24 0 1 0 -48 0zm48-80a24 24 0 1 0 48 0 24 24 0 1 0 -48 0z"/>
      <path style="fill:var(--fa-primary-color,currentColor);opacity:var(--fa-primary-opacity,1)" d="M0 448l0-69.6c0-4.8 .4-9.6 1.1-14.4L23.8 214.4C28.5 183.1 55.4 160 87 160L425 160c31.6 0 58.5 23.1 63.3 54.4l22.7 149.6c.7 4.8 1.1 9.6 1.1 14.4l0 69.6c0 35.3-28.7 64-64 64L64 512c-35.3 0-64-28.7-64-64zm64-16c0 8.8 7.2 16 16 16l352 0c8.8 0 16-7.2 16-16s-7.2-16-16-16L80 416c-8.8 0-16 7.2-16 16zm48-216a24 24 0 1 0 0 48 24 24 0 1 0 0-48zm72 24a24 24 0 1 0 48 0 24 24 0 1 0 -48 0zm-24 56a24 24 0 1 0 0 48 24 24 0 1 0 0-48zm120-56a24 24 0 1 0 48 0 24 24 0 1 0 -48 0zm-24 56a24 24 0 1 0 0 48 24 24 0 1 0 0-48zm120-56a24 24 0 1 0 48 0 24 24 0 1 0 -48 0zm-24 56a24 24 0 1 0 0 48 24 24 0 1 0 0-48z"/>
    </symbol>
    <symbol viewBox="0 0 512 512" id="chart-line-up">
      <path style="fill:var(--fa-secondary-color,currentColor);opacity:var(--fa-secondary-opacity,.4)" d="M0 64L0 400c0 44.2 35.8 80 80 80l400 0c17.7 0 32-14.3 32-32s-14.3-32-32-32L80 416c-8.8 0-16-7.2-16-16L64 64c0-17.7-14.3-32-32-32S0 46.3 0 64z"/>
      <path style="fill:var(--fa-primary-color,currentColor);opacity:var(--fa-primary-opacity,1)" d="M406.6 246.6L439 279c15.1 15.1 41 4.4 41-17L480 152c0-13.3-10.7-24-24-24l-110.1 0c-21.4 0-32.1 25.9-17 41l32.4 32.4-57.4 57.4-73.4-73.4c-12.5-12.5-32.8-12.5-45.3 0l-64 64c-12.5 12.5-12.5 32.8 0 45.3s32.8 12.5 45.3 0l41.4-41.4 73.4 73.4c12.5 12.5 32.8 12.5 45.3 0l80-80z"/>
    </symbol>
    <symbol viewBox="0 0 512 512" id="chart-simple">
      <path style="fill:var(--fa-secondary-color,currentColor);opacity:var(--fa-secondary-opacity,.4)" d="M192 80c0-26.5 21.5-48 48-48l32 0c26.5 0 48 21.5 48 48l0 352c0 26.5-21.5 48-48 48l-32 0c-26.5 0-48-21.5-48-48l0-352z"/>
      <path style="fill:var(--fa-primary-color,currentColor);opacity:var(--fa-primary-opacity,1)" d="M432 96c-26.5 0-48 21.5-48 48l0 288c0 26.5 21.5 48 48 48l32 0c26.5 0 48-21.5 48-48l0-288c0-26.5-21.5-48-48-48l-32 0zM48 224c-26.5 0-48 21.5-48 48L0 432c0 26.5 21.5 48 48 48l32 0c26.5 0 48-21.5 48-48l0-160c0-26.5-21.5-48-48-48l-32 0z"/>
    </symbol>
    <symbol viewBox="0 0 576 512" id="cloud-arrow-up">
      <path style="fill:var(--fa-secondary-color,currentColor);opacity:var(--fa-secondary-opacity,.4)" d="M0 336c0-63.4 41-117.2 97.9-136.5-1.3-7.7-1.9-15.5-1.9-23.5 0-79.5 64.5-144 144-144 55.4 0 103.5 31.3 127.6 77.1 14.2-8.3 30.8-13.1 48.4-13.1 53 0 96 43 96 96 0 15.7-3.8 30.6-10.5 43.7 44 20.3 74.5 64.7 74.5 116.3 0 70.7-57.3 128-128 128l-304 0C64.5 480 0 415.5 0 336zm199-73c-9.4 9.4-9.4 24.6 0 33.9s24.6 9.4 33.9 0l31-31 0 102.1c0 13.3 10.7 24 24 24s24-10.7 24-24l0-102.1 31 31c9.4 9.4 24.6 9.4 33.9 0s9.4-24.6 0-33.9l-72-72c-9.4-9.4-24.6-9.4-33.9 0l-72 72z"/>
      <path style="fill:var(--fa-primary-color,currentColor);opacity:var(--fa-primary-opacity,1)" d="M271 191c9.4-9.4 24.6-9.4 33.9 0l72 72c9.4 9.4 9.4 24.6 0 33.9s-24.6 9.4-33.9 0l-31-31 0 102.1c0 13.3-10.7 24-24 24s-24-10.7-24-24l0-102.1-31 31c-9.4 9.4-24.6 9.4-33.9 0s-9.4-24.6 0-33.9l72-72z"/>
    </symbol>
    <symbol viewBox="0 0 448 512" id="database">
      <path style="fill:var(--fa-secondary-color,currentColor);opacity:var(--fa-secondary-opacity,.4)" d="M0 80l0 48c0 44.2 100.3 80 224 80s224-35.8 224-80l0-48C448 35.8 347.7 0 224 0S0 35.8 0 80zM0 205.8L0 288c0 44.2 100.3 80 224 80s224-35.8 224-80l0-82.2c-14.8 9.8-31.8 17.7-49.5 24-47 16.8-108.7 26.2-174.5 26.2S96.4 246.5 49.5 229.8c-17.6-6.3-34.7-14.2-49.5-24zm0 160L0 432c0 44.2 100.3 80 224 80s224-35.8 224-80l0-66.2c-14.8 9.8-31.8 17.7-49.5 24-47 16.8-108.7 26.2-174.5 26.2S96.4 406.5 49.5 389.8c-17.6-6.3-34.7-14.2-49.5-24z"/>
      <path style="fill:var(--fa-primary-color,currentColor);opacity:var(--fa-primary-opacity,1)" d="M0 205.8L0 128c0 44.2 100.3 80 224 80s224-35.8 224-80l0 77.8c-14.8 9.8-31.8 17.7-49.5 24-47 16.8-108.7 26.2-174.5 26.2S96.4 246.5 49.5 229.8c-17.6-6.3-34.7-14.2-49.5-24zm0 160L0 288c0 44.2 100.3 80 224 80s224-35.8 224-80l0 77.8c-14.8 9.8-31.8 17.7-49.5 24-47 16.8-108.7 26.2-174.5 26.2S96.4 406.5 49.5 389.8c-17.6-6.3-34.7-14.2-49.5-24z"/>
    </symbol>
    <symbol viewBox="0 0 512 512" id="envelope">
      <path style="fill:var(--fa-secondary-color,currentColor);opacity:var(--fa-secondary-opacity,.4)" d="M0 112c0 15.1 7.1 29.3 19.2 38.4l208 156c17.1 12.8 40.5 12.8 57.6 0l208-156c12.1-9.1 19.2-23.3 19.2-38.4l0 272c0 35.3-28.7 64-64 64L64 448c-35.3 0-64-28.7-64-64L0 112z"/>
      <path style="fill:var(--fa-primary-color,currentColor);opacity:var(--fa-primary-opacity,1)" d="M48 64c-26.5 0-48 21.5-48 48 0 15.1 7.1 29.3 19.2 38.4l208 156c17.1 12.8 40.5 12.8 57.6 0l208-156c12.1-9.1 19.2-23.3 19.2-38.4 0-26.5-21.5-48-48-48L48 64z"/>
    </symbol>
    <symbol viewBox="0 0 512 512" id="face-smile">
      <path style="fill:var(--fa-secondary-color,currentColor);opacity:var(--fa-secondary-opacity,.4)" d="M0 256a256 256 0 1 0 512 0 256 256 0 1 0 -512 0zm126.6 94.1c-7.8-10.7-5.4-25.7 5.3-33.5s25.7-5.4 33.5 5.3c20.4 28 53.4 46.1 90.6 46.1s70.2-18.1 90.6-46.1c7.8-10.7 22.8-13.1 33.5-5.3s13.1 22.8 5.3 33.5C356.3 390 309.2 416 256 416s-100.3-26-129.4-65.9zM208 208a32 32 0 1 1 -64 0 32 32 0 1 1 64 0zm160 0a32 32 0 1 1 -64 0 32 32 0 1 1 64 0z"/>
      <path style="fill:var(--fa-primary-color,currentColor);opacity:var(--fa-primary-opacity,1)" d="M176 240a32 32 0 1 0 0-64 32 32 0 1 0 0 64zm160 0a32 32 0 1 0 0-64 32 32 0 1 0 0 64z"/>
    </symbol>
    <symbol viewBox="0 0 512 512" id="fingerprint">
      <path style="fill:var(--fa-secondary-color,currentColor);opacity:var(--fa-secondary-opacity,.4)" d="M72.2 352.9c-3.4 15.6 7.9 31.1 23.9 31.1 10.5 0 19.9-7 22.2-17.3 6.4-28.1 9.7-56.8 9.7-85.8l0-24.9c0-27.2 8.5-52.4 22.9-73.1 7.2-10.4 8-24.6-.2-34.2-9.1-10.6-25.3-11.4-33.9-.4-23.1 29.8-36.8 67.1-36.8 107.7l0 24.9c0 24.2-2.6 48.4-7.8 71.9zM193.2 124.5c7.1 8.3 18.8 10.8 29.4 7.9 10.6-2.9 21.8-4.4 33.4-4.4 70.7 0 128 57.3 128 128l0 24.9c0 25.2-1.5 50.3-4.4 75.3-1.7 14.6 9.4 27.8 24.2 27.8 11.8 0 21.9-8.6 23.3-20.3 3.3-27.4 5-55 5-82.7l0-24.9c0-97.2-78.8-176-176-176-19 0-37.4 3-54.5 8.6-15.2 5-18.7 23.7-8.3 35.9zm.4 346.9c-4.8 12.4 1.4 26.3 13.8 31s26.3-1.4 31-13.8l5.9-15.3C267.9 411.9 280 346.7 280 280.9l0-24.9c0-13.3-10.7-24-24-24s-24 10.7-24 24l0 24.9c0 59.9-11 119.3-32.5 175.2l-5.9 15.3z"/>
      <path style="fill:var(--fa-primary-color,currentColor);opacity:var(--fa-primary-opacity,1)" d="M48 256c0-114.9 93.1-208 208-208 63.1 0 119.6 28.1 157.8 72.5 8.6 10.1 23.8 11.2 33.8 2.6s11.2-23.8 2.6-33.8C403.3 34.6 333.7 0 256 0 114.6 0 0 114.6 0 256l0 40c0 13.3 10.7 24 24 24s24-10.7 24-24l0-40zm458.5-52.9c-2.7-13-15.5-21.3-28.4-18.5s-21.3 15.5-18.5 28.4c2.9 13.9 4.5 28.3 4.5 43.1l0 40c0 13.3 10.7 24 24 24s24-10.7 24-24l0-40c0-18.1-1.9-35.8-5.5-52.9zM352 256c0-53-43-96-96-96s-96 43-96 96l0 24.9c0 35.9-4.6 71.5-13.8 106.1-3.8 14.3 6.7 29 21.5 29 9.5 0 17.9-6.2 20.4-15.4 10.5-39 15.9-79.2 15.9-119.7l0-24.9c0-28.7 23.3-52 52-52s52 23.3 52 52l0 24.9c0 36.3-3.5 72.4-10.4 107.9-2.7 13.9 7.7 27.2 21.8 27.2 10.2 0 19-7 21-17 7.7-38.8 11.6-78.3 11.6-118.1l0-24.9z"/>
    </symbol>
    <symbol viewBox="0 0 512 512" id="golf-flag-hole">
      <path style="fill:var(--fa-secondary-color,currentColor);opacity:var(--fa-secondary-opacity,.4)" d="M0 400c0-41.5 51.5-77.7 128-97l0 81c0 13.3 10.7 24 24 24 6.8 0 12.9-2.8 17.3-7.4 11.2 9.2 31.5 15.4 54.7 15.4 35.3 0 64-14.3 64-32s-28.7-32-64-32c-19.1 0-36.3 4.2-48 10.8l0-69.3c25.2-3.6 52.1-5.6 80-5.6 141.4 0 256 50.1 256 112S397.4 512 256 512 0 461.9 0 400z"/>
      <path style="fill:var(--fa-primary-color,currentColor);opacity:var(--fa-primary-opacity,1)" d="M139.4-28.4c7.1-4.4 15.9-4.8 23.3-1.1l208 104c8.1 4.1 13.3 12.4 13.3 21.5 0 8-3.9 15.3-10.4 19.8l-2.9 1.7-194.7 97.3 0 169.2c0 13.3-10.7 24-24 24s-24-10.7-24-24l0-176c0-1.4 .1-2.7 .3-4-.2-1.3-.3-2.6-.3-4l0-208 .2-3.1c.9-7.1 5-13.5 11.2-17.3z"/>
    </symbol>
    <symbol viewBox="0 0 448 512" id="grid-round-2-minus">
      <path style="fill:var(--fa-secondary-color,currentColor);opacity:var(--fa-secondary-opacity,.4)" d="M192 128a96 96 0 1 1 -192 0 96 96 0 1 1 192 0zm0 256a96 96 0 1 1 -192 0 96 96 0 1 1 192 0zM448 128a96 96 0 1 1 -192 0 96 96 0 1 1 192 0z"/>
      <path style="fill:var(--fa-primary-color,currentColor);opacity:var(--fa-primary-opacity,1)" d="M256 384c0-13.3 10.7-24 24-24l144 0c13.3 0 24 10.7 24 24s-10.7 24-24 24l-144 0c-13.3 0-24-10.7-24-24z"/>
    </symbol>
    <symbol viewBox="0 0 512 512" id="head-side-brain">
      <path style="fill:var(--fa-secondary-color,currentColor);opacity:var(--fa-secondary-opacity,.4)" d="M0 224c0 54 19.1 103.5 50.9 142.2 8 9.7 13.1 21.6 13.1 34.2L64 464c0 26.5 21.5 48 48 48l160 0c26.5 0 48-21.5 48-48l0-7.2c0-5.1 4.5-8.8 9.7-8.8l38.3 0c35.3 0 64-28.7 64-64l0-48c0-8.8 7.2-16 16-16l1 0c26 0 47-21 47-47 0-11-3.9-21.6-10.9-30.1L449.3 200C447.4 197.6 446.1 194.7 445.7 191.7 430 83.3 336.7 0 224 0 100.3 0 0 100.3 0 224zm80-64c0-26.5 21.5-48 48-48 0-26.5 21.5-48 48-48 12.3 0 23.5 4.6 32 12.2 8.5-7.6 19.7-12.2 32-12.2 20.9 0 38.7 13.4 45.3 32L304 96c26.5 0 48 21.5 48 48s-21.5 48-48 48l-48 0c0 35.3-28.7 64-64 64-29.8 0-54.9-20.4-62-48-.7 0-1.3 0-2 0-26.5 0-48-21.5-48-48z"/>
      <path style="fill:var(--fa-primary-color,currentColor);opacity:var(--fa-primary-opacity,1)" d="M285.3 96c-6.6-18.6-24.4-32-45.3-32-12.3 0-23.5 4.6-32 12.2-8.5-7.6-19.7-12.2-32-12.2-26.5 0-48 21.5-48 48-26.5 0-48 21.5-48 48s21.5 48 48 48c.7 0 1.3 0 2 0 7.1 27.6 32.2 48 62 48 35.3 0 64-28.7 64-64l48 0c26.5 0 48-21.5 48-48s-21.5-48-48-48l-18.7 0z"/>
    </symbol>
    <symbol viewBox="0 0 512 512" id="inbox">
      <path style="fill:var(--fa-secondary-color,currentColor);opacity:var(--fa-secondary-opacity,.4)" d="M0 288l124.2 0c12.1 0 23.2 6.8 28.6 17.7l14.3 28.6c5.4 10.8 16.5 17.7 28.6 17.7l120.4 0c12.1 0 23.2-6.8 28.6-17.7l14.3-28.6c5.4-10.8 16.5-17.7 28.6-17.7L512 288c-.1-2.3-.3-4.5-.6-6.8L483.6 86.9C479.1 55.4 452.1 32 420.2 32L91.8 32C59.9 32 32.9 55.4 28.4 86.9L.6 281.2c-.3 2.2-.5 4.5-.6 6.8z"/>
      <path style="fill:var(--fa-primary-color,currentColor);opacity:var(--fa-primary-opacity,1)" d="M0 288c0 .8 0 1.5 0 2.3L0 416c0 35.3 28.7 64 64 64l384 0c35.3 0 64-28.7 64-64l0-125.7c0-.8 0-1.5 0-2.3l-124.2 0c-12.1 0-23.2 6.8-28.6 17.7l-14.3 28.6c-5.4 10.8-16.5 17.7-28.6 17.7l-120.4 0c-12.1 0-23.2-6.8-28.6-17.7l-14.3-28.6c-5.4-10.8-16.5-17.7-28.6-17.7L0 288z"/>
    </symbol>
    <symbol viewBox="0 0 576 512" id="industry">
      <path style="fill:var(--fa-secondary-color,currentColor);opacity:var(--fa-secondary-opacity,.4)" d="M32 64l0 368c0 26.5 21.5 48 48 48l416 0c26.5 0 48-21.5 48-48l0-276.4c-64 36.6-128 73.1-192 109.7l0-109.7c-64 36.6-128 73.1-192 109.7L160 64c0-17.7-14.3-32-32-32L64 32C46.3 32 32 46.3 32 64z"/>
      <path style="fill:var(--fa-primary-color,currentColor);opacity:var(--fa-primary-opacity,1)" d="M372.8 116.1c6.6 11.5 2.6 26.2-8.9 32.7L160 265.4 160 210.1 340.1 107.2c11.5-6.6 26.2-2.6 32.7 8.9zm192 0c6.6 11.5 2.6 26.2-8.9 32.7L352 265.4 352 210.1 532.1 107.2c11.5-6.6 26.2-2.6 32.7 8.9z"/>
    </symbol>
    <symbol viewBox="0 0 512 512" id="list-check">
      <path style="fill:var(--fa-secondary-color,currentColor);opacity:var(--fa-secondary-opacity,.4)" d="M160 416c0-17.7 14.3-32 32-32l288 0c17.7 0 32 14.3 32 32s-14.3 32-32 32l-288 0c-17.7 0-32-14.3-32-32zM224 96c0-17.7 14.3-32 32-32l224 0c17.7 0 32 14.3 32 32s-14.3 32-32 32l-224 0c-17.7 0-32-14.3-32-32zm0 160c0-17.7 14.3-32 32-32l224 0c17.7 0 32 14.3 32 32s-14.3 32-32 32l-224 0c-17.7 0-32-14.3-32-32z"/>
      <path style="fill:var(--fa-primary-color,currentColor);opacity:var(--fa-primary-opacity,1)" d="M139.7 69.8c7.6-10.9 5-25.8-5.9-33.4s-25.8-5-33.4 5.9L60.7 98.8 41 79C31.6 69.7 16.4 69.7 7 79S-2.3 103.6 7 113l40 40c5 5 12 7.6 19.1 6.9s13.5-4.3 17.6-10.1l56-80zm0 160c7.6-10.9 5-25.8-5.9-33.4s-25.8-5-33.4 5.9L60.7 258.8 41 239c-9.4-9.4-24.6-9.4-33.9 0S-2.3 263.6 7 273l40 40c5 5 12 7.6 19.1 6.9s13.5-4.3 17.6-10.1l56-80zM64 456a40 40 0 1 0 0-80 40 40 0 1 0 0 80z"/>
    </symbol>
    <symbol viewBox="0 0 576 512" id="memo-circle-info">
      <path style="fill:var(--fa-secondary-color,currentColor);opacity:var(--fa-secondary-opacity,.4)" d="M32 64C32 28.7 60.7 0 96 0L352 0c35.3 0 64 28.7 64 64l0 144.7c-98.6 8.1-176 90.7-176 191.3 0 41.8 13.4 80.5 36 112L96 512c-35.3 0-64-28.7-64-64L32 64zm96 88c0 13.3 10.7 24 24 24l144 0c13.3 0 24-10.7 24-24s-10.7-24-24-24l-144 0c-13.3 0-24 10.7-24 24zm0 96c0 13.3 10.7 24 24 24l64 0c13.3 0 24-10.7 24-24s-10.7-24-24-24l-64 0c-13.3 0-24 10.7-24 24zm0 96c0 13.3 10.7 24 24 24l32 0c13.3 0 24-10.7 24-24s-10.7-24-24-24l-32 0c-13.3 0-24 10.7-24 24z"/>
      <path style="fill:var(--fa-primary-color,currentColor);opacity:var(--fa-primary-opacity,1)" d="M288 400a144 144 0 1 1 288 0 144 144 0 1 1 -288 0zm164-64a20 20 0 1 0 -40 0 20 20 0 1 0 40 0zm-36 48c-8.8 0-16 7.2-16 16s7.2 16 16 16l0 0 0 32 0 0c-8.8 0-16 7.2-16 16s7.2 16 16 16l32 0c8.8 0 16-7.2 16-16s-7.2-16-16-16l0-48c0-8.8-7.2-16-16-16l-16 0z"/>
    </symbol>
    <symbol viewBox="0 0 512 512" id="money-check-dollar">
      <path style="fill:var(--fa-secondary-color,currentColor);opacity:var(--fa-secondary-opacity,.4)" d="M0 128L0 384c0 35.3 28.7 64 64 64l384 0c35.3 0 64-28.7 64-64l0-256c0-35.3-28.7-64-64-64L64 64C28.7 64 0 92.7 0 128zm76 92.5c0-28.8 23.2-52.2 52-52.5l0-4c0-11 9-20 20-20s20 9 20 20l0 4 8 0c11 0 20 9 20 20s-9 20-20 20l-47.5 0c-6.9 0-12.5 5.6-12.5 12.5 0 6.1 4.4 11.3 10.4 12.3l41.7 7c25.3 4.2 43.9 26.1 43.9 51.8 0 26.1-19 47.7-44 51.8l0 4.7c0 11-9 20-20 20s-20-9-20-20l0-4-24 0c-11 0-20-9-20-20s9-20 20-20l55.5 0c6.9 0 12.5-5.6 12.5-12.5 0-6.1-4.4-11.3-10.4-12.3l-41.7-7C94.5 268 76 246.1 76 220.5zM272 200c0-13.3 10.7-24 24-24l128 0c13.3 0 24 10.7 24 24s-10.7 24-24 24l-128 0c-13.3 0-24-10.7-24-24zm0 112c0-13.3 10.7-24 24-24l128 0c13.3 0 24 10.7 24 24s-10.7 24-24 24l-128 0c-13.3 0-24-10.7-24-24z"/>
      <path style="fill:var(--fa-primary-color,currentColor);opacity:var(--fa-primary-opacity,1)" d="M148 144c-11 0-20 9-20 20l0 4c-28.8 .3-52 23.7-52 52.5 0 25.7 18.5 47.6 43.9 51.8l41.7 7c6 1 10.4 6.2 10.4 12.3 0 6.9-5.6 12.5-12.5 12.5L104 304c-11 0-20 9-20 20s9 20 20 20l24 0 0 4c0 11 9 20 20 20s20-9 20-20l0-4.7c25-4.1 44-25.7 44-51.8 0-25.7-18.5-47.6-43.9-51.8l-41.7-7c-6-1-10.4-6.2-10.4-12.3 0-6.9 5.6-12.5 12.5-12.5l47.5 0c11 0 20-9 20-20s-9-20-20-20l-8 0 0-4c0-11-9-20-20-20zm124 56c0 13.3 10.7 24 24 24l128 0c13.3 0 24-10.7 24-24s-10.7-24-24-24l-128 0c-13.3 0-24 10.7-24 24zm0 112c0 13.3 10.7 24 24 24l128 0c13.3 0 24-10.7 24-24s-10.7-24-24-24l-128 0c-13.3 0-24 10.7-24 24z"/>
    </symbol>
    <symbol viewBox="0 0 512 512" id="pen-ruler">
      <path style="fill:var(--fa-secondary-color,currentColor);opacity:var(--fa-secondary-opacity,.4)" d="M11.7 99.7c-15.6 15.6-15.6 40.9 0 56.6l69.1 69.1 144.6-144.6-34.9-34.9-56.3 56.3c-7.8 7.8-20.5 7.8-28.3 0s-7.8-20.5 0-28.3l56.3-56.3-5.9-5.9c-15.6-15.6-40.9-15.6-56.6 0l-88 88zM286.6 431.2l69.1 69.1c15.6 15.6 40.9 15.6 56.6 0l88-88c15.6-15.6 15.6-40.9 0-56.6l-5.9-5.9-56.3 56.3c-7.8 7.8-20.5 7.8-28.3 0s-7.8-20.5 0-28.3l56.3-56.3-34.9-34.9-144.6 144.6z"/>
      <path style="fill:var(--fa-primary-color,currentColor);opacity:var(--fa-primary-opacity,1)" d="M352.9 21.2L308 66.1 445.9 204 490.8 159.1C504.4 145.6 512 127.2 512 108s-7.6-37.6-21.2-51.1L455.1 21.2C441.6 7.6 423.2 0 404 0s-37.6 7.6-51.1 21.2zM274.1 100L58.9 315.1c-10.7 10.7-18.5 24.1-22.6 38.7L.9 481.6c-2.3 8.3 0 17.3 6.2 23.4s15.1 8.5 23.4 6.2l127.8-35.5c14.6-4.1 27.9-11.8 38.7-22.6L412 237.9 274.1 100z"/>
    </symbol>
    <symbol viewBox="0 0 576 512" id="pencil-line">
      <path style="fill:var(--fa-secondary-color,currentColor);opacity:var(--fa-secondary-opacity,.4)" d="M256 488c0 13.3 10.7 24 24 24l272 0c13.3 0 24-10.7 24-24s-10.7-24-24-24l-272 0c-13.3 0-24 10.7-24 24zM291 83c16.6 16.6 51.3 51.3 104 104L429 221c20.6-20.6 41.2-41.2 61.9-61.9 13.6-13.6 21.2-31.9 21.2-51.1s-7.6-37.6-21.2-51.1L455.1 21.2C441.6 7.6 423.2 0 404 0s-37.6 7.6-51.1 21.2C332.3 41.8 311.7 62.4 291 83z"/>
      <path style="fill:var(--fa-primary-color,currentColor);opacity:var(--fa-primary-opacity,1)" d="M82.6 366.6l-24.1 86.9 86.9-24.1c6.5-1.8 12.5-5.3 17.3-10L92.2 349.8c-4.5 4.8-7.8 10.6-9.6 16.9zM257.1 117L291 83c16.6 16.6 51.3 51.3 104 104L429 221 395 254.9 196.9 453.1c-10.7 10.7-24.1 18.5-38.7 22.6L30.4 511.1c-8.3 2.3-17.3 0-23.4-6.2s-8.5-15.1-6.2-23.4L36.4 353.8c4.1-14.6 11.8-27.9 22.6-38.7L257.1 117z"/>
    </symbol>
    <symbol viewBox="0 0 512 512" id="print">
      <path style="fill:var(--fa-secondary-color,currentColor);opacity:var(--fa-secondary-opacity,.4)" d="M64 64l0 128 384 0 0-85.5c0-17-6.7-33.3-18.7-45.3L386.7 18.7C374.7 6.7 358.5 0 341.5 0L128 0C92.7 0 64 28.7 64 64zm0 320l0 64c0 35.3 28.7 64 64 64l256 0c35.3 0 64-28.7 64-64l0-64-64 0 0 64-256 0 0-64-64 0z"/>
      <path style="fill:var(--fa-primary-color,currentColor);opacity:var(--fa-primary-opacity,1)" d="M0 256c0-35.3 28.7-64 64-64l384 0c35.3 0 64 28.7 64 64l0 96c0 17.7-14.3 32-32 32l-96 0 0-32-256 0 0 32-96 0c-17.7 0-32-14.3-32-32l0-96zm456 16a24 24 0 1 0 -48 0 24 24 0 1 0 48 0z"/>
    </symbol>
    <symbol viewBox="0 0 512 512" id="send-backward">
      <path style="fill:var(--fa-secondary-color,currentColor);opacity:var(--fa-secondary-opacity,.4)" d="M160 224l0 224c0 35.3 28.7 64 64 64l224 0c35.3 0 64-28.7 64-64l0-224c0-35.3-28.7-64-64-64l-224 0c-35.3 0-64 28.7-64 64zm64 0l224 0 0 224-224 0 0-224z"/>
      <path style="fill:var(--fa-primary-color,currentColor);opacity:var(--fa-primary-opacity,1)" d="M0 64C0 28.7 28.7 0 64 0L288 0c35.3 0 64 28.7 64 64l0 96-128 0c-35.3 0-64 28.7-64 64l0 128-96 0c-35.3 0-64-28.7-64-64L0 64z"/>
    </symbol>
    <symbol viewBox="0 0 512 512" id="sitemap">
      <path style="fill:var(--fa-secondary-color,currentColor);opacity:var(--fa-secondary-opacity,.4)" d="M40 312l0 40 48 0 0-40c0-22.1 17.9-40 40-40l104 0 0 80 48 0 0-80 104 0c22.1 0 40 17.9 40 40l0 40 48 0 0-40c0-48.6-39.4-88-88-88l-104 0 0-64-48 0 0 64-104 0c-48.6 0-88 39.4-88 88z"/>
      <path style="fill:var(--fa-primary-color,currentColor);opacity:var(--fa-primary-opacity,1)" d="M192 64c0-17.7 14.3-32 32-32l64 0c17.7 0 32 14.3 32 32l0 64c0 17.7-14.3 32-32 32l-64 0c-17.7 0-32-14.3-32-32l0-64zM32 352l64 0c17.7 0 32 14.3 32 32l0 64c0 17.7-14.3 32-32 32l-64 0c-17.7 0-32-14.3-32-32l0-64c0-17.7 14.3-32 32-32zm192 0l64 0c17.7 0 32 14.3 32 32l0 64c0 17.7-14.3 32-32 32l-64 0c-17.7 0-32-14.3-32-32l0-64c0-17.7 14.3-32 32-32zm192 0l64 0c17.7 0 32 14.3 32 32l0 64c0 17.7-14.3 32-32 32l-64 0c-17.7 0-32-14.3-32-32l0-64c0-17.7 14.3-32 32-32z"/>
    </symbol>
    <symbol viewBox="0 0 448 512" id="table">
      <path style="fill:var(--fa-secondary-color,currentColor);opacity:var(--fa-secondary-opacity,.4)" d="M64 256l0 64 128 0 0 96 64 0 0-96 128 0 0-64-128 0 0-96-64 0 0 96-128 0z"/>
      <path style="fill:var(--fa-primary-color,currentColor);opacity:var(--fa-primary-opacity,1)" d="M64 160l0 256 320 0 0-256-320 0zM0 96C0 60.7 28.7 32 64 32l320 0c35.3 0 64 28.7 64 64l0 320c0 35.3-28.7 64-64 64L64 480c-35.3 0-64-28.7-64-64L0 96z"/>
    </symbol>
    <symbol viewBox="0 0 576 512" id="tape">
      <path style="fill:var(--fa-secondary-color,currentColor);opacity:var(--fa-secondary-opacity,.4)" d="M96 256a160 160 0 1 0 320 0 160 160 0 1 0 -320 0zm240 0a80 80 0 1 1 -160 0 80 80 0 1 1 160 0z"/>
      <path style="fill:var(--fa-primary-color,currentColor);opacity:var(--fa-primary-opacity,1)" d="M96 256a160 160 0 1 1 320 0 160 160 0 1 1 -320 0zM412.8 416c41.5-40.7 67.2-97.3 67.2-160 0-123.7-100.3-224-224-224S32 132.3 32 256 132.3 480 256 480l288 0c17.7 0 32-14.3 32-32s-14.3-32-32-32l-131.2 0z"/>
    </symbol>
    <symbol viewBox="0 0 640 512" id="truck-fast">
      <path style="fill:var(--fa-secondary-color,currentColor);opacity:var(--fa-secondary-opacity,.4)" d="M64 96l168 0c13.3 0 24 10.7 24 24s-10.7 24-24 24l-168 0 0 48 104 0c13.3 0 24 10.7 24 24s-10.7 24-24 24l-104 0 0 48 40 0c13.3 0 24 10.7 24 24s-10.7 24-24 24l-40 0 0 48c0 35.3 28.7 64 64 64l3.3 0c10.4 36.9 44.4 64 84.7 64s74.2-27.1 84.7-64l102.6 0c10.4 36.9 44.4 64 84.7 64s74.2-27.1 84.7-64l3.3 0c35.3 0 64-28.7 64-64l0-146.7c0-17-6.7-33.3-18.7-45.3L576 146.7c-12-12-28.3-18.7-45.3-18.7l-50.7 0 0-32c0-35.3-28.7-64-64-64L128 32C92.7 32 64 60.7 64 96zM256 424a40 40 0 1 1 -80 0 40 40 0 1 1 80 0zm272 0a40 40 0 1 1 -80 0 40 40 0 1 1 80 0zM480 192l50.7 0 45.3 45.3 0 50.7-96 0 0-96z"/>
      <path style="fill:var(--fa-primary-color,currentColor);opacity:var(--fa-primary-opacity,1)" d="M0 120c0-13.3 10.7-24 24-24l208 0c13.3 0 24 10.7 24 24s-10.7 24-24 24L24 144c-13.3 0-24-10.7-24-24zm0 96c0-13.3 10.7-24 24-24l144 0c13.3 0 24 10.7 24 24s-10.7 24-24 24L24 240c-13.3 0-24-10.7-24-24zm0 96c0-13.3 10.7-24 24-24l80 0c13.3 0 24 10.7 24 24s-10.7 24-24 24l-80 0c-13.3 0-24-10.7-24-24z"/>
    </symbol>
    <symbol viewBox="0 0 448 512" id="user">
      <path style="fill:var(--fa-secondary-color,currentColor);opacity:var(--fa-secondary-opacity,.4)" d="M104 128a120 120 0 1 0 240 0 120 120 0 1 0 -240 0z"/>
      <path style="fill:var(--fa-primary-color,currentColor);opacity:var(--fa-primary-opacity,1)" d="M16 482.3C16 383.8 95.8 304 194.3 304l59.4 0c98.5 0 178.3 79.8 178.3 178.3 0 16.4-13.3 29.7-29.7 29.7L45.7 512C29.3 512 16 498.7 16 482.3z"/>
    </symbol>
    <symbol viewBox="0 0 576 512" id="user-group-simple">
      <path style="fill:var(--fa-secondary-color,currentColor);opacity:var(--fa-secondary-opacity,.4)" d="M292.7 310.6c27 33.1 43.3 75.4 43.3 121.4l0 38c0 1.7-.1 3.5-.1 5.2 25.5 22.9 59.2 36.8 96.1 36.8 79.5 0 144-64.5 144-144l0-38c0-23.2-18.8-42-42-42l-204 0c-16.2 0-30.2 9.2-37.3 22.6zM336 128a96 96 0 1 0 192 0 96 96 0 1 0 -192 0z"/>
      <path style="fill:var(--fa-primary-color,currentColor);opacity:var(--fa-primary-opacity,1)" d="M144 224a96 96 0 1 0 0-192 96 96 0 1 0 0 192zm0 64C64.5 288 0 352.5 0 432l0 38c0 23.2 18.8 42 42 42l204 0c23.2 0 42-18.8 42-42l0-38c0-79.5-64.5-144-144-144z"/>
    </symbol>
    <symbol viewBox="0 0 576 512" id="user-lock">
      <path style="fill:var(--fa-secondary-color,currentColor);opacity:var(--fa-secondary-opacity,.4)" d="M16 482.3C16 383.8 95.8 304 194.3 304l59.4 0c29.7 0 57.7 7.3 82.3 20.1l0 4.3c-19.6 17.6-32 43.1-32 71.5l0 96c0 5.5 .5 10.9 1.3 16.1L45.7 512C29.3 512 16 498.7 16 482.3zM344 128a120 120 0 1 1 -240 0 120 120 0 1 1 240 0z"/>
      <path style="fill:var(--fa-primary-color,currentColor);opacity:var(--fa-primary-opacity,1)" d="M432 352l0-47.9c0-17.7 14.3-32 32-32s32 14.3 32 32l0 47.9-64 0zm-48 2.7c-18.6 6.6-32 24.4-32 45.3l0 96c0 26.5 21.5 48 48 48l128 0c26.5 0 48-21.5 48-48l0-96c0-20.9-13.4-38.7-32-45.3l0-50.6c0-44.2-35.8-80-80-80s-80 35.8-80 80l0 50.6z"/>
    </symbol>
  </defs>
</svg>
