<svg xmlns="http://www.w3.org/2000/svg" style="display: none">
  <defs>
    <symbol viewBox="0 0 448 512" id="grid-2">
      <path fill="currentColor" d="M48 64c-8.8 0-16 7.2-16 16l0 96c0 8.8 7.2 16 16 16l96 0c8.8 0 16-7.2 16-16l0-96c0-8.8-7.2-16-16-16L48 64zM0 80C0 53.5 21.5 32 48 32l96 0c26.5 0 48 21.5 48 48l0 96c0 26.5-21.5 48-48 48l-96 0c-26.5 0-48-21.5-48-48L0 80zM48 320c-8.8 0-16 7.2-16 16l0 96c0 8.8 7.2 16 16 16l96 0c8.8 0 16-7.2 16-16l0-96c0-8.8-7.2-16-16-16l-96 0zM0 336c0-26.5 21.5-48 48-48l96 0c26.5 0 48 21.5 48 48l0 96c0 26.5-21.5 48-48 48l-96 0c-26.5 0-48-21.5-48-48l0-96zM400 64l-96 0c-8.8 0-16 7.2-16 16l0 96c0 8.8 7.2 16 16 16l96 0c8.8 0 16-7.2 16-16l0-96c0-8.8-7.2-16-16-16zM304 32l96 0c26.5 0 48 21.5 48 48l0 96c0 26.5-21.5 48-48 48l-96 0c-26.5 0-48-21.5-48-48l0-96c0-26.5 21.5-48 48-48zm0 288c-8.8 0-16 7.2-16 16l0 96c0 8.8 7.2 16 16 16l96 0c8.8 0 16-7.2 16-16l0-96c0-8.8-7.2-16-16-16l-96 0zm-48 16c0-26.5 21.5-48 48-48l96 0c26.5 0 48 21.5 48 48l0 96c0 26.5-21.5 48-48 48l-96 0c-26.5 0-48-21.5-48-48l0-96z"/>
    </symbol>
    <symbol viewBox="0 0 512 512" id="house">
      <path fill="currentColor" d="M245.6 4.3c6.1-5.7 15.7-5.7 21.8 0l240 224c6.5 6 6.8 16.2 .8 22.6s-16.2 6.8-22.6 .8l-21.1-19.7 0 216c0 35.3-28.7 64-64 64l-288 0c-35.3 0-64-28.7-64-64l0-216-21.1 19.7c-6.5 6-16.6 5.7-22.6-.8s-5.7-16.6 .8-22.6l240-224zm10.9 33.6l-176 164.3 0 245.8c0 17.7 14.3 32 32 32l64 0 0-112c0-35.3 28.7-64 64-64l32 0c35.3 0 64 28.7 64 64l0 112 64 0c17.7 0 32-14.3 32-32l0-245.8-176-164.3zM208.5 480l96 0 0-112c0-17.7-14.3-32-32-32l-32 0c-17.7 0-32 14.3-32 32l0 112z"/>
    </symbol>
    <symbol viewBox="0 0 512 512" id="list">
      <path fill="currentColor" d="M48 112l0-32 32 0 0 32-32 0zM16 72l0 48c0 13.3 10.7 24 24 24l48 0c13.3 0 24-10.7 24-24l0-48c0-13.3-10.7-24-24-24L40 48C26.7 48 16 58.7 16 72zm160 8c-8.8 0-16 7.2-16 16s7.2 16 16 16l320 0c8.8 0 16-7.2 16-16s-7.2-16-16-16L176 80zm0 160c-8.8 0-16 7.2-16 16s7.2 16 16 16l320 0c8.8 0 16-7.2 16-16s-7.2-16-16-16l-320 0zm0 160c-8.8 0-16 7.2-16 16s7.2 16 16 16l320 0c8.8 0 16-7.2 16-16s-7.2-16-16-16l-320 0zM48 240l32 0 0 32-32 0 0-32zm-8-32c-13.3 0-24 10.7-24 24l0 48c0 13.3 10.7 24 24 24l48 0c13.3 0 24-10.7 24-24l0-48c0-13.3-10.7-24-24-24l-48 0zm8 224l0-32 32 0 0 32-32 0zM16 392l0 48c0 13.3 10.7 24 24 24l48 0c13.3 0 24-10.7 24-24l0-48c0-13.3-10.7-24-24-24l-48 0c-13.3 0-24 10.7-24 24z"/>
    </symbol>
    <symbol viewBox="0 0 448 512" id="user">
      <path fill="currentColor" d="M128 128a96 96 0 1 1 192 0 96 96 0 1 1 -192 0zm224 0a128 128 0 1 0 -256 0 128 128 0 1 0 256 0zM32 480c0-79.5 64.5-144 144-144l96 0c79.5 0 144 64.5 144 144l0 16c0 8.8 7.2 16 16 16s16-7.2 16-16l0-16c0-97.2-78.8-176-176-176l-96 0C78.8 304 0 382.8 0 480l0 16c0 8.8 7.2 16 16 16s16-7.2 16-16l0-16z"/>
    </symbol>
  </defs>
</svg>
