<svg xmlns="http://www.w3.org/2000/svg" style="display: none">
  <defs>
    <symbol viewBox="0 0 640 512" id="building-user">
      <path style="fill:var(--fa-secondary-color,currentColor);opacity:var(--fa-secondary-opacity,.4)" d="M64 64l0 384c0 35.3 28.7 64 64 64l176 0c0-1 0-1.9 0-2.9 0-59.1 36.3-109.7 87.8-130.7-15-21-23.8-46.7-23.8-74.4 0-53.7 33.1-99.7 80-118.7L448 64c0-35.3-28.7-64-64-64L128 0C92.7 0 64 28.7 64 64zm96 48c0-8.8 7.2-16 16-16l32 0c8.8 0 16 7.2 16 16l0 32c0 8.8-7.2 16-16 16l-32 0c-8.8 0-16-7.2-16-16l0-32zm0 128c0-8.8 7.2-16 16-16l32 0c8.8 0 16 7.2 16 16l0 32c0 8.8-7.2 16-16 16l-32 0c-8.8 0-16-7.2-16-16l0-32zm48 160c0-26.5 21.5-48 48-48 21.5 0 39.7 14.2 45.8 33.7-19.1 22.2-33.2 48.9-40.4 78.3l-53.4 0 0-64zm80-288c0-8.8 7.2-16 16-16l32 0c8.8 0 16 7.2 16 16l0 32c0 8.8-7.2 16-16 16l-32 0c-8.8 0-16-7.2-16-16l0-32zm0 128c0-8.8 7.2-16 16-16l32 0c1 0 2.1 .1 3 .3-9.9 19.4-16.3 40.9-18.3 63.7L304 288c-8.8 0-16-7.2-16-16l0-32z"/>
      <path style="fill:var(--fa-primary-color,currentColor);opacity:var(--fa-primary-opacity,1)" d="M496 384a80 80 0 1 0 0-160 80 80 0 1 0 0 160zm-48 32c-53 0-96 43-96 96 0 17.7 14.3 32 32 32l224 0c17.7 0 32-14.3 32-32 0-53-43-96-96-96l-96 0z"/>
    </symbol>
    <symbol viewBox="0 0 512 512" id="face-smile">
      <path style="fill:var(--fa-secondary-color,currentColor);opacity:var(--fa-secondary-opacity,.4)" d="M0 256a256 256 0 1 0 512 0 256 256 0 1 0 -512 0zm126.6 94.1c-7.8-10.7-5.4-25.7 5.3-33.5s25.7-5.4 33.5 5.3c20.4 28 53.4 46.1 90.6 46.1s70.2-18.1 90.6-46.1c7.8-10.7 22.8-13.1 33.5-5.3s13.1 22.8 5.3 33.5C356.3 390 309.2 416 256 416s-100.3-26-129.4-65.9zM208 208a32 32 0 1 1 -64 0 32 32 0 1 1 64 0zm160 0a32 32 0 1 1 -64 0 32 32 0 1 1 64 0z"/>
      <path style="fill:var(--fa-primary-color,currentColor);opacity:var(--fa-primary-opacity,1)" d="M176 240a32 32 0 1 0 0-64 32 32 0 1 0 0 64zm160 0a32 32 0 1 0 0-64 32 32 0 1 0 0 64z"/>
    </symbol>
    <symbol viewBox="0 0 512 512" id="print">
      <path style="fill:var(--fa-secondary-color,currentColor);opacity:var(--fa-secondary-opacity,.4)" d="M64 64l0 128 384 0 0-85.5c0-17-6.7-33.3-18.7-45.3L386.7 18.7C374.7 6.7 358.5 0 341.5 0L128 0C92.7 0 64 28.7 64 64zm0 320l0 64c0 35.3 28.7 64 64 64l256 0c35.3 0 64-28.7 64-64l0-64-64 0 0 64-256 0 0-64-64 0z"/>
      <path style="fill:var(--fa-primary-color,currentColor);opacity:var(--fa-primary-opacity,1)" d="M0 256c0-35.3 28.7-64 64-64l384 0c35.3 0 64 28.7 64 64l0 96c0 17.7-14.3 32-32 32l-96 0 0-32-256 0 0 32-96 0c-17.7 0-32-14.3-32-32l0-96zm456 16a24 24 0 1 0 -48 0 24 24 0 1 0 48 0z"/>
    </symbol>
  </defs>
</svg>
