<svg xmlns="http://www.w3.org/2000/svg" style="display: none">
  <defs>
    <symbol viewBox="0 0 256 512" id="angle-left">
      <path fill="currentColor" d="M15.5 239c-9.4 9.4-9.4 24.6 0 33.9l160 160c9.4 9.4 24.6 9.4 33.9 0s9.4-24.6 0-33.9l-143-143 143-143c9.4-9.4 9.4-24.6 0-33.9s-24.6-9.4-33.9 0L15.5 239z"/>
    </symbol>
    <symbol viewBox="0 0 512 512" id="backward-fast">
      <path fill="currentColor" d="M240 102.6L240 409.4 86.6 256 240 102.6zm-6.6 368c9.2 9.2 22.9 11.9 34.9 6.9S288 460.9 288 448l0-146.7 169.4 169.4c9.2 9.2 22.9 11.9 34.9 6.9S512 460.9 512 448l0-384c0-12.9-7.8-24.6-19.8-29.6s-25.7-2.2-34.9 6.9L288 210.7 288 64c0-12.9-7.8-24.6-19.8-29.6s-25.7-2.2-34.9 6.9L48 226.7 48 56c0-13.3-10.7-24-24-24S0 42.7 0 56L0 456c0 13.3 10.7 24 24 24s24-10.7 24-24l0-170.7 185.4 185.4zM310.6 256L464 102.6 464 409.4 310.6 256z"/>
    </symbol>
    <symbol viewBox="0 0 384 512" id="backward-step">
      <path fill="currentColor" d="M78.6 256L336 425.2 336 86.8 78.6 256zM363 475.2c-12.9 7-28.7 6.3-41-1.8L48 293.4 48 456c0 13.3-10.7 24-24 24S0 469.3 0 456L0 56C0 42.7 10.7 32 24 32S48 42.7 48 56L48 218.7 322 38.6c12.3-8.1 28-8.8 41-1.8S384 57.3 384 72l0 368c0 14.7-8.1 28.2-21 35.2z"/>
    </symbol>
    <symbol viewBox="0 0 448 512" id="bars">
      <path fill="currentColor" d="M0 88C0 74.7 10.7 64 24 64l400 0c13.3 0 24 10.7 24 24s-10.7 24-24 24L24 112C10.7 112 0 101.3 0 88zM0 256c0-13.3 10.7-24 24-24l400 0c13.3 0 24 10.7 24 24s-10.7 24-24 24L24 280c-13.3 0-24-10.7-24-24zM448 424c0 13.3-10.7 24-24 24L24 448c-13.3 0-24-10.7-24-24s10.7-24 24-24l400 0c13.3 0 24 10.7 24 24z"/>
    </symbol>
    <symbol viewBox="0 0 448 512" id="bell">
      <path fill="currentColor" d="M224 0c-13.3 0-24 10.7-24 24l0 9.7C118.6 45.3 56 115.4 56 200l0 14.5c0 37.7-10 74.7-29 107.3L5.1 359.2C1.8 365 0 371.5 0 378.2 0 399.1 16.9 416 37.8 416l372.4 0c20.9 0 37.8-16.9 37.8-37.8 0-6.7-1.8-13.3-5.1-19L421 321.7c-19-32.6-29-69.6-29-107.3l0-14.5c0-84.6-62.6-154.7-144-166.3l0-9.7c0-13.3-10.7-24-24-24zM392.4 368l-336.9 0 12.9-22.1C91.7 306 104 260.6 104 214.5l0-14.5c0-66.3 53.7-120 120-120s120 53.7 120 120l0 14.5c0 46.2 12.3 91.5 35.5 131.4L392.4 368zM156.1 464c9.9 28 36.6 48 67.9 48s58-20 67.9-48l-135.8 0z"/>
    </symbol>
    <symbol viewBox="0 0 320 512" id="bluetooth">
      <path fill="currentColor" d="M150.1 2.1c8.6-3.9 18.7-2.4 25.7 3.9l136 120c5.3 4.7 8.2 11.4 8.1 18.4s-3.3 13.6-8.7 18.1L197.8 256 311.3 349.5c5.4 4.5 8.6 11.1 8.7 18.1s-2.8 13.8-8.1 18.4l-136 120c-7.1 6.2-17.1 7.8-25.7 3.9S136 497.4 136 488l0-181.1-96.7 79.7c-10.2 8.4-25.4 7-33.8-3.3s-7-25.4 3.3-33.8L122.2 256 8.7 162.5C-1.5 154.1-3 139 5.5 128.7S29 117 39.3 125.5L136 205.1 136 24c0-9.4 5.5-18 14.1-21.9zM184 306.9l0 128 75-66.2-75-61.8zm0-101.7l75-61.8-75-66.2 0 128z"/>
    </symbol>
    <symbol viewBox="0 0 448 512" id="bolt">
      <path fill="currentColor" d="M341.2-12.1c9.1 6 13 17.3 9.6 27.6L292 192 412.9 192c19.4 0 35.1 15.7 35.1 35.1 0 10-4.2 19.5-11.7 26.1L136 521.9c-8.1 7.3-20.1 8.2-29.2 2.2s-13-17.3-9.6-27.6L156 320 35.1 320C15.7 320 0 304.3 0 284.9 0 275 4.2 265.5 11.7 258.8L312-9.9c8.1-7.3 20.1-8.1 29.2-2.2zM68.9 272l120.4 0c7.7 0 15 3.7 19.5 10s5.7 14.3 3.3 21.6L171.3 425.9 379.1 240 258.7 240c-7.7 0-15-3.7-19.5-10s-5.7-14.3-3.3-21.6L276.7 86.1 68.9 272z"/>
    </symbol>
    <symbol viewBox="0 0 512 512" id="box-archive">
      <path fill="currentColor" d="M464 80l0 64-416 0 0-64 416 0zM0 144c0 20.9 13.4 38.7 32 45.3L32 416c0 35.3 28.7 64 64 64l320 0c35.3 0 64-28.7 64-64l0-226.7c18.6-6.6 32-24.4 32-45.3l0-64c0-26.5-21.5-48-48-48L48 32C21.5 32 0 53.5 0 80l0 64zM80 416l0-224 352 0 0 224c0 8.8-7.2 16-16 16L96 432c-8.8 0-16-7.2-16-16zM184 240c-13.3 0-24 10.7-24 24s10.7 24 24 24l144 0c13.3 0 24-10.7 24-24s-10.7-24-24-24l-144 0z"/>
    </symbol>
    <symbol viewBox="0 0 384 512" id="building">
      <path fill="currentColor" d="M64 48c-8.8 0-16 7.2-16 16l0 384c0 8.8 7.2 16 16 16l80 0 0-80c0-17.7 14.3-32 32-32l32 0c17.7 0 32 14.3 32 32l0 80 80 0c8.8 0 16-7.2 16-16l0-384c0-8.8-7.2-16-16-16L64 48zM0 64C0 28.7 28.7 0 64 0L320 0c35.3 0 64 28.7 64 64l0 384c0 35.3-28.7 64-64 64L64 512c-35.3 0-64-28.7-64-64L0 64zm96 48c0-8.8 7.2-16 16-16l32 0c8.8 0 16 7.2 16 16l0 32c0 8.8-7.2 16-16 16l-32 0c-8.8 0-16-7.2-16-16l0-32zM240 96l32 0c8.8 0 16 7.2 16 16l0 32c0 8.8-7.2 16-16 16l-32 0c-8.8 0-16-7.2-16-16l0-32c0-8.8 7.2-16 16-16zM96 240c0-8.8 7.2-16 16-16l32 0c8.8 0 16 7.2 16 16l0 32c0 8.8-7.2 16-16 16l-32 0c-8.8 0-16-7.2-16-16l0-32zm144-16l32 0c8.8 0 16 7.2 16 16l0 32c0 8.8-7.2 16-16 16l-32 0c-8.8 0-16-7.2-16-16l0-32c0-8.8 7.2-16 16-16z"/>
    </symbol>
    <symbol viewBox="0 0 640 512" id="building-flag">
      <path fill="currentColor" d="M64 48c-8.8 0-16 7.2-16 16l0 384c0 8.8 7.2 16 16 16l80 0 0-80c0-17.7 14.3-32 32-32l32 0c17.7 0 32 14.3 32 32l0 80 80 0c8.8 0 16-7.2 16-16l0-384c0-8.8-7.2-16-16-16L64 48zM0 64C0 28.7 28.7 0 64 0L320 0c35.3 0 64 28.7 64 64l0 384c0 35.3-28.7 64-64 64L64 512c-35.3 0-64-28.7-64-64L0 64zm96 48c0-8.8 7.2-16 16-16l32 0c8.8 0 16 7.2 16 16l0 32c0 8.8-7.2 16-16 16l-32 0c-8.8 0-16-7.2-16-16l0-32zM240 96l32 0c8.8 0 16 7.2 16 16l0 32c0 8.8-7.2 16-16 16l-32 0c-8.8 0-16-7.2-16-16l0-32c0-8.8 7.2-16 16-16zM96 240c0-8.8 7.2-16 16-16l32 0c8.8 0 16 7.2 16 16l0 32c0 8.8-7.2 16-16 16l-32 0c-8.8 0-16-7.2-16-16l0-32zm144-16l32 0c8.8 0 16 7.2 16 16l0 32c0 8.8-7.2 16-16 16l-32 0c-8.8 0-16-7.2-16-16l0-32c0-8.8 7.2-16 16-16zM456 0c13.3 0 24 10.7 24 24l0 8 128 0c17.7 0 32 14.3 32 32l0 96c0 17.7-14.3 32-32 32l-128 0 0 296c0 13.3-10.7 24-24 24s-24-10.7-24-24l0-464c0-13.3 10.7-24 24-24z"/>
    </symbol>
    <symbol viewBox="0 0 640 512" id="cart-shopping">
      <path fill="currentColor" d="M0 8C0-5.3 10.7-16 24-16l45.3 0c27.1 0 50.3 19.4 55.1 46l.4 2 399.9 0c25.1 0 44 22.9 39.3 47.6L537.6 216.6c-8 41.4-44.2 71.4-86.4 71.4l-279.8 0 5.1 28.3c2.1 11.4 12 19.7 23.6 19.7L456 336c13.3 0 24 10.7 24 24s-10.7 24-24 24l-255.9 0c-34.8 0-64.6-24.9-70.8-59.1L77.2 38.6c-.7-3.8-4-6.6-7.9-6.6L24 32C10.7 32 0 21.3 0 8zM162.6 240l288.6 0c19.2 0 35.7-13.6 39.3-32.4L514.9 80 133.5 80 162.6 240zM208 416a48 48 0 1 1 0 96 48 48 0 1 1 0-96zm224 0a48 48 0 1 1 0 96 48 48 0 1 1 0-96z"/>
    </symbol>
    <symbol viewBox="0 0 576 512" id="certificate">
      <path fill="currentColor" d="M215.8-14.5c8.4-2.2 17.3 .2 23.4 6.4L288.3 42.4 337.3-8c6.1-6.2 15-8.7 23.4-6.4s14.9 8.9 17.1 17.3L395.1 71 462.8 51.9c8.4-2.4 17.4 0 23.5 6.1s8.5 15.1 6.1 23.5l-19.1 67.7 68.2 17.3c8.4 2.1 15 8.7 17.3 17.1s-.2 17.3-6.4 23.4l-50.4 49.1 50.4 49.1c6.2 6.1 8.7 15 6.4 23.4s-8.9 14.9-17.3 17.1l-68.2 17.3 19.1 67.7c2.4 8.4 0 17.4-6.1 23.5s-15.1 8.5-23.5 6.1l-67.7-19.1-17.3 68.2c-2.1 8.4-8.7 15-17.1 17.3s-17.3-.2-23.4-6.4l-49.1-50.4-49.1 50.4c-6.1 6.2-15 8.7-23.4 6.4s-14.9-8.9-17.1-17.3l-17.3-68.2-67.7 19.1c-8.4 2.4-17.4 0-23.5-6.1s-8.5-15.1-6.1-23.5l19.1-67.7-68.2-17.3c-8.4-2.1-15-8.7-17.3-17.1s.2-17.4 6.4-23.4L74.7 256 24.3 206.9c-6.2-6.1-8.7-15-6.4-23.4s8.9-14.9 17.3-17.1l68.2-17.3-19.1-67.7c-2.4-8.4 0-17.4 6.1-23.5s15.1-8.5 23.5-6.1L181.5 71 198.8 2.8c2.1-8.4 8.7-15 17.1-17.3zm18.9 70.7l-12.8 50.5c-1.6 6.3-5.7 11.6-11.3 14.9s-12.3 4.1-18.5 2.3l-50.1-14.2 14.2 50.1c1.8 6.2 .9 12.9-2.3 18.5s-8.6 9.7-14.9 11.3l-50.5 12.8 37.3 36.3c4.6 4.5 7.3 10.7 7.3 17.2s-2.6 12.7-7.3 17.2L88.5 309.5 139 322.3c6.3 1.6 11.6 5.7 14.9 11.3s4.1 12.3 2.3 18.5l-14.2 50.1 50.1-14.2c6.2-1.8 12.9-.9 18.5 2.3s9.7 8.6 11.3 14.9l12.8 50.5 36.3-37.3c4.5-4.6 10.7-7.3 17.2-7.3s12.7 2.6 17.2 7.3l36.3 37.3 12.8-50.5c1.6-6.3 5.7-11.7 11.3-14.9s12.3-4.1 18.5-2.3l50.1 14.2-14.2-50.1c-1.8-6.2-.9-12.9 2.3-18.5s8.6-9.7 14.9-11.3l50.5-12.8-37.3-36.3c-4.6-4.5-7.3-10.7-7.3-17.2s2.6-12.7 7.3-17.2l37.3-36.3-50.5-12.8c-6.3-1.6-11.6-5.7-14.9-11.3s-4.1-12.3-2.3-18.5l14.2-50.1-50.1 14.2c-6.2 1.8-12.9 .9-18.5-2.3s-9.7-8.6-11.3-14.9l-12.8-50.5-36.3 37.3c-4.5 4.6-10.7 7.3-17.2 7.3s-12.7-2.6-17.2-7.3L234.7 56.2z"/>
    </symbol>
    <symbol viewBox="0 0 512 512" id="chart-bar">
      <path fill="currentColor" d="M48 56c0-13.3-10.7-24-24-24S0 42.7 0 56L0 400c0 44.2 35.8 80 80 80l408 0c13.3 0 24-10.7 24-24s-10.7-24-24-24L80 432c-17.7 0-32-14.3-32-32L48 56zm104 72l208 0c13.3 0 24-10.7 24-24s-10.7-24-24-24L152 80c-13.3 0-24 10.7-24 24s10.7 24 24 24zm0 64c-13.3 0-24 10.7-24 24s10.7 24 24 24l144 0c13.3 0 24-10.7 24-24s-10.7-24-24-24l-144 0zm0 112c-13.3 0-24 10.7-24 24s10.7 24 24 24l272 0c13.3 0 24-10.7 24-24s-10.7-24-24-24l-272 0z"/>
    </symbol>
    <symbol viewBox="0 0 512 512" id="chart-line">
      <path fill="currentColor" d="M48 56c0-13.3-10.7-24-24-24S0 42.7 0 56L0 400c0 44.2 35.8 80 80 80l408 0c13.3 0 24-10.7 24-24s-10.7-24-24-24L80 432c-17.7 0-32-14.3-32-32L48 56zM473 169c9.4-9.4 9.4-24.6 0-33.9s-24.6-9.4-33.9 0l-119 119-79-79c-9.4-9.4-24.6-9.4-33.9 0L103 279c-9.4 9.4-9.4 24.6 0 33.9s24.6 9.4 33.9 0l87-87 79 79c9.4 9.4 24.6 9.4 33.9 0L473 169z"/>
    </symbol>
    <symbol viewBox="0 0 576 512" id="circle-dollar-to-slot">
      <path fill="currentColor" d="M288 80a144 144 0 1 1 0 288 144 144 0 1 1 0-288zm0 336a192 192 0 1 0 0-384 192 192 0 1 0 0 384zM24 320c-13.3 0-24 10.7-24 24L0 448c0 35.3 28.7 64 64 64l448 0c35.3 0 64-28.7 64-64l0-104c0-13.3-10.7-24-24-24s-24 10.7-24 24l0 104c0 8.8-7.2 16-16 16L64 464c-8.8 0-16-7.2-16-16l0-104c0-13.3-10.7-24-24-24zM292 112c-11 0-20 9-20 20l0 4c-28.8 .3-52 23.7-52 52.5 0 25.7 18.5 47.6 43.9 51.8l41.7 7c6 1 10.4 6.2 10.4 12.3 0 6.9-5.6 12.5-12.5 12.5L248 272c-11 0-20 9-20 20s9 20 20 20l24 0 0 4c0 11 9 20 20 20s20-9 20-20l0-4.7c25-4.1 44-25.7 44-51.8 0-25.7-18.5-47.6-43.9-51.8l-41.7-7c-6-1-10.4-6.2-10.4-12.3 0-6.9 5.6-12.5 12.5-12.5l47.5 0c11 0 20-9 20-20s-9-20-20-20l-8 0 0-4c0-11-9-20-20-20z"/>
    </symbol>
    <symbol viewBox="0 0 512 512" id="circle-info">
      <path fill="currentColor" d="M256 48a208 208 0 1 1 0 416 208 208 0 1 1 0-416zm0 464a256 256 0 1 0 0-512 256 256 0 1 0 0 512zM216 336c-13.3 0-24 10.7-24 24s10.7 24 24 24l80 0c13.3 0 24-10.7 24-24s-10.7-24-24-24l-8 0 0-88c0-13.3-10.7-24-24-24l-48 0c-13.3 0-24 10.7-24 24s10.7 24 24 24l24 0 0 64-24 0zm40-144a32 32 0 1 0 0-64 32 32 0 1 0 0 64z"/>
    </symbol>
    <symbol viewBox="0 0 576 512" id="comments">
      <path fill="currentColor" d="M76.2 258.7c6.1-15.2 4-32.6-5.6-45.9-14.5-20.1-22.6-43.7-22.6-68.8 0-66.8 60.5-128 144-128s144 61.2 144 128-60.5 128-144 128c-15.9 0-31.1-2.3-45.3-6.5-10.3-3.1-21.4-2.5-31.4 1.5l-50.4 20.2 11.4-28.5zM0 144c0 35.8 11.6 69.1 31.7 96.8L1.9 315.2c-1.3 3.2-1.9 6.6-1.9 10 0 14.8 12 26.8 26.8 26.8 3.4 0 6.8-.7 10-1.9l96.3-38.5c18.6 5.5 38.4 8.4 58.9 8.4 106 0 192-78.8 192-176S298-32 192-32 0 46.8 0 144zM384 512c20.6 0 40.3-3 58.9-8.4l96.3 38.5c3.2 1.3 6.6 1.9 10 1.9 14.8 0 26.8-12 26.8-26.8 0-3.4-.7-6.8-1.9-10l-29.7-74.4c20-27.8 31.7-61.1 31.7-96.8 0-82.4-61.7-151.5-145-170.7-1.6 16.3-5.1 31.9-10.1 46.9 63.9 14.8 107.2 67.3 107.2 123.9 0 25.1-8.1 48.7-22.6 68.8-9.6 13.3-11.7 30.6-5.6 45.9l11.4 28.5-50.4-20.2c-10-4-21.1-4.5-31.4-1.5-14.2 4.2-29.4 6.5-45.3 6.5-72.2 0-127.1-45.7-140.7-101.2-15.6 3.2-31.7 5-48.1 5.2 16.4 81.9 94.7 144 188.8 144z"/>
    </symbol>
    <symbol viewBox="0 0 512 512" id="cubes">
      <path fill="currentColor" d="M284-1.3c-17.3-10-38.7-10-56 0L143.8 47.3c-17.3 10-28 28.5-28 48.5l0 101.9-88.3 51c-17.3 10-28 28.5-28 48.5l0 97.3c0 20 10.7 38.5 28 48.5l84.3 48.6c17.3 10 38.7 10 56 0l88.3-51 88.3 51c17.3 10 38.7 10 56 0L484.5 443c17.3-10 28-28.5 28-48.5l0-97.3c0-20-10.7-38.5-28-48.5l-88.3-51 0-101.9c0-20-10.7-38.5-28-48.5L284-1.3zM71.5 278.7l68.3-39.4 68.3 39.4-68.3 39.4-68.3-39.4zm-24 41.6l68.3 39.4 0 78.8-64.3-37.1c-2.5-1.4-4-4.1-4-6.9l0-74.2zM163.8 438.5l0-78.8 68.3-39.4 0 78.8-68.3 39.4zM280 320.3l68.3 39.4 0 78.8-68.3-39.4 0-78.8zM396.3 438.5l0-78.8 68.3-39.4 0 74.2c0 2.9-1.5 5.5-4 6.9l-64.3 37.1zm44.3-159.8l-68.3 39.4-68.3-39.4 68.3-39.4 68.3 39.4zM280 237.2l0-78.8 68.3-39.4 0 78.8-68.3 39.4zM324.3 77.4L256 116.8 187.8 77.4 252 40.3c2.5-1.4 5.5-1.4 8 0l64.3 37.1zM163.8 118.9l68.3 39.4 0 78.8-68.3-39.4 0-78.8z"/>
    </symbol>
    <symbol viewBox="0 0 448 512" id="door-open">
      <path fill="currentColor" d="M96 48l160 0c8.8 0 16 7.2 16 16l0 400-192 0 0-400c0-8.8 7.2-16 16-16zM80 512l216 0c13.3 0 24-10.7 24-24l0-424c0-5.5-.7-10.9-2-16l34 0c8.8 0 16 7.2 16 16l0 424c0 13.3 10.7 24 24 24l32 0c13.3 0 24-10.7 24-24s-10.7-24-24-24l-8 0 0-400c0-35.3-28.7-64-64-64l-88 0 0 .5c-2.6-.3-5.3-.5-8-.5L96 0C60.7 0 32 28.7 32 64l0 400-8 0c-13.3 0-24 10.7-24 24s10.7 24 24 24l56 0zm96-256a32 32 0 1 0 64 0 32 32 0 1 0 -64 0z"/>
    </symbol>
    <symbol viewBox="0 0 512 512" id="envelope">
      <path fill="currentColor" d="M61.4 64C27.5 64 0 91.5 0 125.4 0 126.3 0 127.1 .1 128L0 128 0 384c0 35.3 28.7 64 64 64l384 0c35.3 0 64-28.7 64-64l0-256-.1 0c0-.9 .1-1.7 .1-2.6 0-33.9-27.5-61.4-61.4-61.4L61.4 64zM464 192.3L464 384c0 8.8-7.2 16-16 16L64 400c-8.8 0-16-7.2-16-16l0-191.7 154.8 117.4c31.4 23.9 74.9 23.9 106.4 0L464 192.3zM48 125.4C48 118 54 112 61.4 112l389.2 0c7.4 0 13.4 6 13.4 13.4 0 4.2-2 8.2-5.3 10.7L280.2 271.5c-14.3 10.8-34.1 10.8-48.4 0L53.3 136.1c-3.3-2.5-5.3-6.5-5.3-10.7z"/>
    </symbol>
    <symbol viewBox="0 0 576 512" id="eye">
      <path fill="currentColor" d="M288 80C222.8 80 169.2 109.6 128.1 147.7 89.6 183.5 63 226 49.4 256 63 286 89.6 328.5 128.1 364.3 169.2 402.4 222.8 432 288 432s118.8-29.6 159.9-67.7C486.4 328.5 513 286 526.6 256 513 226 486.4 183.5 447.9 147.7 406.8 109.6 353.2 80 288 80zM95.4 112.6C142.5 68.8 207.2 32 288 32s145.5 36.8 192.6 80.6c46.8 43.5 78.1 95.4 93 131.1 3.3 7.9 3.3 16.7 0 24.6-14.9 35.7-46.2 87.7-93 131.1-47.1 43.7-111.8 80.6-192.6 80.6S142.5 443.2 95.4 399.4c-46.8-43.5-78.1-95.4-93-131.1-3.3-7.9-3.3-16.7 0-24.6 14.9-35.7 46.2-87.7 93-131.1zM288 336c44.2 0 80-35.8 80-80 0-29.6-16.1-55.5-40-69.3-1.4 59.7-49.6 107.9-109.3 109.3 13.8 23.9 39.7 40 69.3 40zm-79.6-88.4c2.5 .3 5 .4 7.6 .4 35.3 0 64-28.7 64-64 0-2.6-.2-5.1-.4-7.6-37.4 3.9-67.2 33.7-71.1 71.1zm45.6-115c10.8-3 22.2-4.5 33.9-4.5 8.8 0 17.5 .9 25.8 2.6 .3 .1 .5 .1 .8 .2 57.9 12.2 101.4 63.7 101.4 125.2 0 70.7-57.3 128-128 128-61.6 0-113-43.5-125.2-101.4-1.8-8.6-2.8-17.5-2.8-26.6 0-11 1.4-21.8 4-32 .2-.7 .3-1.3 .5-1.9 11.9-43.4 46.1-77.6 89.5-89.5z"/>
    </symbol>
    <symbol viewBox="0 0 384 512" id="file-lines">
      <path fill="currentColor" d="M64 48l112 0 0 88c0 39.8 32.2 72 72 72l88 0 0 240c0 8.8-7.2 16-16 16L64 464c-8.8 0-16-7.2-16-16L48 64c0-8.8 7.2-16 16-16zM224 67.9l92.1 92.1-68.1 0c-13.3 0-24-10.7-24-24l0-68.1zM64 0C28.7 0 0 28.7 0 64L0 448c0 35.3 28.7 64 64 64l256 0c35.3 0 64-28.7 64-64l0-261.5c0-17-6.7-33.3-18.7-45.3L242.7 18.7C230.7 6.7 214.5 0 197.5 0L64 0zm56 256c-13.3 0-24 10.7-24 24s10.7 24 24 24l144 0c13.3 0 24-10.7 24-24s-10.7-24-24-24l-144 0zm0 96c-13.3 0-24 10.7-24 24s10.7 24 24 24l144 0c13.3 0 24-10.7 24-24s-10.7-24-24-24l-144 0z"/>
    </symbol>
    <symbol viewBox="0 0 512 512" id="forward-fast">
      <path fill="currentColor" d="M272 102.6L272 409.4 425.4 256 272 102.6zm6.6 368c-9.2 9.2-22.9 11.9-34.9 6.9S224 460.9 224 448l0-146.7-169.4 169.4c-9.2 9.2-22.9 11.9-34.9 6.9S0 460.9 0 448L0 64C0 51.1 7.8 39.4 19.8 34.4s25.7-2.2 34.9 6.9L224 210.7 224 64c0-12.9 7.8-24.6 19.8-29.6s25.7-2.2 34.9 6.9L464 226.7 464 56c0-13.3 10.7-24 24-24s24 10.7 24 24l0 400c0 13.3-10.7 24-24 24s-24-10.7-24-24l0-170.7-185.4 185.4zM201.4 256L48 102.6 48 409.4 201.4 256z"/>
    </symbol>
    <symbol viewBox="0 0 384 512" id="forward-step">
      <path fill="currentColor" d="M360 32c-13.3 0-24 10.7-24 24L336 218.7 62 38.6c-12.3-8.1-28-8.8-41-1.8S0 57.3 0 72L0 440c0 14.7 8.1 28.2 21 35.2s28.7 6.3 41-1.8L336 293.4 336 456c0 13.3 10.7 24 24 24s24-10.7 24-24l0-400c0-13.3-10.7-24-24-24zM305.4 256L48 425.2 48 86.8 305.4 256z"/>
    </symbol>
    <symbol viewBox="0 0 640 512" id="gears">
      <path fill="currentColor" d="M170.6-20.6c10.3-20.2 33.3-30.5 55.2-24.7L250-38.8c21.9 5.9 36.7 26.3 35.5 49l-1 17.8c2.7 2.5 5.3 5.1 7.8 7.8l17.8-1c22.7-1.2 43.1 13.6 49 35.5l6.5 24.2c5.9 21.9-4.4 45-24.7 55.2l-15.9 8.1c-.8 3.6-1.8 7.2-2.9 10.7l9.7 14.9c12.4 19 9.8 44.1-6.3 60.2L308 261.3c-16.1 16.1-41.1 18.7-60.2 6.3l-14.9-9.7c-3.5 1.1-7.1 2.1-10.7 2.9l-8.1 15.9c-10.3 20.2-33.3 30.5-55.2 24.7l-24.2-6.5c-21.9-5.9-36.7-26.3-35.5-49l1-17.8c-2.7-2.5-5.3-5.1-7.8-7.8l-17.8 1c-22.7 1.2-43.1-13.6-49-35.5l-6.5-24.2c-5.9-21.9 4.4-45 24.7-55.2l0 0 15.9-8.1c.8-3.6 1.8-7.2 2.9-10.7L52.8 72.6c-12.4-19-9.8-44.1 6.3-60.2L76.8-5.3C92.8-21.4 117.9-24 137-11.6l14.9 9.7c3.5-1.1 7.1-2.1 10.7-2.9l8.1-15.9zm67 28.2l-24.2-6.5-13.5 26.6c-3.6 7.1-10.5 12-18.4 13-8.1 1-15.9 3.1-23.3 6.3-7.4 3.1-15.8 2.4-22.5-2l-25-16.3-17.7 17.7 16.3 25c4.4 6.7 5.1 15.1 2 22.4-1.5 3.7-2.9 7.5-3.9 11.5s-1.8 8-2.3 11.9c-1 7.9-5.9 14.8-13 18.4l-26.6 13.5 6.5 24.2 29.8-1.6c8-.4 15.6 3.1 20.5 9.5 4.9 6.4 10.6 12.2 17.1 17.1 6.4 4.8 9.9 12.5 9.5 20.4l-1.6 29.7 24.2 6.5 13.5-26.6c3.6-7.1 10.5-12 18.4-13 8.1-1 15.9-3.1 23.3-6.3 7.4-3.1 15.8-2.4 22.5 2l25 16.3 17.7-17.7-16.3-25c-4.4-6.7-5.1-15.1-2-22.4 1.5-3.7 2.9-7.5 3.9-11.5s1.8-8 2.3-11.9c1-7.9 5.9-14.8 13-18.4l26.6-13.5-6.5-24.2-29.8 1.6c-8 .4-15.6-3.1-20.5-9.5-4.9-6.4-10.6-12.2-17.1-17.1-6.4-4.8-9.9-12.5-9.5-20.4l1.6-29.7zM161.5 119.7a32 32 0 1 1 61.8 16.6 32 32 0 1 1 -61.8-16.6zM355.2 266.2c-1.2-22.7 13.6-43.1 35.5-49l24.2-6.5c21.9-5.9 45 4.4 55.2 24.7l8.1 15.9c3.6 .8 7.2 1.8 10.7 2.9l14.9-9.7c19-12.4 44.1-9.8 60.2 6.3l17.7 17.7c16.1 16.1 18.7 41.2 6.3 60.2l-9.7 14.9c1.1 3.5 2.1 7.1 2.9 10.7l15.9 8.1c20.2 10.3 30.5 33.3 24.7 55.2l-6.5 24.2c-5.9 21.9-26.3 36.7-49 35.5l-17.8-1c-2.5 2.7-5.1 5.3-7.8 7.8l1 17.8c1.2 22.7-13.6 43.1-35.5 49l-24.2 6.5c-21.9 5.9-45-4.4-55.2-24.7l-8.1-15.9c-3.6-.8-7.2-1.8-10.7-2.9L393 523.6c-19 12.4-44.1 9.8-60.2-6.3l-17.7-17.7c-16.1-16.1-18.7-41.1-6.3-60.2l9.7-14.9c-1.1-3.5-2.1-7.1-2.9-10.7l-15.9-8.1c-20.2-10.3-30.5-33.3-24.7-55.2l6.5-24.2c5.9-21.9 26.3-36.7 49-35.5l17.8 1c2.5-2.7 5.1-5.3 7.8-7.8l-1-17.8zm72.1-9.1l-24.2 6.5 1.6 29.7c.4 8-3.1 15.6-9.5 20.4-6.5 4.9-12.2 10.7-17.1 17.1-4.8 6.4-12.5 9.9-20.5 9.5l-29.8-1.6-6.5 24.2 26.6 13.5c7.1 3.6 12 10.5 13 18.4 .5 4 1.3 7.9 2.3 11.9s2.4 7.8 3.9 11.5c3.1 7.3 2.3 15.7-2 22.4l-16.3 25 17.7 17.7 25-16.3c6.7-4.4 15.1-5.1 22.5-2 7.4 3.1 15.3 5.3 23.3 6.3 7.9 1 14.8 5.8 18.4 13l13.5 26.6 24.2-6.5-1.6-29.7c-.4-8 3.1-15.6 9.5-20.4 6.5-4.9 12.2-10.7 17.1-17.1 4.8-6.4 12.5-9.9 20.5-9.5l29.8 1.6 6.5-24.2-26.6-13.5c-7.1-3.6-12-10.5-13-18.4-.5-4-1.3-7.9-2.3-11.9s-2.4-7.8-3.9-11.5c-3.1-7.3-2.3-15.7 2-22.4l16.3-25-17.7-17.7-25 16.3c-6.7 4.4-15.1 5.1-22.5 2-7.4-3.1-15.3-5.3-23.3-6.3-7.9-1-14.8-5.8-18.4-13l-13.5-26.6zm-9.9 135.2a32 32 0 1 1 61.8-16.6 32 32 0 1 1 -61.8 16.6z"/>
    </symbol>
    <symbol viewBox="0 0 512 512" id="globe">
      <path fill="currentColor" d="M303.2 413c-21.5 43.7-41.4 51-47.2 51s-25.7-7.3-47.2-51c-17-34.5-29.2-81.6-32.1-133l158.6 0c-3 51.5-15.2 98.6-32.1 133zm32.1-181l-158.6 0c3-51.5 15.2-98.6 32.1-133 21.5-43.7 41.4-51 47.2-51s25.7 7.3 47.2 51c17 34.5 29.2 81.6 32.1 133zm48.1 48l79.2 0c-8.6 74.6-56.7 137.3-122.8 166.4 24-42.8 40.3-102.4 43.6-166.4zm79.2-48l-79.2 0c-3.3-64-19.6-123.6-43.6-166.4 66.1 29.2 114.2 91.8 122.8 166.4zm-334 0l-79.2 0c8.6-74.6 56.7-137.3 122.8-166.4-24 42.8-40.3 102.4-43.6 166.4zM49.4 280l79.2 0c3.3 64 19.6 123.6 43.6 166.4-66.1-29.2-114.2-91.8-122.8-166.4zM256 512a256 256 0 1 0 0-512 256 256 0 1 0 0 512z"/>
    </symbol>
    <symbol viewBox="0 0 512 512" id="inbox">
      <path fill="currentColor" d="M75.3 94c1-8 7.8-14 15.9-14l329.7 0c8 0 14.8 6 15.9 14l25 194-85.2 0c-13.4 0-25.9 6.7-33.3 17.8l-20.1 30.2-134.3 0-20.1-30.2c-7.4-11.1-19.9-17.8-33.3-17.8l-85.2 0 25-194zM48 336l83.2 0 20.1 30.2c7.4 11.1 19.9 17.8 33.3 17.8l142.9 0c13.4 0 25.9-6.7 33.3-17.8l20.1-30.2 83.2 0 0 80c0 8.8-7.2 16-16 16L64 432c-8.8 0-16-7.2-16-16l0-80zM91.2 32C59 32 31.8 55.9 27.7 87.8L.2 300.9 0 302.5 0 416c0 35.3 28.7 64 64 64l384 0c35.3 0 64-28.7 64-64l0-113.5-.2-1.5-27.5-213.1C480.2 55.9 453 32 420.8 32L91.2 32z"/>
    </symbol>
    <symbol viewBox="0 0 512 512" id="key">
      <path fill="currentColor" d="M208 176c0-70.7 57.3-128 128-128s128 57.3 128 128-57.3 128-128 128c-10.4 0-20.5-1.2-30.1-3.6-8.1-2-16.7 .5-22.6 6.4L254.1 336 200 336c-13.3 0-24 10.7-24 24l0 40-40 0c-13.3 0-24 10.7-24 24l0 40-64 0 0-78.1 157.2-157.2c5.9-5.9 8.3-14.5 6.4-22.6-2.3-9.6-3.6-19.7-3.6-30.1zM336 0c-97.2 0-176 78.8-176 176 0 9.5 .7 18.8 2.2 27.9L7 359c-4.5 4.5-7 10.6-7 17L0 488c0 13.3 10.7 24 24 24l112 0c13.3 0 24-10.7 24-24l0-40 40 0c13.3 0 24-10.7 24-24l0-40 40 0c6.4 0 12.5-2.5 17-7l27.2-27.2c9.1 1.4 18.4 2.2 27.9 2.2 97.2 0 176-78.8 176-176S433.2 0 336 0zm32 176a32 32 0 1 0 0-64 32 32 0 1 0 0 64z"/>
    </symbol>
    <symbol viewBox="0 0 512 512" id="marker">
      <path fill="currentColor" d="M408.8 48c-14.6 0-28.7 5.8-39 16.2L217.9 216 296 294.1 447.8 142.2c10.4-10.4 16.2-24.4 16.2-39 0-30.5-24.7-55.2-55.2-55.2zM136.3 297.7c-42.9 42.9-71.6 98.1-82.2 157.9l-.5 2.9 2.9-.5c59.8-10.6 114.9-39.2 157.9-82.2l47.7-47.7-78.1-78.1-47.7 47.7zM335.8 30.2c19.4-19.4 45.6-30.2 73-30.2 57 0 103.2 46.2 103.2 103.2 0 27.4-10.9 53.6-30.2 73L248.3 409.7c-49.9 49.9-114 83.3-183.5 95.5l-36.7 6.5C20.5 513 12.6 510.5 7 505s-8-13.4-6.7-21.1l6.5-36.7c12.3-69.5 45.6-133.6 95.5-183.5L284.1 81.9 271 68.9c-9.4-9.4-24.6-9.4-33.9 0L137 169c-9.4 9.4-24.6 9.4-33.9 0s-9.4-24.6 0-33.9L203.1 34.9c28.1-28.1 73.7-28.1 101.8 0L318.1 48 335.8 30.2z"/>
    </symbol>
    <symbol viewBox="0 0 512 512" id="message">
      <path fill="currentColor" d="M203.7 512.9s0 0 0 0l-37.8 26.7c-7.3 5.2-16.9 5.8-24.9 1.7S128 529 128 520l0-72-32 0c-53 0-96-43-96-96L0 128C0 75 43 32 96 32l320 0c53 0 96 43 96 96l0 224c0 53-43 96-96 96l-120.4 0-91.9 64.9zm64.3-104.1c8.1-5.7 17.8-8.8 27.7-8.8L416 400c26.5 0 48-21.5 48-48l0-224c0-26.5-21.5-48-48-48L96 80c-26.5 0-48 21.5-48 48l0 224c0 26.5 21.5 48 48 48l56 0c10.4 0 19.3 6.6 22.6 15.9 .9 2.5 1.4 5.2 1.4 8.1l0 49.7c32.7-23.1 63.3-44.7 91.9-64.9z"/>
    </symbol>
    <symbol viewBox="0 0 384 512" id="mobile">
      <path fill="currentColor" d="M80 48c-8.8 0-16 7.2-16 16l0 384c0 8.8 7.2 16 16 16l224 0c8.8 0 16-7.2 16-16l0-384c0-8.8-7.2-16-16-16L80 48zM16 64C16 28.7 44.7 0 80 0L304 0c35.3 0 64 28.7 64 64l0 384c0 35.3-28.7 64-64 64L80 512c-35.3 0-64-28.7-64-64L16 64zM152 368l80 0c13.3 0 24 10.7 24 24s-10.7 24-24 24l-80 0c-13.3 0-24-10.7-24-24s10.7-24 24-24z"/>
    </symbol>
    <symbol viewBox="0 0 512 512" id="money-bill">
      <path fill="currentColor" d="M400 112c0 35.3 28.7 64 64 64l0 160c-35.3 0-64 28.7-64 64l-288 0c0-35.3-28.7-64-64-64l0-160c35.3 0 64-28.7 64-64l288 0zM64 64C28.7 64 0 92.7 0 128L0 384c0 35.3 28.7 64 64 64l384 0c35.3 0 64-28.7 64-64l0-256c0-35.3-28.7-64-64-64L64 64zM352 256a96 96 0 1 0 -192 0 96 96 0 1 0 192 0z"/>
    </symbol>
    <symbol viewBox="0 0 512 512" id="paperclip">
      <path fill="currentColor" d="M241.4 18.4c53.1-53.1 139.2-53.1 192.3 0s53.1 139.2 0 192.3L264 380.5c-34.4 34.4-90.1 34.4-124.5 0s-34.4-90.1 0-124.5L298 97.6c9.4-9.4 24.6-9.4 33.9 0s9.4 24.6 0 33.9L173.5 289.9c-15.6 15.6-15.6 40.9 0 56.6s40.9 15.6 56.6 0L399.8 176.8c34.4-34.4 34.4-90.1 0-124.5s-90.1-34.4-124.4 0l-181 181c-53.1 53.1-53.1 139.2 0 192.3s139.2 53.1 192.3 0L428.1 284.3c9.4-9.4 24.6-9.4 33.9 0s9.4 24.6 0 33.9L320.6 459.6c-71.9 71.9-188.4 71.9-260.2 0s-71.9-188.4 0-260.2l181-181z"/>
    </symbol>
    <symbol viewBox="0 0 512 512" id="pencil">
      <path fill="currentColor" d="M58.9 315.1c-10.7 10.7-18.5 24.1-22.6 38.7L.9 481.6c-2.3 8.3 0 17.3 6.2 23.4s15.1 8.5 23.4 6.2l127.8-35.5c14.6-4.1 27.9-11.8 38.7-22.6l294-294C504.4 145.6 512 127.2 512 108s-7.6-37.6-21.2-51.1L455.1 21.2C441.6 7.6 423.2 0 404 0s-37.6 7.6-51.1 21.2l-294 294zM404 48c6.4 0 12.6 2.6 17.2 7.1l35.7 35.7c4.6 4.6 7.1 10.7 7.1 17.2s-2.6 12.6-7.1 17.2L404 178.1 333.9 108 386.8 55.1c4.6-4.6 10.7-7.1 17.2-7.1zM109.9 332L300 141.9 370.1 212 180 402.1 109.9 332zM81.3 371.3l59.4 59.4-82.2 22.8 22.8-82.2z"/>
    </symbol>
    <symbol viewBox="0 0 448 512" id="plus">
      <path fill="currentColor" d="M248 56c0-13.3-10.7-24-24-24s-24 10.7-24 24l0 176-176 0c-13.3 0-24 10.7-24 24s10.7 24 24 24l176 0 0 176c0 13.3 10.7 24 24 24s24-10.7 24-24l0-176 176 0c13.3 0 24-10.7 24-24s-10.7-24-24-24l-176 0 0-176z"/>
    </symbol>
    <symbol viewBox="0 0 512 512" id="print">
      <path fill="currentColor" d="M384 144l48 0 0-37.5c0-17-6.7-33.3-18.7-45.3L370.7 18.7C358.7 6.7 342.5 0 325.5 0L144 0C108.7 0 80 28.7 80 64l0 80 48 0 0-80c0-8.8 7.2-16 16-16l181.5 0c4.2 0 8.3 1.7 11.3 4.7l42.5 42.5c3 3 4.7 7.1 4.7 11.3l0 37.5zM368 368l0 96-224 0 0-96 224 0zM128 320c-17.7 0-32 14.3-32 32l0 16-48 0 0-112c0-8.8 7.2-16 16-16l384 0c8.8 0 16 7.2 16 16l0 112-48 0 0-16c0-17.7-14.3-32-32-32l-256 0zm288 96l64 0c17.7 0 32-14.3 32-32l0-128c0-35.3-28.7-64-64-64L64 192c-35.3 0-64 28.7-64 64L0 384c0 17.7 14.3 32 32 32l64 0 0 64c0 17.7 14.3 32 32 32l256 0c17.7 0 32-14.3 32-32l0-64z"/>
    </symbol>
    <symbol viewBox="0 0 448 512" id="qrcode">
      <path fill="currentColor" d="M48 80l0 96 96 0 0-96-96 0zM0 80C0 53.5 21.5 32 48 32l96 0c26.5 0 48 21.5 48 48l0 96c0 26.5-21.5 48-48 48l-96 0c-26.5 0-48-21.5-48-48L0 80zM48 336l0 96 96 0 0-96-96 0zM0 336c0-26.5 21.5-48 48-48l96 0c26.5 0 48 21.5 48 48l0 96c0 26.5-21.5 48-48 48l-96 0c-26.5 0-48-21.5-48-48l0-96zM400 80l-96 0 0 96 96 0 0-96zM304 32l96 0c26.5 0 48 21.5 48 48l0 96c0 26.5-21.5 48-48 48l-96 0c-26.5 0-48-21.5-48-48l0-96c0-26.5 21.5-48 48-48zM288 352a32 32 0 1 1 0-64 32 32 0 1 1 0 64zm0 64c17.7 0 32 14.3 32 32s-14.3 32-32 32-32-14.3-32-32 14.3-32 32-32zm96 32c0-17.7 14.3-32 32-32s32 14.3 32 32-14.3 32-32 32-32-14.3-32-32zm32-96a32 32 0 1 1 0-64 32 32 0 1 1 0 64zm-32 32a32 32 0 1 1 -64 0 32 32 0 1 1 64 0z"/>
    </symbol>
    <symbol viewBox="0 0 512 512" id="right-to-bracket">
      <path fill="currentColor" d="M201 95L345 239c9.4 9.4 9.4 24.6 0 33.9L201 417c-6.9 6.9-17.2 8.9-26.2 5.2S160 409.7 160 400l0-64-112 0c-26.5 0-48-21.5-48-48l0-64c0-26.5 21.5-48 48-48l112 0 0-64c0-9.7 5.8-18.5 14.8-22.2S194.1 88.2 201 95zm7 217l0 30.1 86.1-86.1-86.1-86.1 0 30.1c0 13.3-10.7 24-24 24l-136 0 0 64 136 0c6.4 0 12.5 2.5 17 7s7 10.6 7 17zM344 432l72 0c26.5 0 48-21.5 48-48l0-256c0-26.5-21.5-48-48-48l-72 0c-13.3 0-24-10.7-24-24s10.7-24 24-24l72 0c53 0 96 43 96 96l0 256c0 53-43 96-96 96l-72 0c-13.3 0-24-10.7-24-24s10.7-24 24-24z"/>
    </symbol>
    <symbol viewBox="0 0 512 512" id="share-nodes">
      <path fill="currentColor" d="M432 96a48 48 0 1 0 -96 0 48 48 0 1 0 96 0zm48 0c0 53-43 96-96 96-27.4 0-52.1-11.5-69.6-29.9L188.9 231.8c2 7.7 3.1 15.8 3.1 24.2s-1.1 16.5-3.1 24.2l125.5 69.7c17.5-18.4 42.2-29.9 69.6-29.9 53 0 96 43 96 96s-43 96-96 96-96-43-96-96c0-8.3 1.1-16.5 3.1-24.2L165.6 322.1C148.1 340.5 123.4 352 96 352 43 352 0 309 0 256s43-96 96-96c27.4 0 52.1 11.5 69.6 29.9l125.5-69.7c-2-7.7-3.1-15.8-3.1-24.2 0-53 43-96 96-96s96 43 96 96zM144 256a48 48 0 1 0 -96 0 48 48 0 1 0 96 0zM384 464a48 48 0 1 0 0-96 48 48 0 1 0 0 96z"/>
    </symbol>
    <symbol viewBox="0 0 512 512" id="sitemap">
      <path fill="currentColor" d="M240 80l32 0 0 32-32 0 0-32zM224 32c-17.7 0-32 14.3-32 32l0 64c0 17.7 14.3 32 32 32l8 0 0 64-120 0c-39.8 0-72 32.2-72 72l0 56-8 0c-17.7 0-32 14.3-32 32l0 64c0 17.7 14.3 32 32 32l64 0c17.7 0 32-14.3 32-32l0-64c0-17.7-14.3-32-32-32l-8 0 0-56c0-13.3 10.7-24 24-24l120 0 0 80-8 0c-17.7 0-32 14.3-32 32l0 64c0 17.7 14.3 32 32 32l64 0c17.7 0 32-14.3 32-32l0-64c0-17.7-14.3-32-32-32l-8 0 0-80 120 0c13.3 0 24 10.7 24 24l0 56-8 0c-17.7 0-32 14.3-32 32l0 64c0 17.7 14.3 32 32 32l64 0c17.7 0 32-14.3 32-32l0-64c0-17.7-14.3-32-32-32l-8 0 0-56c0-39.8-32.2-72-72-72l-120 0 0-64 8 0c17.7 0 32-14.3 32-32l0-64c0-17.7-14.3-32-32-32l-64 0zM48 432l0-32 32 0 0 32-32 0zm192 0l0-32 32 0 0 32-32 0zm192 0l0-32 32 0 0 32-32 0z"/>
    </symbol>
    <symbol viewBox="0 0 512 512" id="store">
      <path fill="currentColor" d="M29.9 81.9C40.4 52 68.6 32 100.3 32l312.2 0c31.7 0 59.9 20 70.4 49.9l18.4 52.6c11 31.5 1 63.9-20.9 84.4l0 189.2c0 39.8-32.2 72-72 72l-304 0c-39.8 0-72-32.2-72-72l0-189.2C10.5 198.4 .5 166 11.5 134.5L29.9 81.9zM80.4 239.8l0 80.2 352 0 0-80.2c-2 .1-3.9 .2-5.9 .2-21.8 0-41.8-8.9-56.2-23.3-14.6 14.4-34.6 23.3-56.9 23.3-22.2 0-42.4-9-57-23.5-14.6 14.5-34.8 23.5-57 23.5-22.3 0-42.3-8.9-56.9-23.3-14.4 14.5-34.3 23.3-56.2 23.3-2 0-4-.1-6-.2zM174.1 80l-7.6 75.7c-1.9 19.4 13.3 36.3 32.8 36.3 18.2 0 33-14.8 33-33l0-79-58.3 0zm106.3 79c0 18.2 14.8 33 33 33 19.5 0 34.8-16.9 32.8-36.3l-7.6-75.7-58.3 0 0 79zm114.9 4.8c1.6 16 15.1 28.2 31.1 28.2 21.6 0 36.7-21.3 29.5-41.6L437.6 97.8C433.9 87.1 423.8 80 412.5 80l-25.6 0 8.4 83.8zM86.4 192c16.1 0 29.5-12.2 31.1-28.2l8.4-83.8-25.6 0C89 80 79 87.1 75.2 97.8L56.8 150.4c-7.1 20.4 8 41.6 29.5 41.6zm-6 216c0 13.3 10.7 24 24 24l304 0c13.3 0 24-10.7 24-24l0-40-352 0 0 40z"/>
    </symbol>
    <symbol viewBox="0 0 576 512" id="tape">
      <path fill="currentColor" d="M256 80a176 176 0 1 1 0 352 176 176 0 1 1 0-352zM394.6 432c52-41 85.4-104.6 85.4-176 0-123.7-100.3-224-224-224S32 132.3 32 256 132.3 480 256 480l296 0c13.3 0 24-10.7 24-24s-10.7-24-24-24l-157.4 0zM256 208a48 48 0 1 1 0 96 48 48 0 1 1 0-96zm0 144a96 96 0 1 0 0-192 96 96 0 1 0 0 192z"/>
    </symbol>
    <symbol viewBox="0 0 448 512" id="trash">
      <path fill="currentColor" d="M136.2 4.8c4.7-12.5 16.6-20.8 30-20.8l115.6 0c13.3 0 25.3 8.3 30 20.8L328 48 424 48c13.3 0 24 10.7 24 24s-10.7 24-24 24L24 96C10.7 96 0 85.3 0 72S10.7 48 24 48l96 0 16.2-43.2zm-84.6 448L28.7 144 76.9 144 99.5 449.2c.6 8.4 7.6 14.8 16 14.8l217.1 0c8.4 0 15.3-6.5 16-14.8l22.6-305.2 48.1 0-22.9 308.7c-2.5 33.4-30.3 59.3-63.8 59.3l-217.1 0c-33.5 0-61.3-25.9-63.8-59.3z"/>
    </symbol>
    <symbol viewBox="0 0 448 512" id="trash-can">
      <path fill="currentColor" d="M166.2-16c-13.3 0-25.3 8.3-30 20.8L120 48 24 48C10.7 48 0 58.7 0 72S10.7 96 24 96l400 0c13.3 0 24-10.7 24-24s-10.7-24-24-24l-96 0-16.2-43.2C307.1-7.7 295.2-16 281.8-16L166.2-16zM32 144l0 304c0 35.3 28.7 64 64 64l256 0c35.3 0 64-28.7 64-64l0-304-48 0 0 304c0 8.8-7.2 16-16 16L96 464c-8.8 0-16-7.2-16-16l0-304-48 0zm160 72c0-13.3-10.7-24-24-24s-24 10.7-24 24l0 176c0 13.3 10.7 24 24 24s24-10.7 24-24l0-176zm112 0c0-13.3-10.7-24-24-24s-24 10.7-24 24l0 176c0 13.3 10.7 24 24 24s24-10.7 24-24l0-176z"/>
    </symbol>
    <symbol viewBox="0 0 448 512" id="tree">
      <path fill="currentColor" d="M224.5-32c7 0 13.7 3.1 18.3 8.5l136 160c6.1 7.1 7.4 17.1 3.5 25.6-3.9 8.5-12.4 13.9-21.8 13.9l-24.9 0 75.2 88.5c6.1 7.1 7.4 17.1 3.5 25.6S401.8 304 392.5 304l-38.5 0 88.8 104.5c6.1 7.1 7.4 17.1 3.5 25.6S433.8 448 424.5 448l-176 0 0 72c0 13.3-10.7 24-24 24s-24-10.7-24-24l0-72-176 0c-9.4 0-17.9-5.4-21.8-13.9S.2 415.6 6.2 408.5L95 304 56.5 304c-9.4 0-17.9-5.4-21.8-13.9s-2.6-18.5 3.5-25.6l75.2-88.5-24.9 0c-9.4 0-17.9-5.4-21.8-13.9s-2.6-18.5 3.5-25.6l136-160 1.8-1.9c4.4-4.2 10.3-6.6 16.5-6.6zM140.4 128l24.9 0c9.3 0 17.9 5.5 21.8 13.9s2.5 18.5-3.5 25.6l-75.2 88.5 38.5 0c9.3 0 17.9 5.4 21.8 13.9s2.5 18.5-3.5 25.6L76.4 400 372.6 400 283.8 295.5c-6.1-7.1-7.4-17.1-3.5-25.6S292.7 256 302.1 256l38.5 0-75.2-88.5c-6-7.1-7.4-17.1-3.5-25.6S274.3 128 283.7 128l24.9 0-84.1-99-84.1 99z"/>
    </symbol>
    <symbol viewBox="0 0 576 512" id="truck">
      <path fill="currentColor" d="M64 80c-8.8 0-16 7.2-16 16l0 288c0 8.8 7.2 16 16 16l3.3 0c10.4-36.9 44.4-64 84.7-64s74.2 27.1 84.7 64l102.6 0c4.9-17.4 15.1-32.7 28.7-43.9L368 96c0-8.8-7.2-16-16-16L64 80zm3.3 368L64 448c-35.3 0-64-28.7-64-64L0 96C0 60.7 28.7 32 64 32l288 0c35.3 0 64 28.7 64 64l0 32 55.4 0c17 0 33.3 6.7 45.3 18.7l40.6 40.6c12 12 18.7 28.3 18.7 45.3L576 384c0 35.3-28.7 64-64 64l-3.3 0c-10.4 36.9-44.4 64-84.7 64s-74.2-27.1-84.7-64l-102.6 0c-10.4 36.9-44.4 64-84.7 64s-74.2-27.1-84.7-64zM416 256l112 0 0-23.4c0-4.2-1.7-8.3-4.7-11.3l-40.6-40.6c-3-3-7.1-4.7-11.3-4.7l-55.4 0 0 80zm0 48l0 32.4c2.6-.2 5.3-.4 8-.4 40.3 0 74.2 27.1 84.7 64l3.3 0c8.8 0 16-7.2 16-16l0-80-112 0zM152 464a40 40 0 1 0 0-80 40 40 0 1 0 0 80zm272 0a40 40 0 1 0 0-80 40 40 0 1 0 0 80z"/>
    </symbol>
    <symbol viewBox="0 0 448 512" id="user">
      <path fill="currentColor" d="M144 128a80 80 0 1 1 160 0 80 80 0 1 1 -160 0zm208 0a128 128 0 1 0 -256 0 128 128 0 1 0 256 0zM48 480c0-70.7 57.3-128 128-128l96 0c70.7 0 128 57.3 128 128l0 8c0 13.3 10.7 24 24 24s24-10.7 24-24l0-8c0-97.2-78.8-176-176-176l-96 0C78.8 304 0 382.8 0 480l0 8c0 13.3 10.7 24 24 24s24-10.7 24-24l0-8z"/>
    </symbol>
    <symbol viewBox="0 0 448 512" id="user-secret">
      <path fill="currentColor" d="M102.7 96c10.4-53.7 31.9-112 68.3-112 9.6 0 19 3.9 27.5 8.2 8.2 4.1 18.4 7.8 25.5 7.8s17.3-3.7 25.5-7.8c8.5-4.3 17.9-8.2 27.5-8.2 36.4 0 57.8 58.3 68.3 112L376 96c13.3 0 24 10.7 24 24s-10.7 24-24 24l-24 0 0 32c0 17-3.3 33.2-9.3 48l33.3 0c8.1 0 15.6 4 20 10.8s5.2 15.2 2.1 22.6l-31.5 74.2c48.9 31.2 81.4 86 81.4 148.5l0 8c0 13.3-10.7 24-24 24s-24-10.7-24-24l0-8c0-51.4-30.3-95.8-74.1-116.1-11.7-5.5-17-19.2-12-31.2l25.8-60.7-27.7 0c-1.1 0-2.1-.1-3.1-.2-22.6 20-52.3 32.2-84.9 32.2s-62.3-12.2-84.9-32.2c-1 .1-2.1 .2-3.1 .2l-27.7 0 25.8 60.7c5.1 11.9-.2 25.7-12 31.2-43.8 20.4-74.1 64.7-74.1 116.1l0 8c0 13.3-10.7 24-24 24S0 501.3 0 488l0-8c0-62.4 32.5-117.2 81.4-148.5L49.9 257.4c-3.2-7.4-2.4-15.9 2.1-22.6S63.9 224 72 224l33.3 0c-6-14.8-9.3-31-9.3-48l0-32-24 0c-13.3 0-24-10.7-24-24S58.7 96 72 96l30.7 0zm45.9 107c11.1 30.9 40.6 53 75.3 53s64.2-22.1 75.3-53c-5.7 3.2-12.3 5-19.3 5l-12.4 0c-16.5 0-31.1-10.6-36.3-26.2-2.3-7-12.2-7-14.5 0-5.2 15.6-19.9 26.2-36.3 26.2L168 208c-7 0-13.6-1.8-19.3-5zm44.8 133l61 0c9.7 0 17.5 7.8 17.5 17.5 0 4.2-1.5 8.2-4.2 11.4l-27.9 32.5 28.9 82.6c5.5 15.6-6.1 31.9-22.7 31.9l-44.3 0c-16.5 0-28.1-16.3-22.7-31.9l28.9-82.6-27.9-32.5c-2.7-3.2-4.2-7.2-4.2-11.4 0-9.7 7.8-17.5 17.5-17.5z"/>
    </symbol>
    <symbol viewBox="0 0 640 512" id="users">
      <path fill="currentColor" d="M320 192a64 64 0 1 0 0-128 64 64 0 1 0 0 128zm0-176a112 112 0 1 1 0 224 112 112 0 1 1 0-224zM296 336c-57.4 0-104 46.6-104 104l0 16c0 13.3-10.7 24-24 24s-24-10.7-24-24l0-16c0-83.9 68.1-152 152-152l48 0c83.9 0 152 68.1 152 152l0 16c0 13.3-10.7 24-24 24s-24-10.7-24-24l0-16c0-57.4-46.6-104-104-104l-48 0zm135.4-93.2c11.7-11.3 21.6-24.4 29.4-38.8 5.9 2.6 12.4 4 19.2 4 26.5 0 48-21.5 48-48s-21.5-48-48-48l-.8 0c-1.6-16.6-5.8-32.4-12.1-47.1 4.2-.6 8.6-.9 12.9-.9 53 0 96 43 96 96s-43 96-96 96c-17.7 0-34.3-4.8-48.6-13.2zM160 64c4.4 0 8.7 .3 12.9 .9-6.3 14.7-10.5 30.6-12.1 47.1l-.8 0c-26.5 0-48 21.5-48 48s21.5 48 48 48c6.8 0 13.3-1.4 19.2-4 7.8 14.4 17.7 27.5 29.4 38.8-14.2 8.4-30.8 13.2-48.6 13.2-53 0-96-43-96-96s43-96 96-96zM149.3 304c-15.1 16.3-27.5 35-36.5 55.6-38 15.5-64.8 52.8-64.8 96.4 0 13.3-10.7 24-24 24S0 469.3 0 456c0-83.1 66.6-150.6 149.3-152zm377.9 55.6c-9-20.6-21.5-39.4-36.5-55.6 82.7 1.4 149.3 68.9 149.3 152 0 13.3-10.7 24-24 24s-24-10.7-24-24c0-43.6-26.8-80.9-64.8-96.4z"/>
    </symbol>
    <symbol viewBox="0 0 512 512" id="vial">
      <path fill="currentColor" d="M329 7c-9.4-9.4-24.6-9.4-33.9 0s-9.4 24.6 0 33.9l15 15-279.8 279.8c-19.4 19.4-30.2 45.6-30.2 73 0 57 46.2 103.2 103.2 103.2 27.4 0 53.6-10.9 73-30.2L456 201.9 471 217c9.4 9.4 24.6 9.4 33.9 0s9.4-24.6 0-33.9L361 39 329 7zm-151 249l166.1-166.1 78.1 78.1-88 88-156.1 0zm-48 48l156.1 0-143.8 143.8c-10.4 10.4-24.4 16.2-39 16.2-30.5 0-55.2-24.7-55.2-55.2 0-14.6 5.8-28.7 16.2-39L129.9 304z"/>
    </symbol>
  </defs>
</svg>
