<svg xmlns="http://www.w3.org/2000/svg" style="display: none">
  <defs>
    <symbol viewBox="0 0 256 512" id="angle-left">
      <path fill="currentColor" d="M15.5 239c-9.4 9.4-9.4 24.6 0 33.9l160 160c9.4 9.4 24.6 9.4 33.9 0s9.4-24.6 0-33.9l-143-143 143-143c9.4-9.4 9.4-24.6 0-33.9s-24.6-9.4-33.9 0L15.5 239z"/>
    </symbol>
    <symbol viewBox="0 0 256 512" id="angle-right">
      <path fill="currentColor" d="M241.5 239c9.4 9.4 9.4 24.6 0 33.9L81.5 433c-9.4 9.4-24.6 9.4-33.9 0s-9.4-24.6 0-33.9l143-143-143-143c-9.4-9.4-9.4-24.6 0-33.9s24.6-9.4 33.9 0l160 160z"/>
    </symbol>
    <symbol viewBox="0 0 384 512" id="arrow-down">
      <path fill="currentColor" d="M175.5 505c9.4 9.4 24.6 9.4 33.9 0l168-168c9.4-9.4 9.4-24.6 0-33.9s-24.6-9.4-33.9 0l-127 127 0-406.1c0-13.3-10.7-24-24-24s-24 10.7-24 24l0 406.1-127-127c-9.4-9.4-24.6-9.4-33.9 0s-9.4 24.6 0 33.9l168 168z"/>
    </symbol>
    <symbol viewBox="0 0 512 512" id="arrow-left">
      <path fill="currentColor" d="M7 239c-9.4 9.4-9.4 24.6 0 33.9L175 441c9.4 9.4 24.6 9.4 33.9 0s9.4-24.6 0-33.9L81.9 280 488 280c13.3 0 24-10.7 24-24s-10.7-24-24-24L81.9 232 209 105c9.4-9.4 9.4-24.6 0-33.9s-24.6-9.4-33.9 0L7 239z"/>
    </symbol>
    <symbol viewBox="0 0 512 512" id="arrow-right">
      <path fill="currentColor" d="M505 273c9.4-9.4 9.4-24.6 0-33.9L337 71c-9.4-9.4-24.6-9.4-33.9 0s-9.4 24.6 0 33.9l127 127-406.1 0c-13.3 0-24 10.7-24 24s10.7 24 24 24l406.1 0-127 127c-9.4 9.4-9.4 24.6 0 33.9s24.6 9.4 33.9 0L505 273z"/>
    </symbol>
    <symbol viewBox="0 0 384 512" id="arrow-up">
      <path fill="currentColor" d="M209.5 15c-9.4-9.4-24.6-9.4-33.9 0L7.5 183c-9.4 9.4-9.4 24.6 0 33.9s24.6 9.4 33.9 0l127-127 0 406.1c0 13.3 10.7 24 24 24s24-10.7 24-24l0-406.1 127 127c9.4 9.4 24.6 9.4 33.9 0s9.4-24.6 0-33.9L209.5 15z"/>
    </symbol>
    <symbol viewBox="0 0 512 512" id="backward-fast">
      <path fill="currentColor" d="M240 102.6L240 409.4 86.6 256 240 102.6zm-6.6 368c9.2 9.2 22.9 11.9 34.9 6.9S288 460.9 288 448l0-146.7 169.4 169.4c9.2 9.2 22.9 11.9 34.9 6.9S512 460.9 512 448l0-384c0-12.9-7.8-24.6-19.8-29.6s-25.7-2.2-34.9 6.9L288 210.7 288 64c0-12.9-7.8-24.6-19.8-29.6s-25.7-2.2-34.9 6.9L48 226.7 48 56c0-13.3-10.7-24-24-24S0 42.7 0 56L0 456c0 13.3 10.7 24 24 24s24-10.7 24-24l0-170.7 185.4 185.4zM310.6 256L464 102.6 464 409.4 310.6 256z"/>
    </symbol>
    <symbol viewBox="0 0 384 512" id="backward-step">
      <path fill="currentColor" d="M78.6 256L336 425.2 336 86.8 78.6 256zM363 475.2c-12.9 7-28.7 6.3-41-1.8L48 293.4 48 456c0 13.3-10.7 24-24 24S0 469.3 0 456L0 56C0 42.7 10.7 32 24 32S48 42.7 48 56L48 218.7 322 38.6c12.3-8.1 28-8.8 41-1.8S384 57.3 384 72l0 368c0 14.7-8.1 28.2-21 35.2z"/>
    </symbol>
    <symbol viewBox="0 0 448 512" id="bag-shopping">
      <path fill="currentColor" d="M160 80l0 48 128 0 0-48c0-35.3-28.7-64-64-64s-64 28.7-64 64zm-48 96l-64 0 0 208c0 26.5 21.5 48 48 48l256 0c26.5 0 48-21.5 48-48l0-208-64 0 0 56c0 13.3-10.7 24-24 24s-24-10.7-24-24l0-56-128 0 0 56c0 13.3-10.7 24-24 24s-24-10.7-24-24l0-56zm0-48l0-48c0-61.9 50.1-112 112-112S336 18.1 336 80l0 48 64 0c26.5 0 48 21.5 48 48l0 208c0 53-43 96-96 96L96 480c-53 0-96-43-96-96L0 176c0-26.5 21.5-48 48-48l64 0z"/>
    </symbol>
    <symbol viewBox="0 0 448 512" id="bars">
      <path fill="currentColor" d="M0 88C0 74.7 10.7 64 24 64l400 0c13.3 0 24 10.7 24 24s-10.7 24-24 24L24 112C10.7 112 0 101.3 0 88zM0 256c0-13.3 10.7-24 24-24l400 0c13.3 0 24 10.7 24 24s-10.7 24-24 24L24 280c-13.3 0-24-10.7-24-24zM448 424c0 13.3-10.7 24-24 24L24 448c-13.3 0-24-10.7-24-24s10.7-24 24-24l400 0c13.3 0 24 10.7 24 24z"/>
    </symbol>
    <symbol viewBox="0 0 448 512" id="bell">
      <path fill="currentColor" d="M224 0c-13.3 0-24 10.7-24 24l0 9.7C118.6 45.3 56 115.4 56 200l0 14.5c0 37.7-10 74.7-29 107.3L5.1 359.2C1.8 365 0 371.5 0 378.2 0 399.1 16.9 416 37.8 416l372.4 0c20.9 0 37.8-16.9 37.8-37.8 0-6.7-1.8-13.3-5.1-19L421 321.7c-19-32.6-29-69.6-29-107.3l0-14.5c0-84.6-62.6-154.7-144-166.3l0-9.7c0-13.3-10.7-24-24-24zM392.4 368l-336.9 0 12.9-22.1C91.7 306 104 260.6 104 214.5l0-14.5c0-66.3 53.7-120 120-120s120 53.7 120 120l0 14.5c0 46.2 12.3 91.5 35.5 131.4L392.4 368zM156.1 464c9.9 28 36.6 48 67.9 48s58-20 67.9-48l-135.8 0z"/>
    </symbol>
    <symbol viewBox="0 0 320 512" id="bluetooth">
      <path fill="currentColor" d="M150.1 2.1c8.6-3.9 18.7-2.4 25.7 3.9l136 120c5.3 4.7 8.2 11.4 8.1 18.4s-3.3 13.6-8.7 18.1L197.8 256 311.3 349.5c5.4 4.5 8.6 11.1 8.7 18.1s-2.8 13.8-8.1 18.4l-136 120c-7.1 6.2-17.1 7.8-25.7 3.9S136 497.4 136 488l0-181.1-96.7 79.7c-10.2 8.4-25.4 7-33.8-3.3s-7-25.4 3.3-33.8L122.2 256 8.7 162.5C-1.5 154.1-3 139 5.5 128.7S29 117 39.3 125.5L136 205.1 136 24c0-9.4 5.5-18 14.1-21.9zM184 306.9l0 128 75-66.2-75-61.8zm0-101.7l75-61.8-75-66.2 0 128z"/>
    </symbol>
    <symbol viewBox="0 0 448 512" id="bolt">
      <path fill="currentColor" d="M341.2-12.1c9.1 6 13 17.3 9.6 27.6L292 192 412.9 192c19.4 0 35.1 15.7 35.1 35.1 0 10-4.2 19.5-11.7 26.1L136 521.9c-8.1 7.3-20.1 8.2-29.2 2.2s-13-17.3-9.6-27.6L156 320 35.1 320C15.7 320 0 304.3 0 284.9 0 275 4.2 265.5 11.7 258.8L312-9.9c8.1-7.3 20.1-8.1 29.2-2.2zM68.9 272l120.4 0c7.7 0 15 3.7 19.5 10s5.7 14.3 3.3 21.6L171.3 425.9 379.1 240 258.7 240c-7.7 0-15-3.7-19.5-10s-5.7-14.3-3.3-21.6L276.7 86.1 68.9 272z"/>
    </symbol>
    <symbol viewBox="0 0 512 512" id="box-archive">
      <path fill="currentColor" d="M464 80l0 64-416 0 0-64 416 0zM0 144c0 20.9 13.4 38.7 32 45.3L32 416c0 35.3 28.7 64 64 64l320 0c35.3 0 64-28.7 64-64l0-226.7c18.6-6.6 32-24.4 32-45.3l0-64c0-26.5-21.5-48-48-48L48 32C21.5 32 0 53.5 0 80l0 64zM80 416l0-224 352 0 0 224c0 8.8-7.2 16-16 16L96 432c-8.8 0-16-7.2-16-16zM184 240c-13.3 0-24 10.7-24 24s10.7 24 24 24l144 0c13.3 0 24-10.7 24-24s-10.7-24-24-24l-144 0z"/>
    </symbol>
    <symbol viewBox="0 0 576 512" id="boxes-packing">
      <path fill="currentColor" d="M432 48l48 0c8.8 0 16 7.2 16 16l0 384c0 8.8-7.2 16-16 16l-81.1 0c-2.5 17.7-9.2 34-18.9 48L480 512c35.3 0 64-28.7 64-64l0-384c0-35.3-28.7-64-64-64L224 0c-35.3 0-64 28.7-64 64l0 80 48 0 0-80c0-8.8 7.2-16 16-16l48 0 0 72c0 13.3 10.7 24 24 24l112 0c13.3 0 24-10.7 24-24l0-72zm-48 0l0 48-64 0 0-48 64 0zM304 448c0 8.8-7.2 16-16 16L96 464c-8.8 0-16-7.2-16-16l0-112 224 0 0 112zM32 323.8L32 448c0 35.3 28.7 64 64 64l192 0c35.3 0 64-28.7 64-64l0-124.2c9.8-8.8 16-21.6 16-35.8l0-48c0-26.5-21.5-48-48-48L64 192c-26.5 0-48 21.5-48 48l0 48c0 14.2 6.2 27 16 35.8zM64 288l0-48 256 0 0 48-256 0z"/>
    </symbol>
    <symbol viewBox="0 0 384 512" id="building">
      <path fill="currentColor" d="M64 48c-8.8 0-16 7.2-16 16l0 384c0 8.8 7.2 16 16 16l80 0 0-80c0-17.7 14.3-32 32-32l32 0c17.7 0 32 14.3 32 32l0 80 80 0c8.8 0 16-7.2 16-16l0-384c0-8.8-7.2-16-16-16L64 48zM0 64C0 28.7 28.7 0 64 0L320 0c35.3 0 64 28.7 64 64l0 384c0 35.3-28.7 64-64 64L64 512c-35.3 0-64-28.7-64-64L0 64zm96 48c0-8.8 7.2-16 16-16l32 0c8.8 0 16 7.2 16 16l0 32c0 8.8-7.2 16-16 16l-32 0c-8.8 0-16-7.2-16-16l0-32zM240 96l32 0c8.8 0 16 7.2 16 16l0 32c0 8.8-7.2 16-16 16l-32 0c-8.8 0-16-7.2-16-16l0-32c0-8.8 7.2-16 16-16zM96 240c0-8.8 7.2-16 16-16l32 0c8.8 0 16 7.2 16 16l0 32c0 8.8-7.2 16-16 16l-32 0c-8.8 0-16-7.2-16-16l0-32zm144-16l32 0c8.8 0 16 7.2 16 16l0 32c0 8.8-7.2 16-16 16l-32 0c-8.8 0-16-7.2-16-16l0-32c0-8.8 7.2-16 16-16z"/>
    </symbol>
    <symbol viewBox="0 0 640 512" id="building-flag">
      <path fill="currentColor" d="M64 48c-8.8 0-16 7.2-16 16l0 384c0 8.8 7.2 16 16 16l80 0 0-80c0-17.7 14.3-32 32-32l32 0c17.7 0 32 14.3 32 32l0 80 80 0c8.8 0 16-7.2 16-16l0-384c0-8.8-7.2-16-16-16L64 48zM0 64C0 28.7 28.7 0 64 0L320 0c35.3 0 64 28.7 64 64l0 384c0 35.3-28.7 64-64 64L64 512c-35.3 0-64-28.7-64-64L0 64zm96 48c0-8.8 7.2-16 16-16l32 0c8.8 0 16 7.2 16 16l0 32c0 8.8-7.2 16-16 16l-32 0c-8.8 0-16-7.2-16-16l0-32zM240 96l32 0c8.8 0 16 7.2 16 16l0 32c0 8.8-7.2 16-16 16l-32 0c-8.8 0-16-7.2-16-16l0-32c0-8.8 7.2-16 16-16zM96 240c0-8.8 7.2-16 16-16l32 0c8.8 0 16 7.2 16 16l0 32c0 8.8-7.2 16-16 16l-32 0c-8.8 0-16-7.2-16-16l0-32zm144-16l32 0c8.8 0 16 7.2 16 16l0 32c0 8.8-7.2 16-16 16l-32 0c-8.8 0-16-7.2-16-16l0-32c0-8.8 7.2-16 16-16zM456 0c13.3 0 24 10.7 24 24l0 8 128 0c17.7 0 32 14.3 32 32l0 96c0 17.7-14.3 32-32 32l-128 0 0 296c0 13.3-10.7 24-24 24s-24-10.7-24-24l0-464c0-13.3 10.7-24 24-24z"/>
    </symbol>
    <symbol viewBox="0 0 512 512" id="cards-blank">
      <path fill="currentColor" d="M454.7 64.4c32.3 3.3 57.5 30.5 57.5 63.7l0 320-.3 6.5c-3.1 30.1-27 54.1-57.1 57.1l-6.5 .3-192 0-6.5-.3c-12.1-1.2-23.1-5.9-32.2-12.8l130-34.8 100.8 0c8.8 0 16-7.2 16-16l0-320c0-8.8-7.2-16-16-16l-70.7 0-12.8-48 83.5 0 6.5 .3zM233.3-18.6c32-5.2 63.4 14.6 72 46.6l82.8 309.1 1.4 6.4c4.8 29.9-12.1 59.2-40.4 70l-6.2 2-185.5 49.7-6.4 1.3c-29.9 4.8-59.2-12.1-70-40.4l-2-6.2-82.8-309.1c-8.6-32 8.7-64.8 39-76.3l6.2-2 185.5-49.7 6.4-1.4zm6 47.8L53.9 78.9c-8.5 2.3-13.6 11.1-11.3 19.6l82.8 309.1c2.3 8.5 11.1 13.6 19.6 11.3l185.4-49.7c8.5-2.3 13.6-11.1 11.3-19.6L258.9 40.5c-2.3-8.5-11.1-13.6-19.6-11.3z"/>
    </symbol>
    <symbol viewBox="0 0 384 512" id="caret-down">
      <path fill="currentColor" d="M313.4 208L192 329.4 70.6 208 313.4 208zm68.2-28.2c-5-12-16.6-19.8-29.6-19.8L32 160c-12.9 0-24.6 7.8-29.6 19.8S.2 205.5 9.4 214.6l160 160c12.5 12.5 32.8 12.5 45.3 0l160-160c9.2-9.2 11.9-22.9 6.9-34.9z"/>
    </symbol>
    <symbol viewBox="0 0 256 512" id="caret-right">
      <path fill="currentColor" d="M80.5 134.6L201.9 256 80.5 377.4 80.5 134.6zM52.3 66.4c-12 5-19.8 16.6-19.8 29.6l0 320c0 12.9 7.8 24.6 19.8 29.6s25.7 2.2 34.9-6.9l160-160c12.5-12.5 12.5-32.8 0-45.3l-160-160C78 64.2 64.2 61.5 52.3 66.4z"/>
    </symbol>
    <symbol viewBox="0 0 640 512" id="cart-plus">
      <path fill="currentColor" d="M0 8C0-5.3 10.7-16 24-16l45.3 0c27.1 0 50.3 19.4 55.1 46l38.2 210 309.8 0c11.5 0 21.4-8.2 23.6-19.5L528.4 51.5c2.5-13 15.1-21.5 28.1-19s21.5 15.1 19 28.1L543.1 229.6c-6.5 33.9-36.2 58.4-70.7 58.4l-301 0 5.1 28.3c2.1 11.4 12 19.7 23.6 19.7L456 336c13.3 0 24 10.7 24 24s-10.7 24-24 24l-255.9 0c-34.8 0-64.6-24.9-70.8-59.1L77.2 38.6c-.7-3.8-4-6.6-7.9-6.6L24 32C10.7 32 0 21.3 0 8zM160 464a48 48 0 1 1 96 0 48 48 0 1 1 -96 0zm224 0a48 48 0 1 1 96 0 48 48 0 1 1 -96 0zM320 0c13.3 0 24 10.7 24 24l0 48 48 0c13.3 0 24 10.7 24 24s-10.7 24-24 24l-48 0 0 48c0 13.3-10.7 24-24 24s-24-10.7-24-24l0-48-48 0c-13.3 0-24-10.7-24-24s10.7-24 24-24l48 0 0-48c0-13.3 10.7-24 24-24z"/>
    </symbol>
    <symbol viewBox="0 0 640 512" id="cart-shopping">
      <path fill="currentColor" d="M0 8C0-5.3 10.7-16 24-16l45.3 0c27.1 0 50.3 19.4 55.1 46l.4 2 399.9 0c25.1 0 44 22.9 39.3 47.6L537.6 216.6c-8 41.4-44.2 71.4-86.4 71.4l-279.8 0 5.1 28.3c2.1 11.4 12 19.7 23.6 19.7L456 336c13.3 0 24 10.7 24 24s-10.7 24-24 24l-255.9 0c-34.8 0-64.6-24.9-70.8-59.1L77.2 38.6c-.7-3.8-4-6.6-7.9-6.6L24 32C10.7 32 0 21.3 0 8zM162.6 240l288.6 0c19.2 0 35.7-13.6 39.3-32.4L514.9 80 133.5 80 162.6 240zM208 416a48 48 0 1 1 0 96 48 48 0 1 1 0-96zm224 0a48 48 0 1 1 0 96 48 48 0 1 1 0-96z"/>
    </symbol>
    <symbol viewBox="0 0 512 512" id="cash-register">
      <path fill="currentColor" d="M96 0C60.7 0 32 28.7 32 64s28.7 64 64 64l48 0 0 32-56.5 0c-31.8 0-58.9 23.4-63.4 54.9L.6 379.5c-.4 3-.6 6-.6 9L0 448c0 35.3 28.7 64 64 64l384 0c35.3 0 64-28.7 64-64l0-59.5c0-3-.2-6.1-.6-9L487.8 214.9c-4.5-31.5-31.5-54.9-63.4-54.9l-216.5 0 0-32 48 0c35.3 0 64-28.7 64-64S291.3 0 256 0L96 0zm0 48l160 0c8.8 0 16 7.2 16 16s-7.2 16-16 16L96 80c-8.8 0-16-7.2-16-16s7.2-16 16-16zM48 448l0-16 416 0 0 16c0 8.8-7.2 16-16 16L64 464c-8.8 0-16-7.2-16-16zM440.3 221.7l23.2 162.3-415 0 23.2-162.3c1.1-7.9 7.9-13.7 15.8-13.7l337 0c8 0 14.7 5.9 15.8 13.7zM112 232a24 24 0 1 0 0 48 24 24 0 1 0 0-48zm72 24a24 24 0 1 0 48 0 24 24 0 1 0 -48 0zm-24 56a24 24 0 1 0 0 48 24 24 0 1 0 0-48zm120-56a24 24 0 1 0 48 0 24 24 0 1 0 -48 0zm-24 56a24 24 0 1 0 0 48 24 24 0 1 0 0-48zm120-56a24 24 0 1 0 48 0 24 24 0 1 0 -48 0zm-24 56a24 24 0 1 0 0 48 24 24 0 1 0 0-48z"/>
    </symbol>
    <symbol viewBox="0 0 576 512" id="certificate">
      <path fill="currentColor" d="M215.8-14.5c8.4-2.2 17.3 .2 23.4 6.4L288.3 42.4 337.3-8c6.1-6.2 15-8.7 23.4-6.4s14.9 8.9 17.1 17.3L395.1 71 462.8 51.9c8.4-2.4 17.4 0 23.5 6.1s8.5 15.1 6.1 23.5l-19.1 67.7 68.2 17.3c8.4 2.1 15 8.7 17.3 17.1s-.2 17.3-6.4 23.4l-50.4 49.1 50.4 49.1c6.2 6.1 8.7 15 6.4 23.4s-8.9 14.9-17.3 17.1l-68.2 17.3 19.1 67.7c2.4 8.4 0 17.4-6.1 23.5s-15.1 8.5-23.5 6.1l-67.7-19.1-17.3 68.2c-2.1 8.4-8.7 15-17.1 17.3s-17.3-.2-23.4-6.4l-49.1-50.4-49.1 50.4c-6.1 6.2-15 8.7-23.4 6.4s-14.9-8.9-17.1-17.3l-17.3-68.2-67.7 19.1c-8.4 2.4-17.4 0-23.5-6.1s-8.5-15.1-6.1-23.5l19.1-67.7-68.2-17.3c-8.4-2.1-15-8.7-17.3-17.1s.2-17.4 6.4-23.4L74.7 256 24.3 206.9c-6.2-6.1-8.7-15-6.4-23.4s8.9-14.9 17.3-17.1l68.2-17.3-19.1-67.7c-2.4-8.4 0-17.4 6.1-23.5s15.1-8.5 23.5-6.1L181.5 71 198.8 2.8c2.1-8.4 8.7-15 17.1-17.3zm18.9 70.7l-12.8 50.5c-1.6 6.3-5.7 11.6-11.3 14.9s-12.3 4.1-18.5 2.3l-50.1-14.2 14.2 50.1c1.8 6.2 .9 12.9-2.3 18.5s-8.6 9.7-14.9 11.3l-50.5 12.8 37.3 36.3c4.6 4.5 7.3 10.7 7.3 17.2s-2.6 12.7-7.3 17.2L88.5 309.5 139 322.3c6.3 1.6 11.6 5.7 14.9 11.3s4.1 12.3 2.3 18.5l-14.2 50.1 50.1-14.2c6.2-1.8 12.9-.9 18.5 2.3s9.7 8.6 11.3 14.9l12.8 50.5 36.3-37.3c4.5-4.6 10.7-7.3 17.2-7.3s12.7 2.6 17.2 7.3l36.3 37.3 12.8-50.5c1.6-6.3 5.7-11.7 11.3-14.9s12.3-4.1 18.5-2.3l50.1 14.2-14.2-50.1c-1.8-6.2-.9-12.9 2.3-18.5s8.6-9.7 14.9-11.3l50.5-12.8-37.3-36.3c-4.6-4.5-7.3-10.7-7.3-17.2s2.6-12.7 7.3-17.2l37.3-36.3-50.5-12.8c-6.3-1.6-11.6-5.7-14.9-11.3s-4.1-12.3-2.3-18.5l14.2-50.1-50.1 14.2c-6.2 1.8-12.9 .9-18.5-2.3s-9.7-8.6-11.3-14.9l-12.8-50.5-36.3 37.3c-4.5 4.6-10.7 7.3-17.2 7.3s-12.7-2.6-17.2-7.3L234.7 56.2z"/>
    </symbol>
    <symbol viewBox="0 0 448 512" id="chair">
      <path fill="currentColor" d="M224 0C135.6 0 64 71.6 64 160l0 96-16 0c-26.5 0-48 21.5-48 48l0 48c0 20.9 13.4 38.7 32 45.3L32 488c0 13.3 10.7 24 24 24s24-10.7 24-24l0-88 288 0 0 88c0 13.3 10.7 24 24 24s24-10.7 24-24l0-90.7c18.6-6.6 32-24.4 32-45.3l0-48c0-26.5-21.5-48-48-48l-16 0 0-96C384 71.6 312.4 0 224 0zM336 256l-40 0 0-181.8c24.5 20.5 40 51.4 40 85.8l0 96zM248 50.6l0 205.4-48 0 0-205.4c7.7-1.7 15.8-2.6 24-2.6s16.3 .9 24 2.6zM152 74.2l0 181.8-40 0 0-96c0-34.4 15.5-65.2 40-85.8zM48 352l0-48 352 0 0 48-352 0z"/>
    </symbol>
    <symbol viewBox="0 0 640 512" id="chalkboard-user">
      <path fill="currentColor" d="M192 80l352 0c8.8 0 16 7.2 16 16l0 288c0 8.8-7.2 16-16 16l-32 0 0-16c0-17.7-14.3-32-32-32l-96 0c-17.7 0-32 14.3-32 32l0 16-38.9 0c9.4 14.4 16.3 30.6 19.9 48l211 0c35.3 0 64-28.7 64-64l0-288c0-35.3-28.7-64-64-64L192 32c-35.3 0-64 28.7-64 64l0 49c5.2-.7 10.6-1 16-1 11 0 21.8 1.4 32 4l0-52c0-8.8 7.2-16 16-16zM144 352a80 80 0 1 0 0-160 80 80 0 1 0 0 160zM96 384c-53 0-96 43-96 96 0 17.7 14.3 32 32 32l224 0c17.7 0 32-14.3 32-32 0-53-43-96-96-96l-96 0z"/>
    </symbol>
    <symbol viewBox="0 0 512 512" id="chart-bar">
      <path fill="currentColor" d="M48 56c0-13.3-10.7-24-24-24S0 42.7 0 56L0 400c0 44.2 35.8 80 80 80l408 0c13.3 0 24-10.7 24-24s-10.7-24-24-24L80 432c-17.7 0-32-14.3-32-32L48 56zm104 72l208 0c13.3 0 24-10.7 24-24s-10.7-24-24-24L152 80c-13.3 0-24 10.7-24 24s10.7 24 24 24zm0 64c-13.3 0-24 10.7-24 24s10.7 24 24 24l144 0c13.3 0 24-10.7 24-24s-10.7-24-24-24l-144 0zm0 112c-13.3 0-24 10.7-24 24s10.7 24 24 24l272 0c13.3 0 24-10.7 24-24s-10.7-24-24-24l-272 0z"/>
    </symbol>
    <symbol viewBox="0 0 512 512" id="chart-line">
      <path fill="currentColor" d="M48 56c0-13.3-10.7-24-24-24S0 42.7 0 56L0 400c0 44.2 35.8 80 80 80l408 0c13.3 0 24-10.7 24-24s-10.7-24-24-24L80 432c-17.7 0-32-14.3-32-32L48 56zM473 169c9.4-9.4 9.4-24.6 0-33.9s-24.6-9.4-33.9 0l-119 119-79-79c-9.4-9.4-24.6-9.4-33.9 0L103 279c-9.4 9.4-9.4 24.6 0 33.9s24.6 9.4 33.9 0l87-87 79 79c9.4 9.4 24.6 9.4 33.9 0L473 169z"/>
    </symbol>
    <symbol viewBox="0 0 448 512" id="check">
      <path fill="currentColor" d="M438 68.5c10.8 7.7 13.2 22.7 5.5 33.5l-264 368c-4.1 5.7-10.5 9.4-17.5 9.9S148 478 143 473L7 337c-9.4-9.4-9.4-24.6 0-33.9s24.6-9.4 33.9 0L157 419 404.5 74c7.7-10.8 22.7-13.2 33.5-5.5z"/>
    </symbol>
    <symbol viewBox="0 0 384 512" id="check-double">
      <path fill="currentColor" d="M247.5 58c7.7-10.8 5.3-25.8-5.5-33.5s-25.8-5.3-33.5 5.5L93 191 45 143c-9.4-9.4-24.6-9.4-33.9 0S1.7 167.6 11 177l68 68c5 5 11.9 7.5 18.9 6.9s13.4-4.2 17.5-9.9l132-184zm130 134c7.7-10.8 5.3-25.8-5.5-33.5s-25.8-5.3-33.5 5.5L157 417 75 335c-9.4-9.4-24.6-9.4-33.9 0s-9.4 24.6 0 33.9L143 471c5 5 11.9 7.5 18.9 7s13.4-4.2 17.5-9.9l198-276z"/>
    </symbol>
    <symbol viewBox="0 0 320 512" id="chevron-right">
      <path fill="currentColor" d="M313.5 239c9.4 9.4 9.4 24.6 0 33.9l-200 200c-9.4 9.4-24.6 9.4-33.9 0s-9.4-24.6 0-33.9l183-183-183-183c-9.4-9.4-9.4-24.6 0-33.9s24.6-9.4 33.9 0l200 200z"/>
    </symbol>
    <symbol viewBox="0 0 576 512" id="circle-dollar-to-slot">
      <path fill="currentColor" d="M288 80a144 144 0 1 1 0 288 144 144 0 1 1 0-288zm0 336a192 192 0 1 0 0-384 192 192 0 1 0 0 384zM24 320c-13.3 0-24 10.7-24 24L0 448c0 35.3 28.7 64 64 64l448 0c35.3 0 64-28.7 64-64l0-104c0-13.3-10.7-24-24-24s-24 10.7-24 24l0 104c0 8.8-7.2 16-16 16L64 464c-8.8 0-16-7.2-16-16l0-104c0-13.3-10.7-24-24-24zM292 112c-11 0-20 9-20 20l0 4c-28.8 .3-52 23.7-52 52.5 0 25.7 18.5 47.6 43.9 51.8l41.7 7c6 1 10.4 6.2 10.4 12.3 0 6.9-5.6 12.5-12.5 12.5L248 272c-11 0-20 9-20 20s9 20 20 20l24 0 0 4c0 11 9 20 20 20s20-9 20-20l0-4.7c25-4.1 44-25.7 44-51.8 0-25.7-18.5-47.6-43.9-51.8l-41.7-7c-6-1-10.4-6.2-10.4-12.3 0-6.9 5.6-12.5 12.5-12.5l47.5 0c11 0 20-9 20-20s-9-20-20-20l-8 0 0-4c0-11-9-20-20-20z"/>
    </symbol>
    <symbol viewBox="0 0 512 512" id="circle-info">
      <path fill="currentColor" d="M256 48a208 208 0 1 1 0 416 208 208 0 1 1 0-416zm0 464a256 256 0 1 0 0-512 256 256 0 1 0 0 512zM216 336c-13.3 0-24 10.7-24 24s10.7 24 24 24l80 0c13.3 0 24-10.7 24-24s-10.7-24-24-24l-8 0 0-88c0-13.3-10.7-24-24-24l-48 0c-13.3 0-24 10.7-24 24s10.7 24 24 24l24 0 0 64-24 0zm40-144a32 32 0 1 0 0-64 32 32 0 1 0 0 64z"/>
    </symbol>
    <symbol viewBox="0 0 512 512" id="circle-minus">
      <path fill="currentColor" d="M256 48a208 208 0 1 1 0 416 208 208 0 1 1 0-416zm0 464a256 256 0 1 0 0-512 256 256 0 1 0 0 512zM168 232c-13.3 0-24 10.7-24 24s10.7 24 24 24l176 0c13.3 0 24-10.7 24-24s-10.7-24-24-24l-176 0z"/>
    </symbol>
    <symbol viewBox="0 0 512 512" id="circle-plus">
      <path fill="currentColor" d="M256 48a208 208 0 1 1 0 416 208 208 0 1 1 0-416zm0 464a256 256 0 1 0 0-512 256 256 0 1 0 0 512zM232 344c0 13.3 10.7 24 24 24s24-10.7 24-24l0-64 64 0c13.3 0 24-10.7 24-24s-10.7-24-24-24l-64 0 0-64c0-13.3-10.7-24-24-24s-24 10.7-24 24l0 64-64 0c-13.3 0-24 10.7-24 24s10.7 24 24 24l64 0 0 64z"/>
    </symbol>
    <symbol viewBox="0 0 512 512" id="circle-xmark">
      <path fill="currentColor" d="M256 48a208 208 0 1 1 0 416 208 208 0 1 1 0-416zm0 464a256 256 0 1 0 0-512 256 256 0 1 0 0 512zM167 167c-9.4 9.4-9.4 24.6 0 33.9l55 55-55 55c-9.4 9.4-9.4 24.6 0 33.9s24.6 9.4 33.9 0l55-55 55 55c9.4 9.4 24.6 9.4 33.9 0s9.4-24.6 0-33.9l-55-55 55-55c9.4-9.4 9.4-24.6 0-33.9s-24.6-9.4-33.9 0l-55 55-55-55c-9.4-9.4-24.6-9.4-33.9 0z"/>
    </symbol>
    <symbol viewBox="0 0 512 512" id="clock">
      <path fill="currentColor" d="M464 256a208 208 0 1 1 -416 0 208 208 0 1 1 416 0zM0 256a256 256 0 1 0 512 0 256 256 0 1 0 -512 0zM232 120l0 136c0 8 4 15.5 10.7 20l96 64c11 7.4 25.9 4.4 33.3-6.7s4.4-25.9-6.7-33.3L280 243.2 280 120c0-13.3-10.7-24-24-24s-24 10.7-24 24z"/>
    </symbol>
    <symbol viewBox="0 0 512 512" id="clock-rotate-left">
      <path fill="currentColor" d="M48 106.7L48 56c0-13.3-10.7-24-24-24S0 42.7 0 56L0 168c0 13.3 10.7 24 24 24l112 0c13.3 0 24-10.7 24-24s-10.7-24-24-24l-55.3 0c37-57.8 101.7-96 175.3-96 114.9 0 208 93.1 208 208S370.9 464 256 464c-42.5 0-81.9-12.7-114.7-34.5-11-7.3-25.9-4.3-33.3 6.7s-4.3 25.9 6.7 33.3c40.5 26.8 89.1 42.5 141.3 42.5 141.4 0 256-114.6 256-256S397.4 0 256 0C170.3 0 94.4 42.1 48 106.7zM256 128c-13.3 0-24 10.7-24 24l0 104c0 6.4 2.5 12.5 7 17l72 72c9.4 9.4 24.6 9.4 33.9 0s9.4-24.6 0-33.9l-65-65 0-94.1c0-13.3-10.7-24-24-24z"/>
    </symbol>
    <symbol viewBox="0 0 512 512" id="clone">
      <path fill="currentColor" d="M288 464L64 464c-8.8 0-16-7.2-16-16l0-224c0-8.8 7.2-16 16-16l48 0 0-48-48 0c-35.3 0-64 28.7-64 64L0 448c0 35.3 28.7 64 64 64l224 0c35.3 0 64-28.7 64-64l0-48-48 0 0 48c0 8.8-7.2 16-16 16zM224 304c-8.8 0-16-7.2-16-16l0-224c0-8.8 7.2-16 16-16l224 0c8.8 0 16 7.2 16 16l0 224c0 8.8-7.2 16-16 16l-224 0zm-64-16c0 35.3 28.7 64 64 64l224 0c35.3 0 64-28.7 64-64l0-224c0-35.3-28.7-64-64-64L224 0c-35.3 0-64 28.7-64 64l0 224z"/>
    </symbol>
    <symbol viewBox="0 0 576 512" id="cloud-arrow-up">
      <path fill="currentColor" d="M240 32c-88.4 0-160 71.6-160 160 0 4.9 .2 9.8 .7 14.6-47.8 23.4-80.7 72.5-80.7 129.4 0 79.5 64.5 144 144 144l304 0c70.7 0 128-57.3 128-128 0-49.9-28.5-93-70.1-114.2 4-11.9 6.1-24.6 6.1-37.8 0-66.3-53.7-120-120-120-11.5 0-22.7 1.6-33.3 4.7-29.3-32.3-71.6-52.7-118.7-52.7zM128 192c0-61.9 50.1-112 112-112 37.7 0 71 18.6 91.3 47.1 6.7 9.5 19.3 12.8 29.8 7.8 9.3-4.4 19.7-6.9 30.8-6.9 39.8 0 72 32.2 72 72 0 14.1-4 27.2-11 38.3-4.1 6.5-4.8 14.6-2 21.7s9 12.5 16.5 14.3c34.8 8.7 60.5 40.2 60.5 77.6 0 44.2-35.8 80-80 80l-304 0c-53 0-96-43-96-96 0-42.7 27.9-79 66.6-91.4 11.8-3.8 18.8-16 16.1-28.1-1.8-7.9-2.7-16.1-2.7-24.5zm177 7c-9.4-9.4-24.6-9.4-33.9 0l-64 64c-9.4 9.4-9.4 24.6 0 33.9s24.6 9.4 33.9 0l23-23 0 86.1c0 13.3 10.7 24 24 24s24-10.7 24-24l0-86.1 23 23c9.4 9.4 24.6 9.4 33.9 0s9.4-24.6 0-33.9l-64-64z"/>
    </symbol>
    <symbol viewBox="0 0 576 512" id="comments">
      <path fill="currentColor" d="M76.2 258.7c6.1-15.2 4-32.6-5.6-45.9-14.5-20.1-22.6-43.7-22.6-68.8 0-66.8 60.5-128 144-128s144 61.2 144 128-60.5 128-144 128c-15.9 0-31.1-2.3-45.3-6.5-10.3-3.1-21.4-2.5-31.4 1.5l-50.4 20.2 11.4-28.5zM0 144c0 35.8 11.6 69.1 31.7 96.8L1.9 315.2c-1.3 3.2-1.9 6.6-1.9 10 0 14.8 12 26.8 26.8 26.8 3.4 0 6.8-.7 10-1.9l96.3-38.5c18.6 5.5 38.4 8.4 58.9 8.4 106 0 192-78.8 192-176S298-32 192-32 0 46.8 0 144zM384 512c20.6 0 40.3-3 58.9-8.4l96.3 38.5c3.2 1.3 6.6 1.9 10 1.9 14.8 0 26.8-12 26.8-26.8 0-3.4-.7-6.8-1.9-10l-29.7-74.4c20-27.8 31.7-61.1 31.7-96.8 0-82.4-61.7-151.5-145-170.7-1.6 16.3-5.1 31.9-10.1 46.9 63.9 14.8 107.2 67.3 107.2 123.9 0 25.1-8.1 48.7-22.6 68.8-9.6 13.3-11.7 30.6-5.6 45.9l11.4 28.5-50.4-20.2c-10-4-21.1-4.5-31.4-1.5-14.2 4.2-29.4 6.5-45.3 6.5-72.2 0-127.1-45.7-140.7-101.2-15.6 3.2-31.7 5-48.1 5.2 16.4 81.9 94.7 144 188.8 144z"/>
    </symbol>
    <symbol viewBox="0 0 512 512" id="copyright">
      <path fill="currentColor" d="M256 48a208 208 0 1 1 0 416 208 208 0 1 1 0-416zm0 464a256 256 0 1 0 0-512 256 256 0 1 0 0 512zM205.1 306.9c-28.1-28.1-28.1-73.7 0-101.8s73.7-28.1 101.8 0c9.4 9.4 24.6 9.4 33.9 0s9.4-24.6 0-33.9c-46.9-46.9-122.8-46.9-169.7 0s-46.9 122.8 0 169.7 122.8 46.9 169.7 0c9.4-9.4 9.4-24.6 0-33.9s-24.6-9.4-33.9 0c-28.1 28.1-73.7 28.1-101.8 0z"/>
    </symbol>
    <symbol viewBox="0 0 640 512" id="couch">
      <path fill="currentColor" d="M112 192l0 44.1c17.2 11.5 29.2 30.3 31.6 51.9l352.9 0c2.4-21.6 14.4-40.4 31.6-51.9l0-44.1c0-44.2-35.8-80-80-80l-256 0c-44.2 0-80 35.8-80 80zM64 224.4L64 192c0-70.7 57.3-128 128-128l256 0c70.7 0 128 57.3 128 128l0 32.4c36 4 64 34.5 64 71.6l0 64c0 48.6-39.4 88-88 88L88 448c-48.6 0-88-39.4-88-88l0-64c0-37.1 28-67.6 64-71.6zM48 296l0 64c0 22.1 17.9 40 40 40l464 0c22.1 0 40-17.9 40-40l0-64c0-13.3-10.7-24-24-24s-24 10.7-24 24l0 16c0 13.3-10.7 24-24 24l-400 0c-13.3 0-24-10.7-24-24l0-16c0-13.3-10.7-24-24-24s-24 10.7-24 24z"/>
    </symbol>
    <symbol viewBox="0 0 512 512" id="credit-card">
      <path fill="currentColor" d="M448 112c8.8 0 16 7.2 16 16l0 32-416 0 0-32c0-8.8 7.2-16 16-16l384 0zm16 112l0 160c0 8.8-7.2 16-16 16L64 400c-8.8 0-16-7.2-16-16l0-160 416 0zM64 64C28.7 64 0 92.7 0 128L0 384c0 35.3 28.7 64 64 64l384 0c35.3 0 64-28.7 64-64l0-256c0-35.3-28.7-64-64-64L64 64zM80 344c0 13.3 10.7 24 24 24l48 0c13.3 0 24-10.7 24-24s-10.7-24-24-24l-48 0c-13.3 0-24 10.7-24 24zm144 0c0 13.3 10.7 24 24 24l64 0c13.3 0 24-10.7 24-24s-10.7-24-24-24l-64 0c-13.3 0-24 10.7-24 24z"/>
    </symbol>
    <symbol viewBox="0 0 512 512" id="cubes">
      <path fill="currentColor" d="M284-1.3c-17.3-10-38.7-10-56 0L143.8 47.3c-17.3 10-28 28.5-28 48.5l0 101.9-88.3 51c-17.3 10-28 28.5-28 48.5l0 97.3c0 20 10.7 38.5 28 48.5l84.3 48.6c17.3 10 38.7 10 56 0l88.3-51 88.3 51c17.3 10 38.7 10 56 0L484.5 443c17.3-10 28-28.5 28-48.5l0-97.3c0-20-10.7-38.5-28-48.5l-88.3-51 0-101.9c0-20-10.7-38.5-28-48.5L284-1.3zM71.5 278.7l68.3-39.4 68.3 39.4-68.3 39.4-68.3-39.4zm-24 41.6l68.3 39.4 0 78.8-64.3-37.1c-2.5-1.4-4-4.1-4-6.9l0-74.2zM163.8 438.5l0-78.8 68.3-39.4 0 78.8-68.3 39.4zM280 320.3l68.3 39.4 0 78.8-68.3-39.4 0-78.8zM396.3 438.5l0-78.8 68.3-39.4 0 74.2c0 2.9-1.5 5.5-4 6.9l-64.3 37.1zm44.3-159.8l-68.3 39.4-68.3-39.4 68.3-39.4 68.3 39.4zM280 237.2l0-78.8 68.3-39.4 0 78.8-68.3 39.4zM324.3 77.4L256 116.8 187.8 77.4 252 40.3c2.5-1.4 5.5-1.4 8 0l64.3 37.1zM163.8 118.9l68.3 39.4 0 78.8-68.3-39.4 0-78.8z"/>
    </symbol>
    <symbol viewBox="0 0 448 512" id="door-open">
      <path fill="currentColor" d="M96 48l160 0c8.8 0 16 7.2 16 16l0 400-192 0 0-400c0-8.8 7.2-16 16-16zM80 512l216 0c13.3 0 24-10.7 24-24l0-424c0-5.5-.7-10.9-2-16l34 0c8.8 0 16 7.2 16 16l0 424c0 13.3 10.7 24 24 24l32 0c13.3 0 24-10.7 24-24s-10.7-24-24-24l-8 0 0-400c0-35.3-28.7-64-64-64l-88 0 0 .5c-2.6-.3-5.3-.5-8-.5L96 0C60.7 0 32 28.7 32 64l0 400-8 0c-13.3 0-24 10.7-24 24s10.7 24 24 24l56 0zm96-256a32 32 0 1 0 64 0 32 32 0 1 0 -64 0z"/>
    </symbol>
    <symbol viewBox="0 0 448 512" id="ellipsis">
      <path fill="currentColor" d="M448 256a48 48 0 1 1 -96 0 48 48 0 1 1 96 0zm-176 0a48 48 0 1 1 -96 0 48 48 0 1 1 96 0zM48 304a48 48 0 1 1 0-96 48 48 0 1 1 0 96z"/>
    </symbol>
    <symbol viewBox="0 0 128 512" id="ellipsis-vertical">
      <path fill="currentColor" d="M112 80a48 48 0 1 1 -96 0 48 48 0 1 1 96 0zM16 256c0-26.5 21.5-48 48-48s48 21.5 48 48-21.5 48-48 48-48-21.5-48-48zm96 176c0 26.5-21.5 48-48 48s-48-21.5-48-48 21.5-48 48-48 48 21.5 48 48z"/>
    </symbol>
    <symbol viewBox="0 0 512 512" id="envelope">
      <path fill="currentColor" d="M61.4 64C27.5 64 0 91.5 0 125.4 0 126.3 0 127.1 .1 128L0 128 0 384c0 35.3 28.7 64 64 64l384 0c35.3 0 64-28.7 64-64l0-256-.1 0c0-.9 .1-1.7 .1-2.6 0-33.9-27.5-61.4-61.4-61.4L61.4 64zM464 192.3L464 384c0 8.8-7.2 16-16 16L64 400c-8.8 0-16-7.2-16-16l0-191.7 154.8 117.4c31.4 23.9 74.9 23.9 106.4 0L464 192.3zM48 125.4C48 118 54 112 61.4 112l389.2 0c7.4 0 13.4 6 13.4 13.4 0 4.2-2 8.2-5.3 10.7L280.2 271.5c-14.3 10.8-34.1 10.8-48.4 0L53.3 136.1c-3.3-2.5-5.3-6.5-5.3-10.7z"/>
    </symbol>
    <symbol viewBox="0 0 576 512" id="eye">
      <path fill="currentColor" d="M288 80C222.8 80 169.2 109.6 128.1 147.7 89.6 183.5 63 226 49.4 256 63 286 89.6 328.5 128.1 364.3 169.2 402.4 222.8 432 288 432s118.8-29.6 159.9-67.7C486.4 328.5 513 286 526.6 256 513 226 486.4 183.5 447.9 147.7 406.8 109.6 353.2 80 288 80zM95.4 112.6C142.5 68.8 207.2 32 288 32s145.5 36.8 192.6 80.6c46.8 43.5 78.1 95.4 93 131.1 3.3 7.9 3.3 16.7 0 24.6-14.9 35.7-46.2 87.7-93 131.1-47.1 43.7-111.8 80.6-192.6 80.6S142.5 443.2 95.4 399.4c-46.8-43.5-78.1-95.4-93-131.1-3.3-7.9-3.3-16.7 0-24.6 14.9-35.7 46.2-87.7 93-131.1zM288 336c44.2 0 80-35.8 80-80 0-29.6-16.1-55.5-40-69.3-1.4 59.7-49.6 107.9-109.3 109.3 13.8 23.9 39.7 40 69.3 40zm-79.6-88.4c2.5 .3 5 .4 7.6 .4 35.3 0 64-28.7 64-64 0-2.6-.2-5.1-.4-7.6-37.4 3.9-67.2 33.7-71.1 71.1zm45.6-115c10.8-3 22.2-4.5 33.9-4.5 8.8 0 17.5 .9 25.8 2.6 .3 .1 .5 .1 .8 .2 57.9 12.2 101.4 63.7 101.4 125.2 0 70.7-57.3 128-128 128-61.6 0-113-43.5-125.2-101.4-1.8-8.6-2.8-17.5-2.8-26.6 0-11 1.4-21.8 4-32 .2-.7 .3-1.3 .5-1.9 11.9-43.4 46.1-77.6 89.5-89.5z"/>
    </symbol>
    <symbol viewBox="0 0 512 512" id="face-grin">
      <path fill="currentColor" d="M464 256a208 208 0 1 0 -416 0 208 208 0 1 0 416 0zM0 256a256 256 0 1 1 512 0 256 256 0 1 1 -512 0zm372.2 46.3c11.8-3.6 23.7 6.1 19.6 17.8-19.8 55.9-73.1 96-135.8 96-62.7 0-116-40-135.8-95.9-4.1-11.6 7.8-21.4 19.6-17.8 34.7 10.6 74.2 16.5 116.1 16.5 42 0 81.5-6 116.3-16.6zM144 208a32 32 0 1 1 64 0 32 32 0 1 1 -64 0zm192-32a32 32 0 1 1 0 64 32 32 0 1 1 0-64z"/>
    </symbol>
    <symbol viewBox="0 0 512 512" id="face-smile-beam">
      <path fill="currentColor" d="M464 256a208 208 0 1 0 -416 0 208 208 0 1 0 416 0zM0 256a256 256 0 1 1 512 0 256 256 0 1 1 -512 0zm177.3 63.4C192.3 335 218.4 352 256 352s63.7-17 78.7-32.6c9.2-9.6 24.4-9.9 33.9-.7s9.9 24.4 .7 33.9c-22.1 23-60 47.4-113.3 47.4s-91.2-24.4-113.3-47.4c-9.2-9.6-8.9-24.8 .7-33.9s24.8-8.9 33.9 .7zM176 180c-15.5 0-28 12.5-28 28l0 8c0 11-9 20-20 20s-20-9-20-20l0-8c0-37.6 30.4-68 68-68s68 30.4 68 68l0 8c0 11-9 20-20 20s-20-9-20-20l0-8c0-15.5-12.5-28-28-28zm132 28l0 8c0 11-9 20-20 20s-20-9-20-20l0-8c0-37.6 30.4-68 68-68s68 30.4 68 68l0 8c0 11-9 20-20 20s-20-9-20-20l0-8c0-15.5-12.5-28-28-28s-28 12.5-28 28z"/>
    </symbol>
    <symbol viewBox="0 0 384 512" id="file-lines">
      <path fill="currentColor" d="M64 48l112 0 0 88c0 39.8 32.2 72 72 72l88 0 0 240c0 8.8-7.2 16-16 16L64 464c-8.8 0-16-7.2-16-16L48 64c0-8.8 7.2-16 16-16zM224 67.9l92.1 92.1-68.1 0c-13.3 0-24-10.7-24-24l0-68.1zM64 0C28.7 0 0 28.7 0 64L0 448c0 35.3 28.7 64 64 64l256 0c35.3 0 64-28.7 64-64l0-261.5c0-17-6.7-33.3-18.7-45.3L242.7 18.7C230.7 6.7 214.5 0 197.5 0L64 0zm56 256c-13.3 0-24 10.7-24 24s10.7 24 24 24l144 0c13.3 0 24-10.7 24-24s-10.7-24-24-24l-144 0zm0 96c-13.3 0-24 10.7-24 24s10.7 24 24 24l144 0c13.3 0 24-10.7 24-24s-10.7-24-24-24l-144 0z"/>
    </symbol>
    <symbol viewBox="0 0 512 512" id="folder">
      <path fill="currentColor" d="M64 400l384 0c8.8 0 16-7.2 16-16l0-240c0-8.8-7.2-16-16-16l-149.3 0c-17.3 0-34.2-5.6-48-16L212.3 83.2c-2.8-2.1-6.1-3.2-9.6-3.2L64 80c-8.8 0-16 7.2-16 16l0 288c0 8.8 7.2 16 16 16zm384 48L64 448c-35.3 0-64-28.7-64-64L0 96C0 60.7 28.7 32 64 32l138.7 0c13.8 0 27.3 4.5 38.4 12.8l38.4 28.8c5.5 4.2 12.3 6.4 19.2 6.4L448 80c35.3 0 64 28.7 64 64l0 240c0 35.3-28.7 64-64 64z"/>
    </symbol>
    <symbol viewBox="0 0 576 512" id="folder-tree">
      <path fill="currentColor" d="M48 24C48 10.7 37.3 0 24 0S0 10.7 0 24L0 392c0 30.9 25.1 56 56 56l184 0 0-48-184 0c-4.4 0-8-3.6-8-8l0-232 192 0 0-48-192 0 0-88zM385.5 48l31.9 21.3c10.5 7 22.9 10.7 35.5 10.7l75.2 0 0 96-192 0 0-128 49.5 0zM288 48l0 128c0 26.5 21.5 48 48 48l192 0c26.5 0 48-21.5 48-48l0-96c0-26.5-21.5-48-48-48l-75.2 0c-3.2 0-6.2-.9-8.9-2.7L412.1 8.1C404.2 2.8 394.9 0 385.5 0L336 0c-26.5 0-48 21.5-48 48zm97.5 288l33.9 22.6c9.2 6.1 20 9.4 31.1 9.4l77.6 0 0 96-192 0 0-128 49.5 0zM288 336l0 128c0 26.5 21.5 48 48 48l192 0c26.5 0 48-21.5 48-48l0-96c0-26.5-21.5-48-48-48l-77.6 0c-1.6 0-3.1-.5-4.4-1.3l-33.9-22.6c-7.9-5.3-17.1-8.1-26.6-8.1L336 288c-26.5 0-48 21.5-48 48z"/>
    </symbol>
    <symbol viewBox="0 0 512 512" id="forward-fast">
      <path fill="currentColor" d="M272 102.6L272 409.4 425.4 256 272 102.6zm6.6 368c-9.2 9.2-22.9 11.9-34.9 6.9S224 460.9 224 448l0-146.7-169.4 169.4c-9.2 9.2-22.9 11.9-34.9 6.9S0 460.9 0 448L0 64C0 51.1 7.8 39.4 19.8 34.4s25.7-2.2 34.9 6.9L224 210.7 224 64c0-12.9 7.8-24.6 19.8-29.6s25.7-2.2 34.9 6.9L464 226.7 464 56c0-13.3 10.7-24 24-24s24 10.7 24 24l0 400c0 13.3-10.7 24-24 24s-24-10.7-24-24l0-170.7-185.4 185.4zM201.4 256L48 102.6 48 409.4 201.4 256z"/>
    </symbol>
    <symbol viewBox="0 0 384 512" id="forward-step">
      <path fill="currentColor" d="M360 32c-13.3 0-24 10.7-24 24L336 218.7 62 38.6c-12.3-8.1-28-8.8-41-1.8S0 57.3 0 72L0 440c0 14.7 8.1 28.2 21 35.2s28.7 6.3 41-1.8L336 293.4 336 456c0 13.3 10.7 24 24 24s24-10.7 24-24l0-400c0-13.3-10.7-24-24-24zM305.4 256L48 425.2 48 86.8 305.4 256z"/>
    </symbol>
    <symbol viewBox="0 0 512 512" id="gear">
      <path fill="currentColor" d="M205.5 92.7l13.7-60.7 73.6 0 13.7 60.7c1.7 7.4 6.8 13.6 13.8 16.7 10.8 4.8 21 10.7 30.4 17.6 6.1 4.5 14.1 5.9 21.4 3.6l59.5-18.5 36.8 63.8-45.8 42.3c-5.6 5.2-8.4 12.7-7.6 20.2 1.3 11.5 1.3 23.7 0 35.2-.8 7.6 2 15.1 7.6 20.2l45.8 42.3-36.8 63.8-59.5-18.5c-7.3-2.3-15.2-.9-21.4 3.6-9.4 6.9-19.6 12.9-30.4 17.6-7 3.1-12.1 9.3-13.8 16.7l-13.7 60.7-73.6 0-13.7-60.7c-1.7-7.4-6.8-13.6-13.8-16.7-10.8-4.8-21-10.7-30.4-17.6-6.1-4.5-14.1-5.9-21.4-3.6l-59.5 18.5-36.8-63.8 45.8-42.3c5.6-5.2 8.4-12.7 7.6-20.2-1.3-11.5-1.3-23.7 0-35.2 .8-7.6-2-15.1-7.6-20.2l-45.8-42.3 36.8-63.8 59.5 18.5c7.3 2.3 15.2 .9 21.4-3.6 9.4-6.9 19.6-12.9 30.4-17.6 7-3.1 12.1-9.3 13.8-16.7zM212.8-16c-18.7 0-34.9 13-39 31.2L161.2 70.8c-6.3 3.2-12.3 6.7-18.2 10.5L88.6 64.4c-17.9-5.6-37.2 2-46.5 18.2L-1.1 157.4c-9.3 16.2-6.2 36.7 7.5 49.4l41.9 38.7c-.3 6.9-.3 14 0 21L6.4 305.2c-13.7 12.7-16.9 33.2-7.5 49.4l43.2 74.8c9.3 16.2 28.7 23.7 46.5 18.2l54.5-16.9c5.9 3.8 11.9 7.3 18.2 10.5l12.6 55.6c4.1 18.2 20.3 31.2 39 31.2l86.4 0c18.7 0 34.9-13 39-31.2l12.6-55.6c6.3-3.2 12.3-6.7 18.2-10.5l54.5 16.9c17.9 5.6 37.2-2 46.5-18.2l43.2-74.8c9.3-16.2 6.2-36.7-7.5-49.4l-41.9-38.7c.3-6.9 .3-14 0-21l41.9-38.7c13.7-12.7 16.8-33.2 7.5-49.4L470 82.6c-9.4-16.2-28.7-23.7-46.5-18.2L369 81.3c-5.9-3.8-11.9-7.3-18.2-10.5L338.3 15.2C334.1-3 317.9-16 299.2-16l-86.4 0zM304 256a48 48 0 1 1 -96 0 48 48 0 1 1 96 0zm-48-96a96 96 0 1 0 0 192 96 96 0 1 0 0-192z"/>
    </symbol>
    <symbol viewBox="0 0 640 512" id="gears">
      <path fill="currentColor" d="M170.6-20.6c10.3-20.2 33.3-30.5 55.2-24.7L250-38.8c21.9 5.9 36.7 26.3 35.5 49l-1 17.8c2.7 2.5 5.3 5.1 7.8 7.8l17.8-1c22.7-1.2 43.1 13.6 49 35.5l6.5 24.2c5.9 21.9-4.4 45-24.7 55.2l-15.9 8.1c-.8 3.6-1.8 7.2-2.9 10.7l9.7 14.9c12.4 19 9.8 44.1-6.3 60.2L308 261.3c-16.1 16.1-41.1 18.7-60.2 6.3l-14.9-9.7c-3.5 1.1-7.1 2.1-10.7 2.9l-8.1 15.9c-10.3 20.2-33.3 30.5-55.2 24.7l-24.2-6.5c-21.9-5.9-36.7-26.3-35.5-49l1-17.8c-2.7-2.5-5.3-5.1-7.8-7.8l-17.8 1c-22.7 1.2-43.1-13.6-49-35.5l-6.5-24.2c-5.9-21.9 4.4-45 24.7-55.2l0 0 15.9-8.1c.8-3.6 1.8-7.2 2.9-10.7L52.8 72.6c-12.4-19-9.8-44.1 6.3-60.2L76.8-5.3C92.8-21.4 117.9-24 137-11.6l14.9 9.7c3.5-1.1 7.1-2.1 10.7-2.9l8.1-15.9zm67 28.2l-24.2-6.5-13.5 26.6c-3.6 7.1-10.5 12-18.4 13-8.1 1-15.9 3.1-23.3 6.3-7.4 3.1-15.8 2.4-22.5-2l-25-16.3-17.7 17.7 16.3 25c4.4 6.7 5.1 15.1 2 22.4-1.5 3.7-2.9 7.5-3.9 11.5s-1.8 8-2.3 11.9c-1 7.9-5.9 14.8-13 18.4l-26.6 13.5 6.5 24.2 29.8-1.6c8-.4 15.6 3.1 20.5 9.5 4.9 6.4 10.6 12.2 17.1 17.1 6.4 4.8 9.9 12.5 9.5 20.4l-1.6 29.7 24.2 6.5 13.5-26.6c3.6-7.1 10.5-12 18.4-13 8.1-1 15.9-3.1 23.3-6.3 7.4-3.1 15.8-2.4 22.5 2l25 16.3 17.7-17.7-16.3-25c-4.4-6.7-5.1-15.1-2-22.4 1.5-3.7 2.9-7.5 3.9-11.5s1.8-8 2.3-11.9c1-7.9 5.9-14.8 13-18.4l26.6-13.5-6.5-24.2-29.8 1.6c-8 .4-15.6-3.1-20.5-9.5-4.9-6.4-10.6-12.2-17.1-17.1-6.4-4.8-9.9-12.5-9.5-20.4l1.6-29.7zM161.5 119.7a32 32 0 1 1 61.8 16.6 32 32 0 1 1 -61.8-16.6zM355.2 266.2c-1.2-22.7 13.6-43.1 35.5-49l24.2-6.5c21.9-5.9 45 4.4 55.2 24.7l8.1 15.9c3.6 .8 7.2 1.8 10.7 2.9l14.9-9.7c19-12.4 44.1-9.8 60.2 6.3l17.7 17.7c16.1 16.1 18.7 41.2 6.3 60.2l-9.7 14.9c1.1 3.5 2.1 7.1 2.9 10.7l15.9 8.1c20.2 10.3 30.5 33.3 24.7 55.2l-6.5 24.2c-5.9 21.9-26.3 36.7-49 35.5l-17.8-1c-2.5 2.7-5.1 5.3-7.8 7.8l1 17.8c1.2 22.7-13.6 43.1-35.5 49l-24.2 6.5c-21.9 5.9-45-4.4-55.2-24.7l-8.1-15.9c-3.6-.8-7.2-1.8-10.7-2.9L393 523.6c-19 12.4-44.1 9.8-60.2-6.3l-17.7-17.7c-16.1-16.1-18.7-41.1-6.3-60.2l9.7-14.9c-1.1-3.5-2.1-7.1-2.9-10.7l-15.9-8.1c-20.2-10.3-30.5-33.3-24.7-55.2l6.5-24.2c5.9-21.9 26.3-36.7 49-35.5l17.8 1c2.5-2.7 5.1-5.3 7.8-7.8l-1-17.8zm72.1-9.1l-24.2 6.5 1.6 29.7c.4 8-3.1 15.6-9.5 20.4-6.5 4.9-12.2 10.7-17.1 17.1-4.8 6.4-12.5 9.9-20.5 9.5l-29.8-1.6-6.5 24.2 26.6 13.5c7.1 3.6 12 10.5 13 18.4 .5 4 1.3 7.9 2.3 11.9s2.4 7.8 3.9 11.5c3.1 7.3 2.3 15.7-2 22.4l-16.3 25 17.7 17.7 25-16.3c6.7-4.4 15.1-5.1 22.5-2 7.4 3.1 15.3 5.3 23.3 6.3 7.9 1 14.8 5.8 18.4 13l13.5 26.6 24.2-6.5-1.6-29.7c-.4-8 3.1-15.6 9.5-20.4 6.5-4.9 12.2-10.7 17.1-17.1 4.8-6.4 12.5-9.9 20.5-9.5l29.8 1.6 6.5-24.2-26.6-13.5c-7.1-3.6-12-10.5-13-18.4-.5-4-1.3-7.9-2.3-11.9s-2.4-7.8-3.9-11.5c-3.1-7.3-2.3-15.7 2-22.4l16.3-25-17.7-17.7-25 16.3c-6.7 4.4-15.1 5.1-22.5 2-7.4-3.1-15.3-5.3-23.3-6.3-7.9-1-14.8-5.8-18.4-13l-13.5-26.6zm-9.9 135.2a32 32 0 1 1 61.8-16.6 32 32 0 1 1 -61.8 16.6z"/>
    </symbol>
    <symbol viewBox="0 0 512 512" id="gem">
      <path fill="currentColor" d="M168.5 72l87.5 93 87.5-93-175 0zM383.9 99.1l-72.3 76.9 129 0-56.6-76.9zm50 124.9L78.1 224 256 420.3 433.9 224zM71.5 176l129 0-72.3-76.9-56.6 76.9zm434.3 40.1l-232 256c-4.5 5-11 7.9-17.8 7.9s-13.2-2.9-17.8-7.9l-232-256c-7.7-8.5-8.3-21.2-1.5-30.4l112-152c4.5-6.1 11.7-9.8 19.3-9.8l240 0c7.6 0 14.8 3.6 19.3 9.8l112 152c6.8 9.2 6.1 21.9-1.5 30.4z"/>
    </symbol>
    <symbol viewBox="0 0 512 512" id="gift">
      <path fill="currentColor" d="M321.5 68.8C329.1 55.9 342.9 48 357.8 48l2.2 0c22.1 0 40 17.9 40 40s-17.9 40-40 40l-73.3 0 34.8-59.2zm-131 0l34.8 59.2-73.3 0c-22.1 0-40-17.9-40-40s17.9-40 40-40l2.2 0c14.9 0 28.8 7.9 36.3 20.8zm89.6-24.3l-24.1 41-24.1-41C215.7 16.9 186.1 0 154.2 0L152 0c-48.6 0-88 39.4-88 88 0 14.4 3.5 28 9.6 40L32 128c-17.7 0-32 14.3-32 32l0 32c0 17.7 14.3 32 32 32l0 192c0 35.3 28.7 64 64 64l320 0c35.3 0 64-28.7 64-64l0-192c17.7 0 32-14.3 32-32l0-32c0-17.7-14.3-32-32-32l-41.6 0c6.1-12 9.6-25.6 9.6-40 0-48.6-39.4-88-88-88l-2.2 0c-31.9 0-61.5 16.9-77.7 44.4zM80 224l152 0 0 208-136 0c-8.8 0-16-7.2-16-16l0-192zm200 0l152 0 0 192c0 8.8-7.2 16-16 16l-136 0 0-208z"/>
    </symbol>
    <symbol viewBox="0 0 512 512" id="gift-card">
      <path fill="currentColor" d="M357.8 48c-14.9 0-28.8 7.9-36.3 20.8L286.7 128 360 128c22.1 0 40-17.9 40-40s-17.9-40-40-40l-2.2 0zM225.3 128L190.5 68.8C182.9 55.9 169.1 48 154.2 48L152 48c-22.1 0-40 17.9-40 40s17.9 40 40 40l73.3 0zM256 85.5l24.1-41C296.3 16.9 325.9 0 357.8 0L360 0c48.6 0 88 39.4 88 88 0 14.4-3.5 28-9.6 40l9.6 0c35.3 0 64 28.7 64 64l0 224c0 35.3-28.7 64-64 64L64 480c-35.3 0-64-28.7-64-64L0 192c0-35.3 28.7-64 64-64l9.6 0c-6.1-12-9.6-25.6-9.6-40 0-48.6 39.4-88 88-88l2.2 0c31.9 0 61.5 16.9 77.7 44.4l24.1 41zM152 176l-88 0c-8.8 0-16 7.2-16 16l0 128 416 0 0-128c0-8.8-7.2-16-16-16l-138.4 0 31 51.7c6.8 11.4 3.1 26.1-8.2 32.9s-26.1 3.1-32.9-8.2L256 180 212.6 252.3c-6.8 11.4-21.6 15.1-32.9 8.2s-15.1-21.6-8.2-32.9l31-51.7-50.4 0zM464 384l-416 0 0 32c0 8.8 7.2 16 16 16l384 0c8.8 0 16-7.2 16-16l0-32z"/>
    </symbol>
    <symbol viewBox="0 0 512 512" id="globe">
      <path fill="currentColor" d="M303.2 413c-21.5 43.7-41.4 51-47.2 51s-25.7-7.3-47.2-51c-17-34.5-29.2-81.6-32.1-133l158.6 0c-3 51.5-15.2 98.6-32.1 133zm32.1-181l-158.6 0c3-51.5 15.2-98.6 32.1-133 21.5-43.7 41.4-51 47.2-51s25.7 7.3 47.2 51c17 34.5 29.2 81.6 32.1 133zm48.1 48l79.2 0c-8.6 74.6-56.7 137.3-122.8 166.4 24-42.8 40.3-102.4 43.6-166.4zm79.2-48l-79.2 0c-3.3-64-19.6-123.6-43.6-166.4 66.1 29.2 114.2 91.8 122.8 166.4zm-334 0l-79.2 0c8.6-74.6 56.7-137.3 122.8-166.4-24 42.8-40.3 102.4-43.6 166.4zM49.4 280l79.2 0c3.3 64 19.6 123.6 43.6 166.4-66.1-29.2-114.2-91.8-122.8-166.4zM256 512a256 256 0 1 0 0-512 256 256 0 1 0 0 512z"/>
    </symbol>
    <symbol viewBox="0 0 512 512" id="grip">
      <path fill="currentColor" d="M88 184l-48 0 0-48 48 0 0 48zm40-48c0-22.1-17.9-40-40-40L40 96C17.9 96 0 113.9 0 136l0 48c0 22.1 17.9 40 40 40l48 0c22.1 0 40-17.9 40-40l0-48zm152 0l0 48-48 0 0-48 48 0zm0-40l-48 0c-22.1 0-40 17.9-40 40l0 48c0 22.1 17.9 40 40 40l48 0c22.1 0 40-17.9 40-40l0-48c0-22.1-17.9-40-40-40zm192 40l0 48-48 0 0-48 48 0zm0-40l-48 0c-22.1 0-40 17.9-40 40l0 48c0 22.1 17.9 40 40 40l48 0c22.1 0 40-17.9 40-40l0-48c0-22.1-17.9-40-40-40zm0 232l0 48-48 0 0-48 48 0zm0-40l-48 0c-22.1 0-40 17.9-40 40l0 48c0 22.1 17.9 40 40 40l48 0c22.1 0 40-17.9 40-40l0-48c0-22.1-17.9-40-40-40zM280 376l-48 0 0-48 48 0 0 48zm40-48c0-22.1-17.9-40-40-40l-48 0c-22.1 0-40 17.9-40 40l0 48c0 22.1 17.9 40 40 40l48 0c22.1 0 40-17.9 40-40l0-48zM88 328l0 48-48 0 0-48 48 0zm0-40l-48 0c-22.1 0-40 17.9-40 40l0 48c0 22.1 17.9 40 40 40l48 0c22.1 0 40-17.9 40-40l0-48c0-22.1-17.9-40-40-40z"/>
    </symbol>
    <symbol viewBox="0 0 448 512" id="grip-lines">
      <path fill="currentColor" d="M448 184c0-13.3-10.7-24-24-24L24 160c-13.3 0-24 10.7-24 24s10.7 24 24 24l400 0c13.3 0 24-10.7 24-24zm0 144c0-13.3-10.7-24-24-24L24 304c-13.3 0-24 10.7-24 24s10.7 24 24 24l400 0c13.3 0 24-10.7 24-24z"/>
    </symbol>
    <symbol viewBox="0 0 640 512" id="hammer">
      <path fill="currentColor" d="M468.8 26C410.2-26.5 326.2-39.7 254.2-7.7l-40 17.8c-7.6 3.4-12.9 10.5-14 18.7s2.1 16.5 8.6 21.8l79.2 64.8 0 42.7-233 233c-27 27-27 70.9 0 97.9s70.9 27 97.9 0l233-233 60.1 0 32 32c-8.4 9.4-8.1 23.9 .9 32.9 9.4 9.4 24.6 9.4 33.9 0l96-96c9.4-9.4 9.4-24.6 0-33.9-9-9-23.5-9.4-32.9-.9l-32-32 0-32.6c0-20.5-8.7-40-24-53.7L468.8 26zm73.2 198l-30.1 30.1-39-39c-4.5-4.5-10.6-7-17-7l-54.1 0-65.9-65.9 0-38.1c0-7.2-3.2-14-8.8-18.6l-57.8-47.3 4.4-1.9c54.7-24.3 118.5-14.3 163.1 25.6L488 107.6c5.1 4.6 8 11.1 8 17.9l0 42.5c0 6.4 2.5 12.5 7 17l39 39zm-192 0L119 455c-8.3 8.3-21.8 8.3-30.1 0s-8.3-21.8 0-30.1l231-231 30.1 30.1z"/>
    </symbol>
    <symbol viewBox="0 0 576 512" id="hand-holding-dollar">
      <path fill="currentColor" d="M288 0c13.3 0 24 10.7 24 24l0 8 16 0c13.3 0 24 10.7 24 24s-10.7 24-24 24l-61.7 0c-5.7 0-10.3 4.6-10.3 10.3 0 5.1 3.8 9.4 8.8 10.2L318 108c28.7 4.1 50 28.7 50 57.7 0 31.4-24.9 57-56 58.2l0 8c0 13.3-10.7 24-24 24s-24-10.7-24-24l0-8-24 0c-13.3 0-24-10.7-24-24s10.7-24 24-24l69.7 0c5.7 0 10.3-4.6 10.3-10.3 0-5.1-3.8-9.4-8.8-10.2L258 148c-28.7-4.1-50-28.7-50-57.7 0-31.4 24.9-57 56-58.2l0-8c0-13.3 10.7-24 24-24zM187.4 336c-7.9 0-15.6 2.3-22.2 6.7L85.3 396c-3.9 2.6-8.6 4-13.3 4l-48 0c-13.3 0-24-10.7-24-24s10.7-24 24-24l40.7 0 73.8-49.2C153 293.1 170 288 187.4 288L320 288c35.3 0 64 28.7 64 64 0 5.5-.7 10.9-2 16l10.6 0 69.9-47.9c33.5-23 79.4-12.9 100.3 21.9 19.2 32 10.1 73.5-20.7 94.5L462 491.1c-19.9 13.6-43.5 20.9-67.6 20.9L24 512c-13.3 0-24-10.7-24-24s10.7-24 24-24l370.4 0c14.5 0 28.6-4.4 40.6-12.5L515 396.9c9.9-6.7 12.8-20 6.6-30.2-6.7-11.1-21.3-14.3-32-7l-76 52.1c-4 2.7-8.7 4.2-13.6 4.2l-144 0c-13.3 0-24-10.7-24-24s10.7-24 24-24l64 0c8.8 0 16-7.2 16-16s-7.2-16-16-16l-132.6 0z"/>
    </symbol>
    <symbol viewBox="0 0 512 512" id="hand-point-right">
      <path fill="currentColor" d="M448 128l-177.6 0c1 5.2 1.6 10.5 1.6 16l0 16 176 0c8.8 0 16-7.2 16-16s-7.2-16-16-16zM224 144c0-17.7-14.3-32-32-32l-24 0c-66.3 0-120 53.7-120 120l0 48c0 52.5 33.7 97.1 80.7 113.4-.5-3.1-.7-6.2-.7-9.4 0-20 9.2-37.9 23.6-49.7-4.9-9-7.6-19.4-7.6-30.3 0-15.1 5.3-29 14-40-8.8-11-14-24.9-14-40l0-40c0-13.3 10.7-24 24-24s24 10.7 24 24l0 40c0 8.8 7.2 16 16 16s16-7.2 16-16l0-80zM192 64l0 0c18 0 34.6 6 48 16l208 0c35.3 0 64 28.7 64 64s-28.7 64-64 64l-82 0c1.3 5.1 2 10.5 2 16 0 25.3-14.7 47.2-36 57.6 2.6 7 4 14.5 4 22.4 0 20-9.2 37.9-23.6 49.7 4.9 9 7.6 19.4 7.6 30.3 0 35.3-28.7 64-64 64l-88 0C75.2 448 0 372.8 0 280l0-48C0 139.2 75.2 64 168 64l24 0zm64 336c8.8 0 16-7.2 16-16s-7.2-16-16-16l-64 0c-8.8 0-16 7.2-16 16s7.2 16 16 16l64 0zm16-176c0 5.5-.7 10.9-2 16l34 0c8.8 0 16-7.2 16-16s-7.2-16-16-16l-32 0 0 16zm-24 64l-40 0c-8.8 0-16 7.2-16 16s7.2 16 16 16l64 0c8.8 0 16-7.2 16-16s-7.2-16-16-16l-24 0z"/>
    </symbol>
    <symbol viewBox="0 0 640 512" id="handshake">
      <path fill="currentColor" d="M598.1 75.4c10.7-7.8 13.1-22.8 5.3-33.5s-22.8-13.1-33.5-5.3l-74.5 54.2-9.9-6.6C465.8 71 442.6 64 418.9 64l-59.2 0-.4 0-143.6 0c-26.7 0-52.5 8.9-73.4 25.1L70.1 36.6c-10.7-7.8-25.7-5.4-33.5 5.3s-5.4 25.7 5.3 33.5l88 64c9.6 6.9 22.7 5.9 31.1-2.4l3.9-3.9c13.5-13.5 31.8-21.1 50.9-21.1l46.3 0-91.7 91.7c-15.6 15.6-15.6 40.9 0 56.6l.8 .8C218 308 294 308 340.9 261.1l27.1-27.1 97.8 97.8c15.6 15.6 15.6 40.9 0 56.6l-9.8 9.8-31-31c-9.4-9.4-24.6-9.4-33.9 0s-9.4 24.6 0 33.9l28 28c-17.5 10.4-37.2 16.7-57.6 18.5L313 399c-9.4-9.4-24.6-9.4-33.9 0s-9.4 24.6 0 33.9l15 15-3.8 0c-36.1 0-70.7-14.3-96.2-39.8L65 279c-9.4-9.4-24.6-9.4-33.9 0s-9.4 24.6 0 33.9L160.2 442.1c34.5 34.5 81.3 53.9 130.1 53.9l51.8 0 1 1 1-1 5.7 0c48.8 0 95.6-19.4 130.1-53.9l19.9-19.9c1.2-1.2 2.3-2.3 3.4-3.5 .7-.5 1.3-1.1 1.9-1.7L609 313c9.4-9.4 9.4-24.6 0-33.9s-24.6-9.4-33.9 0l-53.8 53.8c-4.2-12.8-11.3-24.9-21.5-35.1L385 183c-9.4-9.4-24.6-9.4-33.9 0l-44.1 44.1c-26.5 26.5-68.5 28-96.7 4.6l98.7-98.7c13.4-13.4 31.6-21 50.6-21.1l8.5 0 .2 0 50.8 0c14.2 0 28.1 4.2 39.9 12.1L482.7 140c8.4 5.6 19.3 5.3 27.4-.6l88-64z"/>
    </symbol>
    <symbol viewBox="0 0 512 512" id="house">
      <path fill="currentColor" d="M240 6.1c9.1-8.2 22.9-8.2 32 0l232 208c9.9 8.8 10.7 24 1.8 33.9s-24 10.7-33.9 1.8l-8-7.2 0 205.3c0 35.3-28.7 64-64 64l-288 0c-35.3 0-64-28.7-64-64l0-205.3-8 7.2c-9.9 8.8-25 8-33.9-1.8s-8-25 1.8-33.9L240 6.1zm16 50.1L96 199.7 96 448c0 8.8 7.2 16 16 16l48 0 0-104c0-39.8 32.2-72 72-72l48 0c39.8 0 72 32.2 72 72l0 104 48 0c8.8 0 16-7.2 16-16l0-248.3-160-143.4zM208 464l96 0 0-104c0-13.3-10.7-24-24-24l-48 0c-13.3 0-24 10.7-24 24l0 104z"/>
    </symbol>
    <symbol viewBox="0 0 576 512" id="images">
      <path fill="currentColor" d="M480 80c8.8 0 16 7.2 16 16l0 256c0 8.8-7.2 16-16 16l-320 0c-8.8 0-16-7.2-16-16l0-256c0-8.8 7.2-16 16-16l320 0zM160 32c-35.3 0-64 28.7-64 64l0 256c0 35.3 28.7 64 64 64l320 0c35.3 0 64-28.7 64-64l0-256c0-35.3-28.7-64-64-64L160 32zm80 112a32 32 0 1 0 -64 0 32 32 0 1 0 64 0zm140.7 3.8c-4.3-7.3-12.2-11.8-20.7-11.8s-16.4 4.5-20.7 11.8l-46.5 79-17.2-24.6c-4.5-6.4-11.8-10.2-19.7-10.2s-15.2 3.8-19.7 10.2l-56 80c-5.1 7.3-5.8 16.9-1.6 24.8S191.1 320 200 320l240 0c8.6 0 16.6-4.6 20.8-12.1s4.2-16.7-.1-24.1l-80-136zM48 152c0-13.3-10.7-24-24-24S0 138.7 0 152L0 448c0 35.3 28.7 64 64 64l360 0c13.3 0 24-10.7 24-24s-10.7-24-24-24L64 464c-8.8 0-16-7.2-16-16l0-296z"/>
    </symbol>
    <symbol viewBox="0 0 512 512" id="inbox">
      <path fill="currentColor" d="M75.3 94c1-8 7.8-14 15.9-14l329.7 0c8 0 14.8 6 15.9 14l25 194-85.2 0c-13.4 0-25.9 6.7-33.3 17.8l-20.1 30.2-134.3 0-20.1-30.2c-7.4-11.1-19.9-17.8-33.3-17.8l-85.2 0 25-194zM48 336l83.2 0 20.1 30.2c7.4 11.1 19.9 17.8 33.3 17.8l142.9 0c13.4 0 25.9-6.7 33.3-17.8l20.1-30.2 83.2 0 0 80c0 8.8-7.2 16-16 16L64 432c-8.8 0-16-7.2-16-16l0-80zM91.2 32C59 32 31.8 55.9 27.7 87.8L.2 300.9 0 302.5 0 416c0 35.3 28.7 64 64 64l384 0c35.3 0 64-28.7 64-64l0-113.5-.2-1.5-27.5-213.1C480.2 55.9 453 32 420.8 32L91.2 32z"/>
    </symbol>
    <symbol viewBox="0 0 512 512" id="key">
      <path fill="currentColor" d="M208 176c0-70.7 57.3-128 128-128s128 57.3 128 128-57.3 128-128 128c-10.4 0-20.5-1.2-30.1-3.6-8.1-2-16.7 .5-22.6 6.4L254.1 336 200 336c-13.3 0-24 10.7-24 24l0 40-40 0c-13.3 0-24 10.7-24 24l0 40-64 0 0-78.1 157.2-157.2c5.9-5.9 8.3-14.5 6.4-22.6-2.3-9.6-3.6-19.7-3.6-30.1zM336 0c-97.2 0-176 78.8-176 176 0 9.5 .7 18.8 2.2 27.9L7 359c-4.5 4.5-7 10.6-7 17L0 488c0 13.3 10.7 24 24 24l112 0c13.3 0 24-10.7 24-24l0-40 40 0c13.3 0 24-10.7 24-24l0-40 40 0c6.4 0 12.5-2.5 17-7l27.2-27.2c9.1 1.4 18.4 2.2 27.9 2.2 97.2 0 176-78.8 176-176S433.2 0 336 0zm32 176a32 32 0 1 0 0-64 32 32 0 1 0 0 64z"/>
    </symbol>
    <symbol viewBox="0 0 640 512" id="laptop">
      <path fill="currentColor" d="M512 80L128 80c-8.8 0-16 7.2-16 16l0 208-48 0 0-208c0-35.3 28.7-64 64-64l384 0c35.3 0 64 28.7 64 64l0 208-48 0 0-208c0-8.8-7.2-16-16-16zM102.4 432l435.2 0c22.1 0 41.1-13.1 49.6-32L52.8 400c8.5 18.9 27.5 32 49.6 32zM0 377.6C0 363.5 11.5 352 25.6 352l588.8 0c14.1 0 25.6 11.5 25.6 25.6 0 56.6-45.8 102.4-102.4 102.4l-435.2 0C45.8 480 0 434.2 0 377.6z"/>
    </symbol>
    <symbol viewBox="0 0 384 512" id="lightbulb">
      <path fill="currentColor" d="M296.5 291.1C321 265.2 336 230.4 336 192 336 112.5 271.5 48 192 48S48 112.5 48 192c0 38.4 15 73.2 39.5 99.1 21.3 22.4 44.9 54 53.3 92.9l102.4 0c8.4-39 32-70.5 53.3-92.9zm34.8 33C307.7 349 288 379.4 288 413.7l0 18.3c0 44.2-35.8 80-80 80l-32 0c-44.2 0-80-35.8-80-80l0-18.3C96 379.4 76.3 349 52.7 324.1 20 289.7 0 243.2 0 192 0 86 86 0 192 0S384 86 384 192c0 51.2-20 97.7-52.7 132.1zM144 184c0 13.3-10.7 24-24 24s-24-10.7-24-24c0-48.6 39.4-88 88-88 13.3 0 24 10.7 24 24s-10.7 24-24 24c-22.1 0-40 17.9-40 40z"/>
    </symbol>
    <symbol viewBox="0 0 512 512" id="list">
      <path fill="currentColor" d="M40 48C26.7 48 16 58.7 16 72l0 48c0 13.3 10.7 24 24 24l48 0c13.3 0 24-10.7 24-24l0-48c0-13.3-10.7-24-24-24L40 48zM184 72c-13.3 0-24 10.7-24 24s10.7 24 24 24l304 0c13.3 0 24-10.7 24-24s-10.7-24-24-24L184 72zm0 160c-13.3 0-24 10.7-24 24s10.7 24 24 24l304 0c13.3 0 24-10.7 24-24s-10.7-24-24-24l-304 0zm0 160c-13.3 0-24 10.7-24 24s10.7 24 24 24l304 0c13.3 0 24-10.7 24-24s-10.7-24-24-24l-304 0zM16 232l0 48c0 13.3 10.7 24 24 24l48 0c13.3 0 24-10.7 24-24l0-48c0-13.3-10.7-24-24-24l-48 0c-13.3 0-24 10.7-24 24zM40 368c-13.3 0-24 10.7-24 24l0 48c0 13.3 10.7 24 24 24l48 0c13.3 0 24-10.7 24-24l0-48c0-13.3-10.7-24-24-24l-48 0z"/>
    </symbol>
    <symbol viewBox="0 0 512 512" id="list-check">
      <path fill="currentColor" d="M139.7 69.8c7.6-10.9 5-25.8-5.9-33.4s-25.8-5-33.4 5.9L60.7 98.8 41 79C31.6 69.7 16.4 69.7 7 79S-2.3 103.6 7 113l40 40c5 5 12 7.6 19.1 6.9s13.5-4.3 17.6-10.1l56-80zm0 160c7.6-10.9 5-25.8-5.9-33.4s-25.8-5-33.4 5.9L60.7 258.8 41 239c-9.4-9.4-24.6-9.4-33.9 0S-2.3 263.6 7 273l40 40c5 5 12 7.6 19.1 6.9s13.5-4.3 17.6-10.1l56-80zM192 96c0 13.3 10.7 24 24 24l272 0c13.3 0 24-10.7 24-24s-10.7-24-24-24L216 72c-13.3 0-24 10.7-24 24zm0 160c0 13.3 10.7 24 24 24l272 0c13.3 0 24-10.7 24-24s-10.7-24-24-24l-272 0c-13.3 0-24 10.7-24 24zM160 416c0 13.3 10.7 24 24 24l304 0c13.3 0 24-10.7 24-24s-10.7-24-24-24l-304 0c-13.3 0-24 10.7-24 24zm-64 0a32 32 0 1 0 -64 0 32 32 0 1 0 64 0z"/>
    </symbol>
    <symbol viewBox="0 0 512 512" id="list-ol">
      <path fill="currentColor" d="M0 72C0 85.3 10.7 96 24 96l24 0 0 80-24 0c-13.3 0-24 10.7-24 24s10.7 24 24 24l96 0c13.3 0 24-10.7 24-24s-10.7-24-24-24l-24 0 0-104c0-13.3-10.7-24-24-24L24 48C10.7 48 0 58.8 0 72zM192 96c0 13.3 10.7 24 24 24l272 0c13.3 0 24-10.7 24-24s-10.7-24-24-24L216 72c-13.3 0-24 10.7-24 24zm0 160c0 13.3 10.7 24 24 24l272 0c13.3 0 24-10.7 24-24s-10.7-24-24-24l-272 0c-13.3 0-24 10.7-24 24zm0 160c0 13.3 10.7 24 24 24l272 0c13.3 0 24-10.7 24-24s-10.7-24-24-24l-272 0c-13.3 0-24 10.7-24 24zM70 288c-14.3 0-28.2 4.6-39.6 13.2L9.6 316.8c-10.6 8-12.8 23-4.8 33.6s23 12.8 33.6 4.8l20.8-15.6c3.1-2.3 6.9-3.6 10.8-3.6l4.9 0c7.2 0 13.1 5.9 13.1 13.1 0 4.2-2 8.1-5.4 10.6L12.1 411C4.5 416.5 0 425.3 0 434.7 0 450.9 13.1 464 29.3 464l90.7 0c13.3 0 24-10.7 24-24s-10.7-24-24-24l-33.2 0 24-17.5c15.8-11.5 25.2-29.9 25.2-49.4 0-33.7-27.4-61.1-61.1-61.1L70 288z"/>
    </symbol>
    <symbol viewBox="0 0 384 512" id="location-dot">
      <path fill="currentColor" d="M48 188.6C48 111.7 111.7 48 192 48s144 63.7 144 140.6c0 45.6-23.8 101.5-58.9 157.1-28.3 44.8-61 84.8-85.1 112.1-24.1-27.3-56.7-67.2-85.1-112.1-35.1-55.5-58.9-111.5-58.9-157.1zM192 0C86 0 0 84.4 0 188.6 0 307.9 120.2 450.9 170.4 505.4 182.2 518.2 201.8 518.2 213.6 505.4 263.8 450.9 384 307.9 384 188.6 384 84.4 298 0 192 0zM160 192a32 32 0 1 1 64 0 32 32 0 1 1 -64 0zm112 0a80 80 0 1 0 -160 0 80 80 0 1 0 160 0z"/>
    </symbol>
    <symbol viewBox="0 0 512 512" id="magnifying-glass">
      <path fill="currentColor" d="M368 208a160 160 0 1 0 -320 0 160 160 0 1 0 320 0zM337.1 371.1C301.7 399.2 256.8 416 208 416 93.1 416 0 322.9 0 208S93.1 0 208 0 416 93.1 416 208c0 48.8-16.8 93.7-44.9 129.1L505 471c9.4 9.4 9.4 24.6 0 33.9s-24.6 9.4-33.9 0L337.1 371.1z"/>
    </symbol>
    <symbol viewBox="0 0 512 512" id="marker">
      <path fill="currentColor" d="M408.8 48c-14.6 0-28.7 5.8-39 16.2L217.9 216 296 294.1 447.8 142.2c10.4-10.4 16.2-24.4 16.2-39 0-30.5-24.7-55.2-55.2-55.2zM136.3 297.7c-42.9 42.9-71.6 98.1-82.2 157.9l-.5 2.9 2.9-.5c59.8-10.6 114.9-39.2 157.9-82.2l47.7-47.7-78.1-78.1-47.7 47.7zM335.8 30.2c19.4-19.4 45.6-30.2 73-30.2 57 0 103.2 46.2 103.2 103.2 0 27.4-10.9 53.6-30.2 73L248.3 409.7c-49.9 49.9-114 83.3-183.5 95.5l-36.7 6.5C20.5 513 12.6 510.5 7 505s-8-13.4-6.7-21.1l6.5-36.7c12.3-69.5 45.6-133.6 95.5-183.5L284.1 81.9 271 68.9c-9.4-9.4-24.6-9.4-33.9 0L137 169c-9.4 9.4-24.6 9.4-33.9 0s-9.4-24.6 0-33.9L203.1 34.9c28.1-28.1 73.7-28.1 101.8 0L318.1 48 335.8 30.2z"/>
    </symbol>
    <symbol viewBox="0 0 512 512" id="message">
      <path fill="currentColor" d="M203.7 512.9s0 0 0 0l-37.8 26.7c-7.3 5.2-16.9 5.8-24.9 1.7S128 529 128 520l0-72-32 0c-53 0-96-43-96-96L0 128C0 75 43 32 96 32l320 0c53 0 96 43 96 96l0 224c0 53-43 96-96 96l-120.4 0-91.9 64.9zm64.3-104.1c8.1-5.7 17.8-8.8 27.7-8.8L416 400c26.5 0 48-21.5 48-48l0-224c0-26.5-21.5-48-48-48L96 80c-26.5 0-48 21.5-48 48l0 224c0 26.5 21.5 48 48 48l56 0c10.4 0 19.3 6.6 22.6 15.9 .9 2.5 1.4 5.2 1.4 8.1l0 49.7c32.7-23.1 63.3-44.7 91.9-64.9z"/>
    </symbol>
    <symbol viewBox="0 0 448 512" id="minus">
      <path fill="currentColor" d="M0 256c0-13.3 10.7-24 24-24l400 0c13.3 0 24 10.7 24 24s-10.7 24-24 24L24 280c-13.3 0-24-10.7-24-24z"/>
    </symbol>
    <symbol viewBox="0 0 384 512" id="mobile">
      <path fill="currentColor" d="M80 48c-8.8 0-16 7.2-16 16l0 384c0 8.8 7.2 16 16 16l224 0c8.8 0 16-7.2 16-16l0-384c0-8.8-7.2-16-16-16L80 48zM16 64C16 28.7 44.7 0 80 0L304 0c35.3 0 64 28.7 64 64l0 384c0 35.3-28.7 64-64 64L80 512c-35.3 0-64-28.7-64-64L16 64zM152 368l80 0c13.3 0 24 10.7 24 24s-10.7 24-24 24l-80 0c-13.3 0-24-10.7-24-24s10.7-24 24-24z"/>
    </symbol>
    <symbol viewBox="0 0 512 512" id="money-bill">
      <path fill="currentColor" d="M400 112c0 35.3 28.7 64 64 64l0 160c-35.3 0-64 28.7-64 64l-288 0c0-35.3-28.7-64-64-64l0-160c35.3 0 64-28.7 64-64l288 0zM64 64C28.7 64 0 92.7 0 128L0 384c0 35.3 28.7 64 64 64l384 0c35.3 0 64-28.7 64-64l0-256c0-35.3-28.7-64-64-64L64 64zM352 256a96 96 0 1 0 -192 0 96 96 0 1 0 192 0z"/>
    </symbol>
    <symbol viewBox="0 0 512 512" id="newspaper">
      <path fill="currentColor" d="M168 80c-13.3 0-24 10.7-24 24l0 304c0 8.4-1.4 16.5-4.1 24L440 432c13.3 0 24-10.7 24-24l0-304c0-13.3-10.7-24-24-24L168 80zM72 480c-39.8 0-72-32.2-72-72L0 112C0 98.7 10.7 88 24 88s24 10.7 24 24l0 296c0 13.3 10.7 24 24 24s24-10.7 24-24l0-304c0-39.8 32.2-72 72-72l272 0c39.8 0 72 32.2 72 72l0 304c0 39.8-32.2 72-72 72L72 480zM192 152c0-13.3 10.7-24 24-24l48 0c13.3 0 24 10.7 24 24l0 48c0 13.3-10.7 24-24 24l-48 0c-13.3 0-24-10.7-24-24l0-48zm152 24l48 0c13.3 0 24 10.7 24 24s-10.7 24-24 24l-48 0c-13.3 0-24-10.7-24-24s10.7-24 24-24zM216 256l176 0c13.3 0 24 10.7 24 24s-10.7 24-24 24l-176 0c-13.3 0-24-10.7-24-24s10.7-24 24-24zm0 80l176 0c13.3 0 24 10.7 24 24s-10.7 24-24 24l-176 0c-13.3 0-24-10.7-24-24s10.7-24 24-24z"/>
    </symbol>
    <symbol viewBox="0 0 576 512" id="paper-plane">
      <path fill="currentColor" d="M290.5 287.7L491.4 86.9 359 456.3 290.5 287.7zM457.4 53L256.6 253.8 88 185.3 457.4 53zM38.1 216.8l205.8 83.6 83.6 205.8c5.3 13.1 18.1 21.7 32.3 21.7 14.7 0 27.8-9.2 32.8-23.1L570.6 8c3.5-9.8 1-20.6-6.3-28s-18.2-9.8-28-6.3L39.4 151.7c-13.9 5-23.1 18.1-23.1 32.8 0 14.2 8.6 27 21.7 32.3z"/>
    </symbol>
    <symbol viewBox="0 0 512 512" id="paperclip">
      <path fill="currentColor" d="M241.4 18.4c53.1-53.1 139.2-53.1 192.3 0s53.1 139.2 0 192.3L264 380.5c-34.4 34.4-90.1 34.4-124.5 0s-34.4-90.1 0-124.5L298 97.6c9.4-9.4 24.6-9.4 33.9 0s9.4 24.6 0 33.9L173.5 289.9c-15.6 15.6-15.6 40.9 0 56.6s40.9 15.6 56.6 0L399.8 176.8c34.4-34.4 34.4-90.1 0-124.5s-90.1-34.4-124.4 0l-181 181c-53.1 53.1-53.1 139.2 0 192.3s139.2 53.1 192.3 0L428.1 284.3c9.4-9.4 24.6-9.4 33.9 0s9.4 24.6 0 33.9L320.6 459.6c-71.9 71.9-188.4 71.9-260.2 0s-71.9-188.4 0-260.2l181-181z"/>
    </symbol>
    <symbol viewBox="0 0 512 512" id="pen-clip">
      <path fill="currentColor" d="M58.9 315.1c-10.7 10.7-18.5 24.1-22.6 38.7L.9 481.6c-2.3 8.3 0 17.3 6.2 23.4s15.1 8.5 23.4 6.2l127.8-35.5c14.6-4.1 27.9-11.8 38.7-22.6l294-294C504.4 145.6 512 127.2 512 108s-7.6-37.6-21.2-51.1L455.1 21.2C441.6 7.6 423.2 0 404 0s-37.6 7.6-51.1 21.2L300 74.1 282.9 57c-28.1-28.1-73.7-28.1-101.8 0L71 167c-9.4 9.4-9.4 24.6 0 33.9s24.6 9.4 33.9 0L215 90.9c9.4-9.4 24.6-9.4 33.9 0L266.1 108 58.9 315.1zM300 141.9L370.1 212 162.9 419.1c-4.9 4.9-10.9 8.4-17.6 10.3l-86.9 24.1 24.1-86.9c1.8-6.6 5.4-12.7 10.3-17.6L300 141.9zM404 48c6.4 0 12.6 2.6 17.2 7.1l35.7 35.7c4.6 4.6 7.1 10.7 7.1 17.2s-2.6 12.6-7.1 17.2L404 178.1 333.9 108 386.8 55.1c4.6-4.6 10.7-7.1 17.2-7.1z"/>
    </symbol>
    <symbol viewBox="0 0 512 512" id="pencil">
      <path fill="currentColor" d="M58.9 315.1c-10.7 10.7-18.5 24.1-22.6 38.7L.9 481.6c-2.3 8.3 0 17.3 6.2 23.4s15.1 8.5 23.4 6.2l127.8-35.5c14.6-4.1 27.9-11.8 38.7-22.6l294-294C504.4 145.6 512 127.2 512 108s-7.6-37.6-21.2-51.1L455.1 21.2C441.6 7.6 423.2 0 404 0s-37.6 7.6-51.1 21.2l-294 294zM404 48c6.4 0 12.6 2.6 17.2 7.1l35.7 35.7c4.6 4.6 7.1 10.7 7.1 17.2s-2.6 12.6-7.1 17.2L404 178.1 333.9 108 386.8 55.1c4.6-4.6 10.7-7.1 17.2-7.1zM109.9 332L300 141.9 370.1 212 180 402.1 109.9 332zM81.3 371.3l59.4 59.4-82.2 22.8 22.8-82.2z"/>
    </symbol>
    <symbol viewBox="0 0 448 512" id="plus">
      <path fill="currentColor" d="M248 56c0-13.3-10.7-24-24-24s-24 10.7-24 24l0 176-176 0c-13.3 0-24 10.7-24 24s10.7 24 24 24l176 0 0 176c0 13.3 10.7 24 24 24s24-10.7 24-24l0-176 176 0c13.3 0 24-10.7 24-24s-10.7-24-24-24l-176 0 0-176z"/>
    </symbol>
    <symbol viewBox="0 0 512 512" id="print">
      <path fill="currentColor" d="M384 144l48 0 0-37.5c0-17-6.7-33.3-18.7-45.3L370.7 18.7C358.7 6.7 342.5 0 325.5 0L144 0C108.7 0 80 28.7 80 64l0 80 48 0 0-80c0-8.8 7.2-16 16-16l181.5 0c4.2 0 8.3 1.7 11.3 4.7l42.5 42.5c3 3 4.7 7.1 4.7 11.3l0 37.5zM368 368l0 96-224 0 0-96 224 0zM128 320c-17.7 0-32 14.3-32 32l0 16-48 0 0-112c0-8.8 7.2-16 16-16l384 0c8.8 0 16 7.2 16 16l0 112-48 0 0-16c0-17.7-14.3-32-32-32l-256 0zm288 96l64 0c17.7 0 32-14.3 32-32l0-128c0-35.3-28.7-64-64-64L64 192c-35.3 0-64 28.7-64 64L0 384c0 17.7 14.3 32 32 32l64 0 0 64c0 17.7 14.3 32 32 32l256 0c17.7 0 32-14.3 32-32l0-64z"/>
    </symbol>
    <symbol viewBox="0 0 448 512" id="qrcode">
      <path fill="currentColor" d="M48 80l0 96 96 0 0-96-96 0zM0 80C0 53.5 21.5 32 48 32l96 0c26.5 0 48 21.5 48 48l0 96c0 26.5-21.5 48-48 48l-96 0c-26.5 0-48-21.5-48-48L0 80zM48 336l0 96 96 0 0-96-96 0zM0 336c0-26.5 21.5-48 48-48l96 0c26.5 0 48 21.5 48 48l0 96c0 26.5-21.5 48-48 48l-96 0c-26.5 0-48-21.5-48-48l0-96zM400 80l-96 0 0 96 96 0 0-96zM304 32l96 0c26.5 0 48 21.5 48 48l0 96c0 26.5-21.5 48-48 48l-96 0c-26.5 0-48-21.5-48-48l0-96c0-26.5 21.5-48 48-48zM288 352a32 32 0 1 1 0-64 32 32 0 1 1 0 64zm0 64c17.7 0 32 14.3 32 32s-14.3 32-32 32-32-14.3-32-32 14.3-32 32-32zm96 32c0-17.7 14.3-32 32-32s32 14.3 32 32-14.3 32-32 32-32-14.3-32-32zm32-96a32 32 0 1 1 0-64 32 32 0 1 1 0 64zm-32 32a32 32 0 1 1 -64 0 32 32 0 1 1 64 0z"/>
    </symbol>
    <symbol viewBox="0 0 384 512" id="receipt">
      <path fill="currentColor" d="M32.4 1.5C25.1-1.2 16.8-.2 10.3 4.3S0 16.1 0 24L0 488c0 7.9 3.9 15.2 10.3 19.7s14.7 5.5 22.1 2.7l55-20.6 47.1 20.2c6.5 2.8 13.9 2.6 20.2-.6l37.3-18.6 37.3 18.6c6.3 3.2 13.7 3.4 20.2 .6l47.1-20.2 55 20.6c7.4 2.8 15.6 1.7 22.1-2.7S384 495.9 384 488l0-464c0-7.9-3.9-15.2-10.3-19.7s-14.7-5.5-22.1-2.7l-55 20.6-47.1-20.2C243-.8 235.6-.6 229.3 2.5L192 21.2 154.7 2.5C148.4-.6 141-.8 134.5 1.9L87.4 22.1 32.4 1.5zM48 453.4L48 58.6 79.6 70.5c5.8 2.2 12.2 2 17.9-.4l45.8-19.6 38 19c6.8 3.4 14.7 3.4 21.5 0l38-19 45.8 19.6c5.7 2.4 12.1 2.6 17.9 .4l31.6-11.8 0 394.7-31.6-11.8c-5.8-2.2-12.2-2-17.9 .4l-45.8 19.6-38-19c-6.8-3.4-14.7-3.4-21.5 0l-38 19-45.8-19.6c-5.7-2.4-12.1-2.6-17.9-.4L48 453.4zM120 136c-13.3 0-24 10.7-24 24s10.7 24 24 24l144 0c13.3 0 24-10.7 24-24s-10.7-24-24-24l-144 0zm0 192c-13.3 0-24 10.7-24 24s10.7 24 24 24l144 0c13.3 0 24-10.7 24-24s-10.7-24-24-24l-144 0zM96 256c0 13.3 10.7 24 24 24l144 0c13.3 0 24-10.7 24-24s-10.7-24-24-24l-144 0c-13.3 0-24 10.7-24 24z"/>
    </symbol>
    <symbol viewBox="0 0 576 512" id="reply-all">
      <path fill="currentColor" d="M205.7 57l-151 151 151 151c9.4 9.4 9.4 24.6 0 33.9s-24.6 9.4-33.9 0L9.4 230.6c-12.5-12.5-12.5-32.8 0-45.3L171.7 23c9.4-9.4 24.6-9.4 33.9 0s9.4 24.6 0 33.9zm-23 151L304 329.4 304 264c0-13.3 10.7-24 24-24l56 0c66.2 0 122.1 44.7 138.8 105.7 3.2-12.4 5.2-26.2 5.2-41.7 0-70.7-57.3-128-128-128l-72 0c-13.3 0-24-10.7-24-24L304 86.6 182.6 208zM507.3 456.1l0 0c-1.5 1.3-3 2.5-4.5 3.7-9.2 7.4-22.3 7.1-31.1-.8s-10.6-20.9-4.2-30.9c8.2-12.7 12.5-27.2 12.5-44.2 0-53-43-96-96-96l-32 0 0 80c0 12.9-7.8 24.6-19.8 29.6l0 0c-12 5-25.7 2.2-34.9-6.9l-160-160c-12.5-12.5-12.5-32.8 0-45.3l160-160c9.2-9.2 22.9-11.9 34.9-6.9S352 35.1 352 48l0 80 48 0c97.2 0 176 78.8 176 176 0 77.9-38.6 126.2-68.7 152.1z"/>
    </symbol>
    <symbol viewBox="0 0 512 512" id="right-from-bracket">
      <path fill="currentColor" d="M505 273c9.4-9.4 9.4-24.6 0-33.9L361 95c-6.9-6.9-17.2-8.9-26.2-5.2S320 102.3 320 112l0 64-112 0c-26.5 0-48 21.5-48 48l0 64c0 26.5 21.5 48 48 48l112 0 0 64c0 9.7 5.8 18.5 14.8 22.2s19.3 1.7 26.2-5.2L505 273zM368 200l0-30.1 86.1 86.1-86.1 86.1 0-30.1c0-13.3-10.7-24-24-24l-136 0 0-64 136 0c13.3 0 24-10.7 24-24zM168 80c13.3 0 24-10.7 24-24s-10.7-24-24-24L96 32C43 32 0 75 0 128L0 384c0 53 43 96 96 96l72 0c13.3 0 24-10.7 24-24s-10.7-24-24-24l-72 0c-26.5 0-48-21.5-48-48l0-256c0-26.5 21.5-48 48-48l72 0z"/>
    </symbol>
    <symbol viewBox="0 0 512 512" id="right-left">
      <path fill="currentColor" d="M377 0c-22.6 0-41 18.3-41 41l0 63-312 0c-13.3 0-24 10.7-24 24s10.7 24 24 24l312 0 0 63c0 22.6 18.3 41 41 41 10.9 0 21.3-4.3 29-12l99-99c4.5-4.5 7-10.6 7-17s-2.5-12.5-7-17l-99-99c-7.7-7.7-18.1-12-29-12zm7 57.9l70.1 70.1-70.1 70.1 0-140.1zM176 360l0-63c0-22.6-18.3-41-41-41-10.9 0-21.3 4.3-29 12L7 367c-4.5 4.5-7 10.6-7 17s2.5 12.5 7 17l99 99c7.7 7.7 18.1 12 29 12 22.6 0 41-18.3 41-41l0-63 312 0c13.3 0 24-10.7 24-24s-10.7-24-24-24l-312 0zM57.9 384l70.1-70.1 0 140.1-70.1-70.1z"/>
    </symbol>
    <symbol viewBox="0 0 512 512" id="right-to-bracket">
      <path fill="currentColor" d="M201 95L345 239c9.4 9.4 9.4 24.6 0 33.9L201 417c-6.9 6.9-17.2 8.9-26.2 5.2S160 409.7 160 400l0-64-112 0c-26.5 0-48-21.5-48-48l0-64c0-26.5 21.5-48 48-48l112 0 0-64c0-9.7 5.8-18.5 14.8-22.2S194.1 88.2 201 95zm7 217l0 30.1 86.1-86.1-86.1-86.1 0 30.1c0 13.3-10.7 24-24 24l-136 0 0 64 136 0c6.4 0 12.5 2.5 17 7s7 10.6 7 17zM344 432l72 0c26.5 0 48-21.5 48-48l0-256c0-26.5-21.5-48-48-48l-72 0c-13.3 0-24-10.7-24-24s10.7-24 24-24l72 0c53 0 96 43 96 96l0 256c0 53-43 96-96 96l-72 0c-13.3 0-24-10.7-24-24s10.7-24 24-24z"/>
    </symbol>
    <symbol viewBox="0 0 512 512" id="rotate">
      <path fill="currentColor" d="M512.2 24c0-9.7-5.8-18.5-14.8-22.2S478.1 .2 471.2 7L419.4 58.8C318.8-24.7 169.3-19.3 75.1 75 31.9 118.2 7.3 173.1 1.5 229.5 .1 242.7 9.7 254.5 22.9 255.9s25-8.2 26.3-21.4c4.7-45.9 24.7-90.4 59.8-125.5 75.5-75.5 194.6-80.8 276.2-16L335.1 143c-6.9 6.9-8.9 17.2-5.2 26.2S342.4 184 352.1 184l136.1 0c13.3 0 24-10.7 24-24l0-136zm-75.1 85l27.1-27.1 0 54.1-54.1 0 27-27zm73.6 173.6c1.4-13.2-8.2-25-21.4-26.3s-25 8.2-26.3 21.4c-4.7 45.8-24.7 90.4-59.8 125.5-75.5 75.5-194.6 80.8-276.2 16L177.1 369c6.9-6.9 8.9-17.2 5.2-26.2S169.8 328 160.1 328L24 328c-13.3 0-24 10.7-24 24L0 488c0 9.7 5.8 18.5 14.8 22.2S34.1 511.8 41 505l51.8-51.8c100.6 83.5 250.1 78.1 344.3-16.2 43.2-43.2 67.8-98.1 73.6-154.5zM48 430.1l0-54.1 54.1 0-54.1 54.1z"/>
    </symbol>
    <symbol viewBox="0 0 512 512" id="shapes">
      <path fill="currentColor" d="M188.3 176L323.7 176 256 63.1 188.3 176zM256 0c11.2 0 21.7 5.9 27.4 15.5l96 160c5.9 9.9 6.1 22.2 .4 32.2S363.5 224 352 224l-192 0c-11.5 0-22.2-6.2-27.8-16.2s-5.5-22.3 .4-32.2l96-160C234.3 5.9 244.8 0 256 0zM128 448a64 64 0 1 0 0-128 64 64 0 1 0 0 128zm0-176a112 112 0 1 1 0 224 112 112 0 1 1 0-224zM336 432l96 0 0-96-96 0 0 96zm-8-144l112 0c22.1 0 40 17.9 40 40l0 112c0 22.1-17.9 40-40 40l-112 0c-22.1 0-40-17.9-40-40l0-112c0-22.1 17.9-40 40-40z"/>
    </symbol>
    <symbol viewBox="0 0 512 512" id="share-nodes">
      <path fill="currentColor" d="M432 96a48 48 0 1 0 -96 0 48 48 0 1 0 96 0zm48 0c0 53-43 96-96 96-27.4 0-52.1-11.5-69.6-29.9L188.9 231.8c2 7.7 3.1 15.8 3.1 24.2s-1.1 16.5-3.1 24.2l125.5 69.7c17.5-18.4 42.2-29.9 69.6-29.9 53 0 96 43 96 96s-43 96-96 96-96-43-96-96c0-8.3 1.1-16.5 3.1-24.2L165.6 322.1C148.1 340.5 123.4 352 96 352 43 352 0 309 0 256s43-96 96-96c27.4 0 52.1 11.5 69.6 29.9l125.5-69.7c-2-7.7-3.1-15.8-3.1-24.2 0-53 43-96 96-96s96 43 96 96zM144 256a48 48 0 1 0 -96 0 48 48 0 1 0 96 0zM384 464a48 48 0 1 0 0-96 48 48 0 1 0 0 96z"/>
    </symbol>
    <symbol viewBox="0 0 512 512" id="shield">
      <path fill="currentColor" d="M256 49.4L73.1 127c-5.9 2.5-9.1 7.8-9 12.8 .5 91.4 38.4 249.3 186.4 320.1 3.6 1.7 7.8 1.7 11.3 0 148-70.8 185.9-228.7 186.3-320.1 0-5-3.1-10.2-9-12.8L256 49.4zM269.4 2.9L457.8 82.8c22 9.3 38.4 31 38.3 57.2-.5 99.2-41.3 280.7-213.6 363.2-16.7 8-36.1 8-52.8 0-172.4-82.5-213.2-264-213.6-363.2-.1-26.2 16.3-47.9 38.3-57.2L242.7 2.9C246.9 1 251.4 0 256 0s9.2 1 13.4 2.9z"/>
    </symbol>
    <symbol viewBox="0 0 576 512" id="shop">
      <path fill="currentColor" d="M121.2 88.8c2.7-5.4 8.3-8.8 14.3-8.8l304.9 0c6.1 0 11.6 3.4 14.3 8.8l56.8 113.7c.3 .5 .4 1.1 .4 1.7 0 2.1-1.7 3.8-3.8 3.8L67.8 208c-2.1 0-3.8-1.7-3.8-3.8 0-.6 .1-1.2 .4-1.7L121.2 88.8zM16 204.2c0 27.3 21.2 49.7 48 51.6l0 .1 0 176c0 26.5 21.5 48 48 48l192 0c26.5 0 48-21.5 48-48l0-176 112 0 0 200c0 13.3 10.7 24 24 24s24-10.7 24-24l0-200.1c26.8-1.9 48-24.3 48-51.6 0-8-1.9-16-5.5-23.2L497.7 67.4C486.8 45.7 464.7 32 440.4 32L135.6 32c-24.2 0-46.4 13.7-57.2 35.4L21.5 181.1c-3.6 7.2-5.5 15.1-5.5 23.2zM112 336l0-80 192 0 0 80-192 0zm0 48l192 0 0 48-192 0 0-48z"/>
    </symbol>
    <symbol viewBox="0 0 512 512" id="sitemap">
      <path fill="currentColor" d="M240 80l32 0 0 32-32 0 0-32zM224 32c-17.7 0-32 14.3-32 32l0 64c0 17.7 14.3 32 32 32l8 0 0 64-120 0c-39.8 0-72 32.2-72 72l0 56-8 0c-17.7 0-32 14.3-32 32l0 64c0 17.7 14.3 32 32 32l64 0c17.7 0 32-14.3 32-32l0-64c0-17.7-14.3-32-32-32l-8 0 0-56c0-13.3 10.7-24 24-24l120 0 0 80-8 0c-17.7 0-32 14.3-32 32l0 64c0 17.7 14.3 32 32 32l64 0c17.7 0 32-14.3 32-32l0-64c0-17.7-14.3-32-32-32l-8 0 0-80 120 0c13.3 0 24 10.7 24 24l0 56-8 0c-17.7 0-32 14.3-32 32l0 64c0 17.7 14.3 32 32 32l64 0c17.7 0 32-14.3 32-32l0-64c0-17.7-14.3-32-32-32l-8 0 0-56c0-39.8-32.2-72-72-72l-120 0 0-64 8 0c17.7 0 32-14.3 32-32l0-64c0-17.7-14.3-32-32-32l-64 0zM48 432l0-32 32 0 0 32-32 0zm192 0l0-32 32 0 0 32-32 0zm192 0l0-32 32 0 0 32-32 0z"/>
    </symbol>
    <symbol viewBox="0 0 448 512" id="square">
      <path fill="currentColor" d="M384 80c8.8 0 16 7.2 16 16l0 320c0 8.8-7.2 16-16 16L64 432c-8.8 0-16-7.2-16-16L48 96c0-8.8 7.2-16 16-16l320 0zM64 32C28.7 32 0 60.7 0 96L0 416c0 35.3 28.7 64 64 64l320 0c35.3 0 64-28.7 64-64l0-320c0-35.3-28.7-64-64-64L64 32z"/>
    </symbol>
    <symbol viewBox="0 0 448 512" id="square-check">
      <path fill="currentColor" d="M64 80c-8.8 0-16 7.2-16 16l0 320c0 8.8 7.2 16 16 16l320 0c8.8 0 16-7.2 16-16l0-320c0-8.8-7.2-16-16-16L64 80zM0 96C0 60.7 28.7 32 64 32l320 0c35.3 0 64 28.7 64 64l0 320c0 35.3-28.7 64-64 64L64 480c-35.3 0-64-28.7-64-64L0 96zM308.4 204.7l-80 128c-4.2 6.7-11.4 10.9-19.3 11.3s-15.5-3.2-20.2-9.6l-48-64c-8-10.6-5.8-25.6 4.8-33.6s25.6-5.8 33.6 4.8l27 36 61.4-98.3c7-11.2 21.8-14.7 33.1-7.6s14.7 21.8 7.6 33.1z"/>
    </symbol>
    <symbol viewBox="0 0 448 512" id="square-minus">
      <path fill="currentColor" d="M64 80c-8.8 0-16 7.2-16 16l0 320c0 8.8 7.2 16 16 16l320 0c8.8 0 16-7.2 16-16l0-320c0-8.8-7.2-16-16-16L64 80zM0 96C0 60.7 28.7 32 64 32l320 0c35.3 0 64 28.7 64 64l0 320c0 35.3-28.7 64-64 64L64 480c-35.3 0-64-28.7-64-64L0 96zM136 232l176 0c13.3 0 24 10.7 24 24s-10.7 24-24 24l-176 0c-13.3 0-24-10.7-24-24s10.7-24 24-24z"/>
    </symbol>
    <symbol viewBox="0 0 576 512" id="star">
      <path fill="currentColor" d="M288.1-32c9 0 17.3 5.1 21.4 13.1L383 125.3 542.9 150.7c8.9 1.4 16.3 7.7 19.1 16.3s.5 18-5.8 24.4L441.7 305.9 467 465.8c1.4 8.9-2.3 17.9-9.6 23.2s-17 6.1-25 2L288.1 417.6 143.8 491c-8 4.1-17.7 3.3-25-2s-11-14.2-9.6-23.2L134.4 305.9 20 191.4c-6.4-6.4-8.6-15.8-5.8-24.4s10.1-14.9 19.1-16.3l159.9-25.4 73.6-144.2c4.1-8 12.4-13.1 21.4-13.1zm0 76.8L230.3 158c-3.5 6.8-10 11.6-17.6 12.8l-125.5 20 89.8 89.9c5.4 5.4 7.9 13.1 6.7 20.7l-19.8 125.5 113.3-57.6c6.8-3.5 14.9-3.5 21.8 0l113.3 57.6-19.8-125.5c-1.2-7.6 1.3-15.3 6.7-20.7l89.8-89.9-125.5-20c-7.6-1.2-14.1-6-17.6-12.8L288.1 44.8z"/>
    </symbol>
    <symbol viewBox="0 0 512 512" id="store">
      <path fill="currentColor" d="M29.9 81.9C40.4 52 68.6 32 100.3 32l312.2 0c31.7 0 59.9 20 70.4 49.9l18.4 52.6c11 31.5 1 63.9-20.9 84.4l0 189.2c0 39.8-32.2 72-72 72l-304 0c-39.8 0-72-32.2-72-72l0-189.2C10.5 198.4 .5 166 11.5 134.5L29.9 81.9zM80.4 239.8l0 80.2 352 0 0-80.2c-2 .1-3.9 .2-5.9 .2-21.8 0-41.8-8.9-56.2-23.3-14.6 14.4-34.6 23.3-56.9 23.3-22.2 0-42.4-9-57-23.5-14.6 14.5-34.8 23.5-57 23.5-22.3 0-42.3-8.9-56.9-23.3-14.4 14.5-34.3 23.3-56.2 23.3-2 0-4-.1-6-.2zM174.1 80l-7.6 75.7c-1.9 19.4 13.3 36.3 32.8 36.3 18.2 0 33-14.8 33-33l0-79-58.3 0zm106.3 79c0 18.2 14.8 33 33 33 19.5 0 34.8-16.9 32.8-36.3l-7.6-75.7-58.3 0 0 79zm114.9 4.8c1.6 16 15.1 28.2 31.1 28.2 21.6 0 36.7-21.3 29.5-41.6L437.6 97.8C433.9 87.1 423.8 80 412.5 80l-25.6 0 8.4 83.8zM86.4 192c16.1 0 29.5-12.2 31.1-28.2l8.4-83.8-25.6 0C89 80 79 87.1 75.2 97.8L56.8 150.4c-7.1 20.4 8 41.6 29.5 41.6zm-6 216c0 13.3 10.7 24 24 24l304 0c13.3 0 24-10.7 24-24l0-40-352 0 0 40z"/>
    </symbol>
    <symbol viewBox="0 0 576 512" id="tags">
      <path fill="currentColor" d="M367.2 38.9c-9.4 9.3-9.5 24.5-.2 33.9L515.3 223.1c9.2 9.4 9.2 24.4 0 33.7L358.8 415.1c-9.3 9.4-9.2 24.6 .2 33.9s24.6 9.2 33.9-.2L549.4 290.6c27.7-28 27.7-73.1 0-101.2L401.2 39.1c-9.3-9.4-24.5-9.5-33.9-.2zM80.1 96c0-8.8 7.2-16 16-16l133.5 0c4.2 0 8.3 1.7 11.3 4.7l144 144c6.2 6.2 6.2 16.4 0 22.6L251.4 384.8c-6.2 6.2-16.4 6.2-22.6 0l-144-144c-3-3-4.7-7.1-4.7-11.3L80.1 96zm-48 0l0 133.5c0 17 6.7 33.3 18.7 45.3l144 144c25 25 65.5 25 90.5 0L418.8 285.3c25-25 25-65.5 0-90.5l-144-144c-12-12-28.3-18.7-45.3-18.7L96.1 32c-35.3 0-64 28.7-64 64zm112 80a32 32 0 1 0 0-64 32 32 0 1 0 0 64z"/>
    </symbol>
    <symbol viewBox="0 0 576 512" id="tape">
      <path fill="currentColor" d="M256 80a176 176 0 1 1 0 352 176 176 0 1 1 0-352zM394.6 432c52-41 85.4-104.6 85.4-176 0-123.7-100.3-224-224-224S32 132.3 32 256 132.3 480 256 480l296 0c13.3 0 24-10.7 24-24s-10.7-24-24-24l-157.4 0zM256 208a48 48 0 1 1 0 96 48 48 0 1 1 0-96zm0 144a96 96 0 1 0 0-192 96 96 0 1 0 0 192z"/>
    </symbol>
    <symbol viewBox="0 0 512 512" id="thumbs-down">
      <path fill="currentColor" d="M360 32l7.4 .4c35 3.6 62.5 32.2 64.4 67.7 17.8 11.8 30.1 31.4 32 53.9l.2 6c0 5.7-.7 11.2-2 16.5 10.2 11.5 16.8 26.3 17.8 42.7l.2 4.8c0 13.2-3.6 25.4-9.8 36 4.9 8.4 8.2 17.9 9.3 28l.4 8c0 37.3-28.3 67.9-64.6 71.6l-7.4 .4-109.7 0 14.1 30 3.1 7.6c12.5 35.7-1.8 75.5-34.2 95l-7.2 3.9c-37.5 17.6-81.7 3.6-102.6-31.2l-.6-.9-2.7-5-.6-1.2-30.1-64c-9.4 17.8-28 29.9-49.5 29.9l-32 0c-30.9 0-56-25.1-56-56L0 152c0-30.9 25.1-56 56-56l32 0c12.4 0 23.9 4.1 33.2 11 13.2-21.4 32-39.4 55-51.6l12.2-6.5 .7-.3 6.6-3.2 .7-.3 7.1-3c16.7-6.6 34.5-9.9 52.6-9.9L360 32zM255.9 80c-12 0-23.9 2.3-35.1 6.6l-4.7 2-5.3 2.6 0 0-12.2 6.5c-29.2 15.5-48.3 44.9-50.7 77.6l-.2 8 0 112.9 .1 4.1c.5 8.2 2.5 16.2 6 23.7l56.8 120.9 2.1 3.8c8.4 13.7 26 19.1 40.8 12.2l2.9-1.6c13-7.8 18.7-23.7 13.7-38l-1.2-3-30.2-64.2c-3.5-7.4-2.9-16.1 1.5-23.1s12-11.1 20.2-11.1l147.5 0 2.4-.1c11.3-1.1 20.3-10.1 21.4-21.4l.1-2.5c0-7.1-3.1-13.5-8.2-18-5.2-4.6-8.2-11.1-8.2-18s3-13.4 8.2-18c4.4-3.9 7.4-9.3 8-15.3l.2-2.7c0-8.4-4.4-15.9-11.2-20.2-10.7-6.9-14.2-20.9-8-32 1.5-2.6 2.5-5.6 2.9-8.6l.2-3.2c0-10.6-6.9-19.6-16.6-22.8-11.7-3.8-18.7-15.9-16-28 .2-.9 .3-1.8 .4-2.6l.2-2.6c0-12.4-9.5-22.6-21.6-23.8L360 80 255.9 80zM56 144c-4.4 0-8 3.6-8 8l0 224c0 4.4 3.6 8 8 8l32 0c4.4 0 8-3.6 8-8l0-224c0-4.4-3.6-8-8-8l-32 0z"/>
    </symbol>
    <symbol viewBox="0 0 448 512" id="trash">
      <path fill="currentColor" d="M136.2 4.8c4.7-12.5 16.6-20.8 30-20.8l115.6 0c13.3 0 25.3 8.3 30 20.8L328 48 424 48c13.3 0 24 10.7 24 24s-10.7 24-24 24L24 96C10.7 96 0 85.3 0 72S10.7 48 24 48l96 0 16.2-43.2zm-84.6 448L28.7 144 76.9 144 99.5 449.2c.6 8.4 7.6 14.8 16 14.8l217.1 0c8.4 0 15.3-6.5 16-14.8l22.6-305.2 48.1 0-22.9 308.7c-2.5 33.4-30.3 59.3-63.8 59.3l-217.1 0c-33.5 0-61.3-25.9-63.8-59.3z"/>
    </symbol>
    <symbol viewBox="0 0 448 512" id="trash-can">
      <path fill="currentColor" d="M166.2-16c-13.3 0-25.3 8.3-30 20.8L120 48 24 48C10.7 48 0 58.7 0 72S10.7 96 24 96l400 0c13.3 0 24-10.7 24-24s-10.7-24-24-24l-96 0-16.2-43.2C307.1-7.7 295.2-16 281.8-16L166.2-16zM32 144l0 304c0 35.3 28.7 64 64 64l256 0c35.3 0 64-28.7 64-64l0-304-48 0 0 304c0 8.8-7.2 16-16 16L96 464c-8.8 0-16-7.2-16-16l0-304-48 0zm160 72c0-13.3-10.7-24-24-24s-24 10.7-24 24l0 176c0 13.3 10.7 24 24 24s24-10.7 24-24l0-176zm112 0c0-13.3-10.7-24-24-24s-24 10.7-24 24l0 176c0 13.3 10.7 24 24 24s24-10.7 24-24l0-176z"/>
    </symbol>
    <symbol viewBox="0 0 448 512" id="tree">
      <path fill="currentColor" d="M224.5-32c7 0 13.7 3.1 18.3 8.5l136 160c6.1 7.1 7.4 17.1 3.5 25.6-3.9 8.5-12.4 13.9-21.8 13.9l-24.9 0 75.2 88.5c6.1 7.1 7.4 17.1 3.5 25.6S401.8 304 392.5 304l-38.5 0 88.8 104.5c6.1 7.1 7.4 17.1 3.5 25.6S433.8 448 424.5 448l-176 0 0 72c0 13.3-10.7 24-24 24s-24-10.7-24-24l0-72-176 0c-9.4 0-17.9-5.4-21.8-13.9S.2 415.6 6.2 408.5L95 304 56.5 304c-9.4 0-17.9-5.4-21.8-13.9s-2.6-18.5 3.5-25.6l75.2-88.5-24.9 0c-9.4 0-17.9-5.4-21.8-13.9s-2.6-18.5 3.5-25.6l136-160 1.8-1.9c4.4-4.2 10.3-6.6 16.5-6.6zM140.4 128l24.9 0c9.3 0 17.9 5.5 21.8 13.9s2.5 18.5-3.5 25.6l-75.2 88.5 38.5 0c9.3 0 17.9 5.4 21.8 13.9s2.5 18.5-3.5 25.6L76.4 400 372.6 400 283.8 295.5c-6.1-7.1-7.4-17.1-3.5-25.6S292.7 256 302.1 256l38.5 0-75.2-88.5c-6-7.1-7.4-17.1-3.5-25.6S274.3 128 283.7 128l24.9 0-84.1-99-84.1 99z"/>
    </symbol>
    <symbol viewBox="0 0 576 512" id="truck">
      <path fill="currentColor" d="M64 80c-8.8 0-16 7.2-16 16l0 288c0 8.8 7.2 16 16 16l3.3 0c10.4-36.9 44.4-64 84.7-64s74.2 27.1 84.7 64l102.6 0c4.9-17.4 15.1-32.7 28.7-43.9L368 96c0-8.8-7.2-16-16-16L64 80zm3.3 368L64 448c-35.3 0-64-28.7-64-64L0 96C0 60.7 28.7 32 64 32l288 0c35.3 0 64 28.7 64 64l0 32 55.4 0c17 0 33.3 6.7 45.3 18.7l40.6 40.6c12 12 18.7 28.3 18.7 45.3L576 384c0 35.3-28.7 64-64 64l-3.3 0c-10.4 36.9-44.4 64-84.7 64s-74.2-27.1-84.7-64l-102.6 0c-10.4 36.9-44.4 64-84.7 64s-74.2-27.1-84.7-64zM416 256l112 0 0-23.4c0-4.2-1.7-8.3-4.7-11.3l-40.6-40.6c-3-3-7.1-4.7-11.3-4.7l-55.4 0 0 80zm0 48l0 32.4c2.6-.2 5.3-.4 8-.4 40.3 0 74.2 27.1 84.7 64l3.3 0c8.8 0 16-7.2 16-16l0-80-112 0zM152 464a40 40 0 1 0 0-80 40 40 0 1 0 0 80zm272 0a40 40 0 1 0 0-80 40 40 0 1 0 0 80z"/>
    </symbol>
    <symbol viewBox="0 0 512 512" id="up-right-and-down-left-from-center">
      <path fill="currentColor" d="M323.3 0c-19.5 0-35.3 15.8-35.3 35.3 0 9.4 3.7 18.3 10.3 25L326.1 88 264 150.1c-18.7 18.7-18.7 49.1 0 67.9L294.1 248c18.7 18.7 49.1 18.7 67.9 0l62.1-62.1 27.7 27.7c6.6 6.6 15.6 10.3 25 10.3 19.5 0 35.3-15.8 35.3-35.3L512 40c0-22.1-17.9-40-40-40L323.3 0zM377 71l-23-23 110.1 0 0 110.1-23-23c-9.4-9.4-24.6-9.4-33.9 0l-79 79-30.1-30.1 79-79c9.4-9.4 9.4-24.6 0-33.9zM188.7 512c19.5 0 35.3-15.8 35.3-35.3 0-9.4-3.7-18.3-10.3-25L185.9 424 248 361.9c18.7-18.7 18.7-49.1 0-67.9L217.9 264c-18.7-18.7-49.1-18.7-67.9 0L88 326.1 60.3 298.3C53.7 291.7 44.7 288 35.3 288 15.8 288 0 303.8 0 323.3L0 472c0 22.1 17.9 40 40 40l148.7 0zM135 441l23 23-110.1 0 0-110.1 23 23c9.4 9.4 24.6 9.4 33.9 0l79-79 30.1 30.1-79 79c-9.4 9.4-9.4 24.6 0 33.9z"/>
    </symbol>
    <symbol viewBox="0 0 448 512" id="upload">
      <path fill="currentColor" d="M248 328c0 13.3-10.7 24-24 24s-24-10.7-24-24l0-246.1-63 63c-9.4 9.4-24.6 9.4-33.9 0s-9.4-24.6 0-33.9L207 7c9.4-9.4 24.6-9.4 33.9 0L345 111c9.4 9.4 9.4 24.6 0 33.9s-24.6 9.4-33.9 0l-63-63 0 246.1zm-96-8l-88 0c-8.8 0-16 7.2-16 16l0 80c0 8.8 7.2 16 16 16l320 0c8.8 0 16-7.2 16-16l0-80c0-8.8-7.2-16-16-16l-88 0 0-48 88 0c35.3 0 64 28.7 64 64l0 80c0 35.3-28.7 64-64 64L64 480c-35.3 0-64-28.7-64-64l0-80c0-35.3 28.7-64 64-64l88 0 0 48zm168 56a24 24 0 1 1 48 0 24 24 0 1 1 -48 0z"/>
    </symbol>
    <symbol viewBox="0 0 448 512" id="user">
      <path fill="currentColor" d="M144 128a80 80 0 1 1 160 0 80 80 0 1 1 -160 0zm208 0a128 128 0 1 0 -256 0 128 128 0 1 0 256 0zM48 480c0-70.7 57.3-128 128-128l96 0c70.7 0 128 57.3 128 128l0 8c0 13.3 10.7 24 24 24s24-10.7 24-24l0-8c0-97.2-78.8-176-176-176l-96 0C78.8 304 0 382.8 0 480l0 8c0 13.3 10.7 24 24 24s24-10.7 24-24l0-8z"/>
    </symbol>
    <symbol viewBox="0 0 640 512" id="user-gear">
      <path fill="currentColor" d="M336.5 128a80 80 0 1 0 -160 0 80 80 0 1 0 160 0zm-208 0a128 128 0 1 1 256 0 128 128 0 1 1 -256 0zm-48 352l0 8c0 13.3-10.7 24-24 24s-24-10.7-24-24l0-8c0-97.2 78.8-176 176-176l79.2 0c-7.4 15.4-8.9 32.3-5.1 48l-74.1 0c-70.7 0-128 57.3-128 128zM432.6 247.6c0-13.3 10.7-24 24-24l48 0c13.3 0 24 10.7 24 24l0 6.1c0 18.9 24.1 32.8 40.5 23.4l5-2.9c11.6-6.7 26.5-2.6 33 9.1l22.4 40.2c6.2 11.2 2.6 25.2-8.2 32l-4.7 2.9c-16.2 10.1-16.2 39.9 0 50.1l4.6 2.9c10.8 6.8 14.5 20.8 8.3 32L607 483.8c-6.5 11.7-21.4 15.9-33 9.1l-4.9-2.9c-16.4-9.5-40.5 4.5-40.5 23.4l0 6.1c0 13.3-10.7 24-24 24l-48 0c-13.3 0-24-10.7-24-24l0-5.9c0-19-24.2-33-40.7-23.5l-4.8 2.8c-11.6 6.7-26.4 2.6-33-9.1l-22.6-40.4c-6.2-11.2-2.6-25.3 8.3-32.1l4.4-2.7c16.3-10.1 16.3-40.1 0-50.2l-4.5-2.8c-10.9-6.8-14.5-20.9-8.3-32.1l22.5-40.3c6.5-11.7 21.4-15.8 32.9-9.1l4.8 2.8c16.5 9.5 40.7-4.5 40.7-23.5l0-5.9zm99.9 136.2a52 52 0 1 0 -104 0 52 52 0 1 0 104 0z"/>
    </symbol>
    <symbol viewBox="0 0 576 512" id="user-lock">
      <path fill="currentColor" d="M304 128a80 80 0 1 0 -160 0 80 80 0 1 0 160 0zM96 128a128 128 0 1 1 256 0 128 128 0 1 1 -256 0zM48 480l0 8c0 13.3-10.7 24-24 24S0 501.3 0 488l0-8c0-97.2 78.8-176 176-176l96 0c22.6 0 44.2 4.3 64 12l0 12.4c-9.5 8.5-17.3 18.8-22.8 30.4-12.9-4.4-26.8-6.8-41.2-6.8l-96 0c-70.7 0-128 57.3-128 128zM496 304.1c0-17.7-14.3-32-32-32s-32 14.3-32 32l0 47.9 64 0 0-47.9zM352 400c0-20.9 13.4-38.7 32-45.3l0-50.6c0-44.2 35.8-80 80-80s80 35.8 80 80l0 50.6c18.6 6.6 32 24.4 32 45.3l0 96c0 26.5-21.5 48-48 48l-128 0c-26.5 0-48-21.5-48-48l0-96z"/>
    </symbol>
    <symbol viewBox="0 0 640 512" id="user-magnifying-glass">
      <path fill="currentColor" d="M176.5 128a80 80 0 1 1 160 0 80 80 0 1 1 -160 0zm208 0a128 128 0 1 0 -256 0 128 128 0 1 0 256 0zM80.5 480c0-70.7 57.3-128 128-128l80.2 0c.8-16.8 4-32.9 9.4-48l-89.6 0c-97.2 0-176 78.8-176 176l0 8c0 13.3 10.7 24 24 24s24-10.7 24-24l0-8zm376-192a72 72 0 1 1 0 144 72 72 0 1 1 0-144zm0 192c24.4 0 47.1-7.3 66.1-19.8l60.9 60.9c9.4 9.4 24.6 9.4 33.9 0s9.4-24.6 0-33.9l-60.9-60.9c12.6-19 19.9-41.8 19.9-66.3 0-66.3-53.7-120-120-120s-120 53.7-120 120 53.7 120 120 120z"/>
    </symbol>
    <symbol viewBox="0 0 448 512" id="user-ninja">
      <path fill="currentColor" d="M352 128c0-70.7-57.3-128-128-128-49.6 0-92.6 28.2-113.8 69.4-3-5.8-6.8-11.3-11.7-16.1-15.8-15.8-38.8-20.7-53.6-22.1-8.1-.8-14.6 5.7-13.8 13.8 1.4 14.7 6.3 37.8 22.1 53.6 5.8 5.8 12.6 10.1 19.6 13.4-7 3.2-13.8 7.6-19.6 13.4-15.8 15.8-20.7 38.8-22.1 53.6-.8 8.1 5.7 14.6 13.8 13.8 14.7-1.4 37.8-6.3 53.6-22.1 1.2-1.2 2.4-2.5 3.5-3.8 16.4 51.8 64.8 89.3 122 89.3 70.7 0 128-57.3 128-128zM144 112c0-8.8 7.2-16 16-16l128 0c8.8 0 16 7.2 16 16s-7.2 16-16 16l-128 0c-8.8 0-16-7.2-16-16zm-1.2 195.4c-1.4 .1-2.9 .3-4.3 .6-79.2 17.2-138.5 87.6-138.5 172l0 8c0 13.3 10.7 24 24 24s24-10.7 24-24l0-8c0-56.8 37.1-105.1 88.4-121.8l70.2 74.2 0 0 56 59.2c9.1 9.6 24.3 10.1 33.9 1s10.1-24.3 1-33.9L257 416 311.6 358.2C362.9 374.9 400 423.2 400 480l0 8c0 13.3 10.7 24 24 24s24-10.7 24-24l0-8c0-84.5-59.6-155.1-139-172.1-8.2-1.8-16.7 .9-22.5 7l-62.6 66.2-62.6-66.2c-4.1-4.4-9.5-6.9-15.1-7.4-1.2-.1-2.3-.1-3.5-.1z"/>
    </symbol>
    <symbol viewBox="0 0 448 512" id="user-secret">
      <path fill="currentColor" d="M102.7 96c10.4-53.7 31.9-112 68.3-112 9.6 0 19 3.9 27.5 8.2 8.2 4.1 18.4 7.8 25.5 7.8s17.3-3.7 25.5-7.8c8.5-4.3 17.9-8.2 27.5-8.2 36.4 0 57.8 58.3 68.3 112L376 96c13.3 0 24 10.7 24 24s-10.7 24-24 24l-24 0 0 32c0 17-3.3 33.2-9.3 48l33.3 0c8.1 0 15.6 4 20 10.8s5.2 15.2 2.1 22.6l-31.5 74.2c48.9 31.2 81.4 86 81.4 148.5l0 8c0 13.3-10.7 24-24 24s-24-10.7-24-24l0-8c0-51.4-30.3-95.8-74.1-116.1-11.7-5.5-17-19.2-12-31.2l25.8-60.7-27.7 0c-1.1 0-2.1-.1-3.1-.2-22.6 20-52.3 32.2-84.9 32.2s-62.3-12.2-84.9-32.2c-1 .1-2.1 .2-3.1 .2l-27.7 0 25.8 60.7c5.1 11.9-.2 25.7-12 31.2-43.8 20.4-74.1 64.7-74.1 116.1l0 8c0 13.3-10.7 24-24 24S0 501.3 0 488l0-8c0-62.4 32.5-117.2 81.4-148.5L49.9 257.4c-3.2-7.4-2.4-15.9 2.1-22.6S63.9 224 72 224l33.3 0c-6-14.8-9.3-31-9.3-48l0-32-24 0c-13.3 0-24-10.7-24-24S58.7 96 72 96l30.7 0zm45.9 107c11.1 30.9 40.6 53 75.3 53s64.2-22.1 75.3-53c-5.7 3.2-12.3 5-19.3 5l-12.4 0c-16.5 0-31.1-10.6-36.3-26.2-2.3-7-12.2-7-14.5 0-5.2 15.6-19.9 26.2-36.3 26.2L168 208c-7 0-13.6-1.8-19.3-5zm44.8 133l61 0c9.7 0 17.5 7.8 17.5 17.5 0 4.2-1.5 8.2-4.2 11.4l-27.9 32.5 28.9 82.6c5.5 15.6-6.1 31.9-22.7 31.9l-44.3 0c-16.5 0-28.1-16.3-22.7-31.9l28.9-82.6-27.9-32.5c-2.7-3.2-4.2-7.2-4.2-11.4 0-9.7 7.8-17.5 17.5-17.5z"/>
    </symbol>
    <symbol viewBox="0 0 576 512" id="user-shield">
      <path fill="currentColor" d="M144 128a80 80 0 1 1 160 0 80 80 0 1 1 -160 0zm208 0a128 128 0 1 0 -256 0 128 128 0 1 0 256 0zM48 480c0-70.7 57.3-128 128-128l64 0 0-26.7c0-7.3 1-14.5 2.9-21.3L176 304C78.8 304 0 382.8 0 480l0 8c0 13.3 10.7 24 24 24s24-10.7 24-24l0-8zm397.3 8.5l-13.3 6.3 0-188.1 96 32 0 19.6c0 55.8-32.2 106.5-82.7 130.3zM421.9 259.5l-112 37.3c-13.1 4.4-21.9 16.6-21.9 30.4l0 31.1c0 74.4 43 142.1 110.2 173.7l18.5 8.7c4.8 2.2 10 3.4 15.2 3.4s10.5-1.2 15.2-3.4l18.5-8.7C533 500.3 576 432.6 576 358.2l0-31.1c0-13.8-8.8-26-21.9-30.4l-112-37.3c-6.6-2.2-13.7-2.2-20.2 0z"/>
    </symbol>
    <symbol viewBox="0 0 640 512" id="user-tag">
      <path fill="currentColor" d="M336.1 128a80 80 0 1 0 -160 0 80 80 0 1 0 160 0zm-208 0a128 128 0 1 1 256 0 128 128 0 1 1 -256 0zm-48 352l0 8c0 13.3-10.7 24-24 24s-24-10.7-24-24l0-8c0-97.2 78.8-176 176-176l96 0 1.6 0c-1.1 5.2-1.6 10.6-1.6 16.1l0 31.9-96 0c-70.7 0-128 57.3-128 128zm272-67.8l0-92.1c0-17.7 14.3-32 32-32l92.1 0c12.7 0 24.9 5.1 33.9 14.1l96 96c18.7 18.7 18.7 49.1 0 67.9l-76.1 76.1c-18.7 18.7-49.1 18.7-67.9 0l-96-96c-9-9-14.1-21.2-14.1-33.9zm104-44.2a24 24 0 1 0 -48 0 24 24 0 1 0 48 0z"/>
    </symbol>
    <symbol viewBox="0 0 448 512" id="user-tie">
      <path fill="currentColor" d="M224 208a80 80 0 1 0 0-160 80 80 0 1 0 0 160zm128-80a128 128 0 1 1 -256 0 128 128 0 1 1 256 0zM193.5 304l61 0c9.7 0 17.5 7.8 17.5 17.5 0 4.2-1.5 8.2-4.2 11.4l-27.4 32 18.4 68.2 56.2-102.5C321 319.5 334.7 315 346.1 320.3 406.2 348.3 448 409.2 448 480l0 8c0 13.3-10.7 24-24 24s-24-10.7-24-24l0-8c0-43.4-21.6-81.8-54.7-105L277 499.5c-4.2 7.7-12.3 12.5-21 12.5l-64 0c-8.8 0-16.8-4.8-21-12.5L102.7 375C69.6 398.2 48 436.6 48 480l0 8c0 13.3-10.7 24-24 24S0 501.3 0 488l0-8c0-70.8 41.8-131.7 101.9-159.7 11.5-5.3 25.1-.9 31.2 10.2l55.9 102 18.5-67.8-27.2-31.8c-2.7-3.2-4.2-7.2-4.2-11.4 0-9.7 7.8-17.5 17.5-17.5z"/>
    </symbol>
    <symbol viewBox="0 0 640 512" id="users">
      <path fill="currentColor" d="M320 192a64 64 0 1 0 0-128 64 64 0 1 0 0 128zm0-176a112 112 0 1 1 0 224 112 112 0 1 1 0-224zM296 336c-57.4 0-104 46.6-104 104l0 16c0 13.3-10.7 24-24 24s-24-10.7-24-24l0-16c0-83.9 68.1-152 152-152l48 0c83.9 0 152 68.1 152 152l0 16c0 13.3-10.7 24-24 24s-24-10.7-24-24l0-16c0-57.4-46.6-104-104-104l-48 0zm135.4-93.2c11.7-11.3 21.6-24.4 29.4-38.8 5.9 2.6 12.4 4 19.2 4 26.5 0 48-21.5 48-48s-21.5-48-48-48l-.8 0c-1.6-16.6-5.8-32.4-12.1-47.1 4.2-.6 8.6-.9 12.9-.9 53 0 96 43 96 96s-43 96-96 96c-17.7 0-34.3-4.8-48.6-13.2zM160 64c4.4 0 8.7 .3 12.9 .9-6.3 14.7-10.5 30.6-12.1 47.1l-.8 0c-26.5 0-48 21.5-48 48s21.5 48 48 48c6.8 0 13.3-1.4 19.2-4 7.8 14.4 17.7 27.5 29.4 38.8-14.2 8.4-30.8 13.2-48.6 13.2-53 0-96-43-96-96s43-96 96-96zM149.3 304c-15.1 16.3-27.5 35-36.5 55.6-38 15.5-64.8 52.8-64.8 96.4 0 13.3-10.7 24-24 24S0 469.3 0 456c0-83.1 66.6-150.6 149.3-152zm377.9 55.6c-9-20.6-21.5-39.4-36.5-55.6 82.7 1.4 149.3 68.9 149.3 152 0 13.3-10.7 24-24 24s-24-10.7-24-24c0-43.6-26.8-80.9-64.8-96.4z"/>
    </symbol>
    <symbol viewBox="0 0 576 512" id="users-line">
      <path fill="currentColor" d="M288 96a32 32 0 1 1 0 64 32 32 0 1 1 0-64zm0 112a80 80 0 1 0 0-160 80 80 0 1 0 0 160zM160 128c0-16.2 3-31.8 8.5-46.1-5.3-1.2-10.9-1.9-16.5-1.9-39.8 0-72 32.2-72 72s32.2 72 72 72c14.6 0 28.2-4.4 39.6-11.8-10.6-12.1-18.9-26.2-24.3-41.6-4.1 3.4-9.5 5.5-15.2 5.5-13.3 0-24-10.7-24-24s10.7-24 24-24c2.8 0 5.5 .5 8 1.4l0-1.4zm264 96c39.8 0 72-32.2 72-72s-32.2-72-72-72c-5.7 0-11.2 .7-16.5 1.9 5.5 14.3 8.5 29.8 8.5 46.1l0 1.4c2.5-.9 5.2-1.4 8-1.4 13.3 0 24 10.7 24 24s-10.7 24-24 24c-5.8 0-11.1-2-15.2-5.5-5.4 15.4-13.8 29.5-24.3 41.6 11.4 7.5 25 11.8 39.6 11.8zM32 352l0 8c0 13.3 10.7 24 24 24s24-10.7 24-24l0-8c0-25 19.1-45.5 43.4-47.8 7.4-18 18-34.3 31.2-48.2L128 256c-53 0-96 43-96 96zm420.6-47.8C476.9 306.5 496 327 496 352l0 8c0 13.3 10.7 24 24 24s24-10.7 24-24l0-8c0-53-43-96-96-96l-26.7 0c13.2 13.9 23.9 30.2 31.2 48.2zM256 256c-53 0-96 43-96 96l0 8c0 13.3 10.7 24 24 24s24-10.7 24-24l0-8c0-26.5 21.5-48 48-48l64 0c26.5 0 48 21.5 48 48l0 8c0 13.3 10.7 24 24 24s24-10.7 24-24l0-8c0-53-43-96-96-96l-64 0zM24 432c-13.3 0-24 10.7-24 24s10.7 24 24 24l528 0c13.3 0 24-10.7 24-24s-10.7-24-24-24L24 432z"/>
    </symbol>
    <symbol viewBox="0 0 512 512" id="vial">
      <path fill="currentColor" d="M329 7c-9.4-9.4-24.6-9.4-33.9 0s-9.4 24.6 0 33.9l15 15-279.8 279.8c-19.4 19.4-30.2 45.6-30.2 73 0 57 46.2 103.2 103.2 103.2 27.4 0 53.6-10.9 73-30.2L456 201.9 471 217c9.4 9.4 24.6 9.4 33.9 0s9.4-24.6 0-33.9L361 39 329 7zm-151 249l166.1-166.1 78.1 78.1-88 88-156.1 0zm-48 48l156.1 0-143.8 143.8c-10.4 10.4-24.4 16.2-39 16.2-30.5 0-55.2-24.7-55.2-55.2 0-14.6 5.8-28.7 16.2-39L129.9 304z"/>
    </symbol>
    <symbol viewBox="0 0 512 512" id="wallet">
      <path fill="currentColor" d="M88 32C39.4 32 0 71.4 0 120L0 360c0 48.6 39.4 88 88 88l336 0c48.6 0 88-39.4 88-88l0-144c0-48.6-39.4-88-88-88l-304 0c-13.3 0-24 10.7-24 24s10.7 24 24 24l304 0c22.1 0 40 17.9 40 40l0 144c0 22.1-17.9 40-40 40L88 400c-22.1 0-40-17.9-40-40l0-240c0-22.1 17.9-40 40-40l368 0c13.3 0 24-10.7 24-24s-10.7-24-24-24L88 32zM384 320a32 32 0 1 0 0-64 32 32 0 1 0 0 64z"/>
    </symbol>
    <symbol viewBox="0 0 384 512" id="xmark">
      <path fill="currentColor" d="M7.5 105c-9.4-9.4-9.4-24.6 0-33.9s24.6-9.4 33.9 0l151 151 151-151c9.4-9.4 24.6-9.4 33.9 0s9.4 24.6 0 33.9l-151 151 151 151c9.4 9.4 9.4 24.6 0 33.9s-24.6 9.4-33.9 0l-151-151-151 151c-9.4 9.4-24.6 9.4-33.9 0s-9.4-24.6 0-33.9l151-151-151-151z"/>
    </symbol>
  </defs>
</svg>
