<svg xmlns="http://www.w3.org/2000/svg" style="display: none">
  <defs>
    <symbol viewBox="0 0 256 512" id="angle-left">
      <path fill="currentColor" d="M15.5 239c-9.4 9.4-9.4 24.6 0 33.9l160 160c9.4 9.4 24.6 9.4 33.9 0s9.4-24.6 0-33.9l-143-143 143-143c9.4-9.4 9.4-24.6 0-33.9s-24.6-9.4-33.9 0L15.5 239z"/>
    </symbol>
    <symbol viewBox="0 0 512 512" id="share-nodes">
      <path fill="currentColor" d="M432 96a48 48 0 1 0 -96 0 48 48 0 1 0 96 0zm48 0c0 53-43 96-96 96-27.4 0-52.1-11.5-69.6-29.9L188.9 231.8c2 7.7 3.1 15.8 3.1 24.2s-1.1 16.5-3.1 24.2l125.5 69.7c17.5-18.4 42.2-29.9 69.6-29.9 53 0 96 43 96 96s-43 96-96 96-96-43-96-96c0-8.3 1.1-16.5 3.1-24.2L165.6 322.1C148.1 340.5 123.4 352 96 352 43 352 0 309 0 256s43-96 96-96c27.4 0 52.1 11.5 69.6 29.9l125.5-69.7c-2-7.7-3.1-15.8-3.1-24.2 0-53 43-96 96-96s96 43 96 96zM144 256a48 48 0 1 0 -96 0 48 48 0 1 0 96 0zM384 464a48 48 0 1 0 0-96 48 48 0 1 0 0 96z"/>
    </symbol>
    <symbol viewBox="0 0 448 512" id="trash">
      <path fill="currentColor" d="M136.2 4.8c4.7-12.5 16.6-20.8 30-20.8l115.6 0c13.3 0 25.3 8.3 30 20.8L328 48 424 48c13.3 0 24 10.7 24 24s-10.7 24-24 24L24 96C10.7 96 0 85.3 0 72S10.7 48 24 48l96 0 16.2-43.2zm-84.6 448L28.7 144 76.9 144 99.5 449.2c.6 8.4 7.6 14.8 16 14.8l217.1 0c8.4 0 15.3-6.5 16-14.8l22.6-305.2 48.1 0-22.9 308.7c-2.5 33.4-30.3 59.3-63.8 59.3l-217.1 0c-33.5 0-61.3-25.9-63.8-59.3z"/>
    </symbol>
  </defs>
</svg>
